<svg xmlns="http://www.w3.org/2000/svg" viewBox="0 0 40.06 82.83"><defs><style>.cls-1{fill:#e6e7e8;}.cls-2{fill:#d1d3d4;}.cls-3{fill:#f1f2f2;}.cls-4{fill:#939598;}.cls-5{fill:#bcbec0;}.cls-6{fill:#fff;}.cls-7{fill:#303033;}.cls-8{opacity:0.3;}.cls-9{fill:#535359;}.cls-10{fill:#a7a9ac;}.cls-11{fill:#121214;}.cls-12{fill:#2b5e85;}.cls-13{fill:#e31b25;}.cls-14{fill:#24d2c1;}</style></defs><g id="Capa_2" data-name="Capa 2"><g id="Layer_1" data-name="Layer 1"><polygon class="cls-1" points="13.53 45.4 7.62 39.36 15.55 11.01 21.46 17.05 13.53 45.4"/><polygon class="cls-2" points="13.53 45.4 29.89 41.21 37.82 12.86 21.46 17.05 13.53 45.4"/><polygon class="cls-3" points="21.46 17.05 37.82 12.86 31.92 6.82 15.55 11.01 21.46 17.05"/><polygon class="cls-1" points="14.3 28.28 10.98 24.89 13.68 15.24 17 18.63 14.3 28.28"/><polygon class="cls-2" points="14.3 28.28 16.73 27.65 19.43 18.01 17 18.63 14.3 28.28"/><polygon class="cls-3" points="17 18.63 19.43 18.01 16.12 14.62 13.68 15.24 17 18.63"/><path class="cls-4" d="M21.45.27,20.87.1,16.25,16.6h0a.16.16,0,0,0,.06.14.45.45,0,0,0,.4.12.16.16,0,0,0,.12-.1h0Z"/><path class="cls-5" d="M21.33.36a.51.51,0,0,1-.41-.11C20.83.15,20.86,0,21,0a.48.48,0,0,1,.4.11C21.49.22,21.46.33,21.33.36Z"/><path class="cls-1" d="M38.8,48.8s-.79,1.42-1.59,1c-.6-.34-1.49-1.06-1.46-1.68a6,6,0,0,1,.5-1.17c0-.38,0-1.56,0-1.56l2.34,1,.76,1.43Z"/><path class="cls-6" d="M33.7,42.32a14.56,14.56,0,0,1,2,2.88c.44,1.1,0,3.17.74,3.4s1.29-1.84,1.29-1.84l.91.92s-.77,1.89-.05,2.45,1.54-2.2,1.43-2.73c-.48-2.45-1.6-5-1.93-6.54-.21-.36-2.27.11-2.27.11Z"/><path class="cls-7" d="M32.82,40.27c.27.73.5,1.34.63,1.74.45,1.36,4.93-.33,4.71-1.43-.07-.37-.21-1-.37-1.79C34.9,40.76,32.82,40.27,32.82,40.27Z"/><path class="cls-6" d="M30.68,31.52c-.62,1.92,1.68,8.12,2.31,9.78.56,1.48,5.38-.58,5.09-1.78-.37-1.51-2.16-8.41-2.16-8.41Z"/><path class="cls-2" d="M36,31.52c-.2,4-3.4,8.77-3.4,8.77S35.57,31.1,36,31.52Z"/><path class="cls-2" d="M36.71,28.36a2.79,2.79,0,0,1-3.25,2.18A2.78,2.78,0,0,1,31.82,27a2.8,2.8,0,0,1,3.25-2.18A2.79,2.79,0,0,1,36.71,28.36Z"/><path class="cls-7" d="M17.71,70s-3.87,1.11-4.92,2.18c-.67.7,1.08,6.09,2,8.78,1.08,3.19,3.91,1.74,4.1.36.16-1.21-.95-5.65.87-7.43C20.46,73.15,17.71,70,17.71,70Z"/><path class="cls-6" d="M17.85,69.07a22.88,22.88,0,0,0-4.5,2.69c-.68.69,1.08,6.09,2,8.77,1.09,3.2,3.92,1.75,4.11.37.16-1.21-1-5.66.87-7.43C21,72.78,17.85,69.07,17.85,69.07Z"/><path class="cls-7" d="M19.21,67.65c-.7.53-1.28,1-1.67,1.26-1.34,1,2,5.26,3.12,4.66l1.82-1C19.38,70.07,19.21,67.65,19.21,67.65Z"/><path class="cls-6" d="M22,51.75s.44,9,.34,12.14a24.45,24.45,0,0,0-4.13,4c-1.63,1.92,2.19,6.16,3.53,5.4s5.31-3.37,6.55-5.13,2.82-18.62,2.37-21.81C30,44.59,22,51.75,22,51.75Z"/><path class="cls-7" d="M4.6,64a8.28,8.28,0,0,0-3.21.14C.52,64.58.18,69,0,71.85a2.79,2.79,0,0,0,3.76,3c1.09-.56.71-4.26,2.55-5.67C7.1,68.62,4.6,64,4.6,64Z"/><path class="cls-6" d="M5.18,63.85A8.49,8.49,0,0,0,2,64C1.1,64.43.76,68.87.59,71.7a2.79,2.79,0,0,0,3.76,3c1.09-.56.71-4.27,2.55-5.67C7.68,68.47,5.18,63.85,5.18,63.85Z"/><path class="cls-7" d="M7.22,63c-.81.32-1.48.61-1.93.77-1.53.55.53,5.54,1.76,5.26l2-.47C6.75,65.39,7.22,63,7.22,63Z"/><path class="cls-6" d="M15.93,44.39c-2,6.39-4.18,14.88-4.18,14.88S8.6,61.33,6.28,63.1c-2.08,1.59.27,6.62,2.63,5.67s6-2.74,6.77-3.19,4.19-4.95,6.58-13.48a30.79,30.79,0,0,0,.58-3.26L20,44.23l-2.23-1.48S16.43,44,15.93,44.39Z"/><path class="cls-7" d="M30.78,45.07l-.09,1.31a8.18,8.18,0,0,1-7.91,5.37V50.28Z"/><path class="cls-7" d="M16.41,43.7s-.33.44-.48.69c4.16-.38,6.33,7.71,6.33,7.71l.36-.63.66-.75.19-4.17-3.1-3.18-2.69-.91Z"/><path class="cls-6" d="M25.87,23.37a24.36,24.36,0,0,0-4.68,2.21s-2.39,7-2.37,8.47c.05,3.93-1.39,5.4-2.41,9.65,3.78-.56,6.16,6.23,6.21,7.77,5.91-.93,8-5.14,8.22-6.7.22-.87,3.73-9.12,3.73-9.12s3.19-6.55,1-9.08a53.74,53.74,0,0,0-4.89-3.81A19.06,19.06,0,0,0,25.87,23.37Z"/><path class="cls-4" d="M29.55,38.6a58.49,58.49,0,0,0-2.42,6.66l1.73-.44c.66-2.13,1.42-4,2.1-5.63,1.5-3.62,2.79-6.75,2.25-10.95l-1.52.2C32.18,32.23,31,35,29.55,38.6Z"/><path class="cls-2" d="M18.78,35.38l-.07.64a19.16,19.16,0,0,0,3.87-3.85,30.11,30.11,0,0,0-3.39,1Z"/><path class="cls-8" d="M28.32,26.92c.66,1.91,6.69,3.15,7.37-.15.12-.58-3.82-1-3.82-1A23.31,23.31,0,0,0,28.32,26.92Z"/><path class="cls-6" d="M11.87,47.13a10.34,10.34,0,0,0-.15,1.38c0,.46.46,1.21.54,1.91s-.11,2.89-.73,2.85c-.85,0-.79-1.83-.86-1.8a11.8,11.8,0,0,0-.3,1.43s.79,2.05-.08,2.75S6.43,54,6.65,51.82s.55-5.26.55-5.26Z"/><path class="cls-9" d="M38.76,18.79a2.15,2.15,0,0,1-.63,2l-.42-2.29.55-.08S38.59,18.69,38.76,18.79Z"/><path class="cls-9" d="M25.61,21.35l-.24,2.3c-.14,1.54,1.42,2.88,4,3.64l.4-1.91L28,22.55Z"/><path class="cls-10" d="M29.16,25.85c-1.73-.76-3.9-2.36-3.76-4l.21-2.4L29,21l1.73,3.5A15.53,15.53,0,0,1,29.16,25.85Z"/><path class="cls-6" d="M30.76,24.3l5.08,1.62,0,.27c-.14,1.63-2.54,2.59-4.93,2.08A5,5,0,0,1,27,24.73c-.09-.45.63-1.29.63-1.29Z"/><path class="cls-1" d="M35.79,26.41c-1.28,1.67-6.77,1.57-8-2-.35-.37,0-.35,0-.35l3.08-.63,4,1.61A9.81,9.81,0,0,1,35.79,26.41Z"/><path class="cls-5" d="M38.35,19.28a1.48,1.48,0,0,1-.3,1.49L37.31,19l.54-.08Z"/><path class="cls-11" d="M38,19.14a6.78,6.78,0,0,1-2.21,7.27c-1,.77-5.84,1.9-7.83-2.23-.72-.62-.67-2.58-.67-2.58L34.93,17Z"/><path class="cls-6" d="M37.75,21.65c0,.15-.1.27-.18.26s-.14-.14-.12-.29.1-.27.18-.26S37.77,21.5,37.75,21.65Z"/><path class="cls-6" d="M37.91,20.39c0,.37-.12.68-.32.69s-.38-.28-.4-.65.13-.67.33-.69S37.89,20,37.91,20.39Z"/><path class="cls-6" d="M25.3,19.45a6.42,6.42,0,0,1,12.26-2h-.11a7.81,7.81,0,0,1,.9,1.86c-5.64-.41-10.54,4.17-10.54,4.17l-.81-.4s-1.63-.9-1.72-2.2a6.42,6.42,0,0,1,0-1.24C25.29,19.56,25.3,19.51,25.3,19.45Z"/><path class="cls-10" d="M27.53,23.31c3.82-4.7,10.46-5,11.23-4.52a6.19,6.19,0,0,0-2.12-3.31c-3.72-1.26-9.17,3-9.61,7.47Z"/><path class="cls-1" d="M26.63,22.55l.39-.18h0a.4.4,0,0,1,.41.07A1.85,1.85,0,0,1,28,24a.76.76,0,0,1-.34.67h0l-.4.18-.08-.29A1.93,1.93,0,0,1,26.67,23q0-.12,0-.21Z"/><path class="cls-6" d="M26.31,23.21a1.85,1.85,0,0,0,.57,1.54c.37.25.7,0,.76-.61a1.86,1.86,0,0,0-.58-1.54C26.7,22.35,26.36,22.62,26.31,23.21Z"/><path class="cls-1" d="M26.52,23.36a1.26,1.26,0,0,0,.39,1,.26.26,0,0,0,.4-.06.24.24,0,0,1-.15-.06,1.22,1.22,0,0,1-.38-1,.66.66,0,0,1,.11-.35C26.7,22.86,26.55,23,26.52,23.36Z"/><path class="cls-2" d="M26.78,23.24a1.22,1.22,0,0,0,.38,1,.24.24,0,0,0,.15.06.66.66,0,0,0,.11-.35A1.24,1.24,0,0,0,27,23a.42.42,0,0,0-.14-.06A.66.66,0,0,0,26.78,23.24Z"/><path class="cls-7" d="M7.31,44.32c-.08.77-.14,1.42-.2,1.83C6.91,47.58,11.67,48,12,47c.09-.37.26-1,.46-1.77C9,45.67,7.31,44.32,7.31,44.32Z"/><path class="cls-6" d="M23.19,26.57c-1.07-1.05-3-1.23-5.6,1.19s-5.72,5.62-7.81,7.59c-1.46,1.39-2.42,7.93-2.67,9.7-.22,1.56,5,2.06,5.32.88.4-1.5,1.89-7.32,1.89-7.32a82.9,82.9,0,0,0,8.06-6.24C23.56,31.23,25.32,28.67,23.19,26.57Z"/><path class="cls-2" d="M16.88,33.87c.35.22,1.67-1.12,4.13-3,1.41-1.08,4.71-2.62,2.41-4.89-1.16-1.14-3.29-1.33-6.07,1.29-1,.94-2.24,2.32-3.11,3C13.58,30.81,16.13,33.41,16.88,33.87Z"/><path class="cls-12" d="M18.43,30a1.38,1.38,0,0,1-1.91.21,1.38,1.38,0,0,1,.27-1.9,1.38,1.38,0,0,1,1.91-.21A1.38,1.38,0,0,1,18.43,30Z"/><polygon class="cls-13" points="16.13 29.01 18.58 30.39 17.67 30.98 16.13 29.01"/><path class="cls-2" d="M11.26,33.93c-1.1,2.42.44,3.5.05,4.49s-2.51,1.38-3,.31A4.31,4.31,0,0,1,11.26,33.93Z"/><path class="cls-2" d="M12.26,61c.75-.7,1.59,2.05,5.63,1.63.8-.09-.18,1.9-1.56,3.13-1,.91-2.29,1.4-3,1C11,65.66,11.51,61.75,12.26,61Z"/><path class="cls-2" d="M23.38,65.11c.47-.92,2.18,1.39,5.85-.37.72-.35.46,1.85-.42,3.48-.65,1.2-1.68,2.09-2.53,2C23.79,69.87,22.9,66,23.38,65.11Z"/><polygon class="cls-1" points="27.56 41.91 26.14 40.45 27.93 34.06 29.35 35.52 27.56 41.91"/><polygon class="cls-2" points="27.56 41.91 35.4 39.9 37.18 33.51 29.35 35.52 27.56 41.91"/><polygon class="cls-3" points="29.35 35.52 37.18 33.51 35.76 32.05 27.93 34.06 29.35 35.52"/><polygon class="cls-1" points="21.81 24.06 20.37 22.59 21.06 20.12 22.5 21.6 21.81 24.06"/><polygon class="cls-2" points="21.81 24.06 24.84 23.29 25.53 20.82 22.5 21.6 21.81 24.06"/><polygon class="cls-3" points="22.5 21.6 25.53 20.82 24.08 19.34 21.06 20.12 22.5 21.6"/><path class="cls-5" d="M26,23.44l-1.65,1.62-1.63-1.67h0a.59.59,0,0,1-.09-.58,1.8,1.8,0,0,1,1.17-1.14.56.56,0,0,1,.57.1h0Z"/><path class="cls-4" d="M25.47,23.34a1.8,1.8,0,0,0-1.17,1.14c-.14.51.15.81.66.68A1.8,1.8,0,0,0,26.13,24C26.27,23.51,26,23.21,25.47,23.34Z"/><path class="cls-9" d="M25.71,23.46a.59.59,0,0,1,0,.29,1.57,1.57,0,0,1-1,1,.67.67,0,0,1-.28,0c0,.25.26.37.58.29a1.52,1.52,0,0,0,1-1C26.08,23.73,26,23.51,25.71,23.46Z"/><path class="cls-14" d="M25.71,23.46a.7.7,0,0,0-.28,0,1.52,1.52,0,0,0-1,1,.55.55,0,0,0,0,.28.67.67,0,0,0,.28,0,1.57,1.57,0,0,0,1-1A.59.59,0,0,0,25.71,23.46Z"/></g></g></svg>