<svg xmlns="http://www.w3.org/2000/svg" xmlns:xlink="http://www.w3.org/1999/xlink" viewBox="0 0 70.54 70.54"><defs><style>.cls-1{isolation:isolate;}.cls-2,.cls-3{fill-rule:evenodd;}.cls-2{fill:url(#Áåçûìÿííûé_ãðàäèåíò_560);}.cls-3{mix-blend-mode:multiply;opacity:0.2;fill:url(#Áåçûìÿííûé_ãðàäèåíò_559);}</style><radialGradient id="Áåçûìÿííûé_ãðàäèåíò_560" cx="13.42" cy="18.77" r="56.65" gradientUnits="userSpaceOnUse"><stop offset="0" stop-color="#fee0ff"/><stop offset="0.04" stop-color="#fde3ff"/><stop offset="0.3" stop-color="#faf3ff"/><stop offset="0.59" stop-color="#f8fcff"/><stop offset="0.99" stop-color="#f7ffff"/></radialGradient><linearGradient id="Áåçûìÿííûé_ãðàäèåíò_559" x1="35.37" y1="70.54" x2="35.37" gradientUnits="userSpaceOnUse"><stop offset="0" stop-color="#e8ddff"/><stop offset="1" stop-color="#aa8ad8"/></linearGradient></defs><g class="cls-1"><g id="Capa_2" data-name="Capa 2"><g id="sea"><path class="cls-2" d="M70.54,35.27A35.27,35.27,0,1,1,0,35.27a37.34,37.34,0,0,1,.2-3.83,35.27,35.27,0,0,1,70.34,3.83Z"/><path class="cls-3" d="M70.54,35.27A35.27,35.27,0,0,1,1,43.75l.28.39a2.76,2.76,0,0,1,.4.85c.06.18.05.38.1.55s.33.43.22.09c.15.32.19.62.33.94A11.48,11.48,0,0,1,2.88,48c.11.39.19.8.31,1.19s.29.69.43,1a14.9,14.9,0,0,0,1.7,3c.17.25.27.53.44.78s.44.48.64.74a3.2,3.2,0,0,0,.83.63c.31.19.57.42.86.62a3,3,0,0,0,1.69.45,7.31,7.31,0,0,1,2,0c1.12.3,1.26,1.76,1.84,2.59a1.83,1.83,0,0,0,1.07.66,3.52,3.52,0,0,1,1.28.61,1.91,1.91,0,0,0,1.07.43c.41,0,.32-.21.31-.55,0-.52-.36-.78-.64-1.18a3.42,3.42,0,0,1-.32-.7c-.07-.16-.16-.25-.08-.43a1.49,1.49,0,0,1,.73.41,6.29,6.29,0,0,0,1.49.8,3.29,3.29,0,0,1,.66.37,2.31,2.31,0,0,0,.39.31c.39.16.87-.47,1-.79a1.44,1.44,0,0,0-.31-1.17,11.42,11.42,0,0,1-1.26-1.52,11.58,11.58,0,0,1-1.22-1.74,4.35,4.35,0,0,1-.48-2.1A6.15,6.15,0,0,1,17.6,51a3.28,3.28,0,0,1,.23-.71c.18-.27.6-.23.87-.18a5,5,0,0,1,1.6.35c.44.25.73.83,1.27.9.85.11,1.59-.61,2.12-1.14s1-1.31,1.75-1.5c.41-.11.79.15,1.18.25a3.63,3.63,0,0,0,.54.15,1.24,1.24,0,0,0,.82-.26,2.2,2.2,0,0,1,1.81-.13,2.32,2.32,0,0,1,.77.46c.41.28.81.56,1.23.83a1.9,1.9,0,0,1,.88.89.66.66,0,0,1,0,.5c0,.15-.11.34,0,.49s.47.3.66.42a6.07,6.07,0,0,1,.81.63,3,3,0,0,1,1,2.12,1.69,1.69,0,0,1-.38,1.37c-.39.41-1.06.42-1.4.87a2.71,2.71,0,0,0-.43,1.28,2.78,2.78,0,0,1-.1.76,10.62,10.62,0,0,1-.51.94,7.18,7.18,0,0,0-.39.72c-.05.15-.09.3-.15.45a1.87,1.87,0,0,1-.77.85,3,3,0,0,1-1.44.53,4.88,4.88,0,0,1-1,0c-.1,0-.16-.09-.26-.12l-.33-.09a1,1,0,0,1-.61-.55,1.64,1.64,0,0,0-.56-.58,4.43,4.43,0,0,0-.62-.3c-.13-.07-.36-.1-.47-.2s.05-.41.17-.61a4.62,4.62,0,0,1,1-1.22,1.61,1.61,0,0,1,.56-.31A.74.74,0,0,1,28,59a1.11,1.11,0,0,1,.51.58,2.26,2.26,0,0,1-.48.35c-.14.06-.38,0-.41.23.45.49.82.78,1.44.32.33-.24,1.1-.63,1.09-1.08,0-.25-.48-.56-.66-.7s-.38-.23-.55-.37-.28-.36-.45-.52-.39-.32-.57-.49A2.18,2.18,0,0,0,27.4,57a3.51,3.51,0,0,0-.6-.33,3.68,3.68,0,0,0-1-.22,2.5,2.5,0,0,0-1.6,1.1c-.31.4-.9,1.15-.72,1.71.07.21.3.3.39.5a1.77,1.77,0,0,1,.12.37,7.5,7.5,0,0,0,.09.93c.3,1,.46,2.12,1.45,2.63a3.25,3.25,0,0,0,.46.22,4.88,4.88,0,0,1,.55.12,5.16,5.16,0,0,0,1.08.39,8.92,8.92,0,0,0,1.36.12,4.12,4.12,0,0,0,1.82-.21,3.55,3.55,0,0,0,.93-.63,2.15,2.15,0,0,0,.42-1.09c.08-.35.07-.88.35-1.16s.6-.28.85-.52a5.25,5.25,0,0,0,.9-1.29c.32-.61.74-1.14,1.07-1.75a4.69,4.69,0,0,1,.74-1,1.75,1.75,0,0,1,1-.39,4,4,0,0,0,1-.23c.3-.12.64-.24.93-.38a3.06,3.06,0,0,0,.66-.55,3.47,3.47,0,0,1,1.81-.78,1.33,1.33,0,0,1,.74,0c.22.07.44.19.67.24a2.28,2.28,0,0,0,1,.11c1.17-.35.37-1.39.17-2.16A18.71,18.71,0,0,1,43.69,48a4,4,0,0,1,.11-1.5c.08-.22.11-.47.21-.69s.24-.25.3-.39,0-.39.36-.54a1.89,1.89,0,0,1,.94-.19,7.13,7.13,0,0,1,2.84.24,5,5,0,0,1,1,.67c.34.25.6.43.64.88a1.28,1.28,0,0,0,.86,1.2,5.83,5.83,0,0,0,1.48.31,6.42,6.42,0,0,1,1-.11c.09,0,.2.1.27.1a1.08,1.08,0,0,0,.47-.15,2.44,2.44,0,0,1,1-.16c.68,0,.88-.44,1.37-.85A2.66,2.66,0,0,1,58.28,46a2.42,2.42,0,0,0,1.94-1.46c.63-1.13,1.23-2.6.72-3.88a7,7,0,0,0-.83-1.26,5.24,5.24,0,0,1-.58-1.48,1.66,1.66,0,0,0-1.06-1c-.39-.1-.81,0-1.11-.34a6.07,6.07,0,0,1-.82-1,4.22,4.22,0,0,1-.41-1.88.84.84,0,0,0-.1-.37,3.38,3.38,0,0,1,0-.45c-.08-.42-.21-.84-.3-1.27A6.48,6.48,0,0,1,55.37,30a1.62,1.62,0,0,1,.55-1.09,4.55,4.55,0,0,0,.85-1,2.66,2.66,0,0,0,.34-.59,2.82,2.82,0,0,0,.09-.64.79.79,0,0,1,.68-.63c.21,0,.43,0,.64,0a1.37,1.37,0,0,0,.79-.47,3.07,3.07,0,0,0,.33-2.05c0-.72-.5-1.05-.86-1.6a1.67,1.67,0,0,1-.08-1.84c.16-.21.4-.35.49-.63a1.59,1.59,0,0,0-.21-1A5,5,0,0,0,58,17.18a1.66,1.66,0,0,1-.31-.57c-.14-.27-.31-.51-.44-.79a1.76,1.76,0,0,0-.38-.59c-.1-.1-.14-.21-.24-.32-.24-.28-.59-.43-.81-.75a7.48,7.48,0,0,1-.54-.84,2.18,2.18,0,0,1-.15-.91,2.17,2.17,0,0,0-.46-1.09,2.39,2.39,0,0,0-.31-.42,5.84,5.84,0,0,1-.53-.77,1.64,1.64,0,0,0-.72-.53c-.13-.07-.16-.12-.31-.1a1.81,1.81,0,0,0-.6.42,3,3,0,0,1-1.15.58c-.42.14-.84.26-1.25.37s-1.11.18-1.66.32c-.75.18-1.43.33-1.78,1.06a3.89,3.89,0,0,0-.16,1.7,3.19,3.19,0,0,0,0,.62c.07.29.22.55.28.85a4.67,4.67,0,0,1-.35,2.36,4.38,4.38,0,0,1-1.32,1.81c-.75.7-1.89.68-2.78,1.08-.6.27-1.52.64-1.68,1.36-.12.54.19.9.28,1.39.07.32,0,.65.08.95s0,.59-.35.86a1.09,1.09,0,0,0-.43.5,2.67,2.67,0,0,0,0,.4.69.69,0,0,1-.49.46,3.91,3.91,0,0,0-1.09.33c-.31.2-.43.51-.81.59a2.12,2.12,0,0,1-.83,0c-.51-.06-1-.05-1.53-.16a10.67,10.67,0,0,0-2.65-.3c-.73,0-1.14.24-1.83-.17-.44-.26-.87-.55-1.32-.78s-1.09-.45-1.63-.66a25,25,0,0,0-2.52-.74,5.24,5.24,0,0,1-2.07-1.6A4.53,4.53,0,0,1,21.9,21a3.42,3.42,0,0,1,0-1.46c.16-1.19-.44-2.28-.26-3.47a14.55,14.55,0,0,1,.8-3.63c.22-.51.6-.9.85-1.38a2.36,2.36,0,0,1,1.26-1,3,3,0,0,1,1.2-.35c.5,0,.35.32.52.66a2.09,2.09,0,0,0,.53.58c.42.37,1,0,1.43-.27S29.36,9.81,30,10s.89.32,1.33,0A.7.7,0,0,0,31.59,9c-.36-.59-1.23-.61-1.83-.6a15.26,15.26,0,0,0-2.14.07,3.63,3.63,0,0,1-1.31.09A6.73,6.73,0,0,1,25,8.05a2.53,2.53,0,0,0-2,.24,3.52,3.52,0,0,0-2,1.73,7.2,7.2,0,0,0-.22,2.22,4.37,4.37,0,0,1-.19,1,4.53,4.53,0,0,1-.84,1.33A3,3,0,0,0,19,17a1.28,1.28,0,0,1-.13,1,6.13,6.13,0,0,0-.51.94c-.09.32.14.37.37.56a1.81,1.81,0,0,1,.62,1,2.21,2.21,0,0,1-.92,2.21c-.46.34-1.08.46-1.4.95-.17.26-.32.54-.48.81a2.29,2.29,0,0,1-1.06.88A4.61,4.61,0,0,0,14,26a2.16,2.16,0,0,0-.44.73c-.21.45-.46.86-.7,1.29a2.18,2.18,0,0,1-.88,1c-.5.28-1,.53-1.47.84A9,9,0,0,0,9.25,31a3.28,3.28,0,0,1-1.72.81c-1,.21-2,.48-3,.63a4.93,4.93,0,0,1-2.44-.22A13.11,13.11,0,0,1,.2,31.44a35.27,35.27,0,0,1,70.34,3.83Z"/></g></g></g></svg>