<svg xmlns="http://www.w3.org/2000/svg" xmlns:xlink="http://www.w3.org/1999/xlink" viewBox="0 0 171.76 106.42"><defs><style>.cls-1{isolation:isolate;}.cls-2{fill:url(#linear-gradient);}.cls-3{opacity:0.67;fill:url(#linear-gradient-2);}.cls-14,.cls-20,.cls-26,.cls-37,.cls-4{mix-blend-mode:screen;}.cls-4{fill:url(#linear-gradient-3);}.cls-5{fill:#fff;}.cls-6{fill:url(#linear-gradient-4);}.cls-10,.cls-12,.cls-13,.cls-16,.cls-17,.cls-21,.cls-24,.cls-25,.cls-27,.cls-28,.cls-29,.cls-30,.cls-31,.cls-32,.cls-33,.cls-35,.cls-36,.cls-38,.cls-39,.cls-40,.cls-41,.cls-7{mix-blend-mode:multiply;}.cls-8{fill:url(#linear-gradient-5);}.cls-10,.cls-9{fill:url(#linear-gradient-6);}.cls-11{fill:url(#linear-gradient-8);}.cls-12{fill:url(#linear-gradient-9);}.cls-13{fill:url(#linear-gradient-10);}.cls-14,.cls-24,.cls-25,.cls-37{opacity:0.28;}.cls-14{fill:url(#linear-gradient-11);}.cls-15{fill:url(#linear-gradient-12);}.cls-16{fill:url(#linear-gradient-13);}.cls-17{fill:url(#linear-gradient-14);}.cls-18{fill:url(#linear-gradient-15);}.cls-19{fill:url(#linear-gradient-16);}.cls-20{fill:url(#linear-gradient-17);}.cls-21{opacity:0.7;fill:url(#linear-gradient-18);}.cls-22{fill:url(#linear-gradient-19);}.cls-23{fill:url(#linear-gradient-20);}.cls-24{fill:url(#linear-gradient-21);}.cls-25{fill:url(#linear-gradient-22);}.cls-26{opacity:0.69;fill:url(#linear-gradient-23);}.cls-27{fill:url(#linear-gradient-24);}.cls-28{fill:url(#linear-gradient-25);}.cls-29{fill:url(#linear-gradient-26);}.cls-30{fill:url(#linear-gradient-27);}.cls-31{fill:url(#linear-gradient-28);}.cls-32{fill:url(#linear-gradient-29);}.cls-33{fill:url(#linear-gradient-30);}.cls-34{fill:url(#linear-gradient-31);}.cls-35{fill:url(#linear-gradient-32);}.cls-36{fill:url(#linear-gradient-33);}.cls-37{fill:url(#linear-gradient-34);}.cls-38{fill:url(#linear-gradient-35);}.cls-39{fill:url(#linear-gradient-36);}.cls-40{fill:url(#linear-gradient-37);}.cls-41{fill:url(#linear-gradient-38);}</style><linearGradient id="linear-gradient" x1="55.53" y1="83.53" x2="101.31" y2="83.53" gradientUnits="userSpaceOnUse"><stop offset="0" stop-color="#f60"/><stop offset="0.33" stop-color="#ff6f00"/><stop offset="0.87" stop-color="#ff8700"/><stop offset="1" stop-color="#ff8e00"/></linearGradient><linearGradient id="linear-gradient-2" x1="57.48" y1="83.53" x2="99.37" y2="83.53" gradientUnits="userSpaceOnUse"><stop offset="0" stop-color="#ff8b00"/><stop offset="0.4" stop-color="#ffa300"/><stop offset="1" stop-color="#ffce00"/></linearGradient><linearGradient id="linear-gradient-3" x1="78.42" y1="64.4" x2="78.42" y2="102.66" gradientUnits="userSpaceOnUse"><stop offset="0" stop-color="#fff"/><stop offset="0.14" stop-color="#c9c9c9"/><stop offset="0.31" stop-color="#8d8d8d"/><stop offset="0.48" stop-color="#5b5b5b"/><stop offset="0.64" stop-color="#333"/><stop offset="0.78" stop-color="#171717"/><stop offset="0.91" stop-color="#060606"/><stop offset="1"/></linearGradient><linearGradient id="linear-gradient-4" x1="50.69" y1="89.33" x2="109.97" y2="89.33" gradientUnits="userSpaceOnUse"><stop offset="0" stop-color="#9dcbc3"/><stop offset="0.2" stop-color="#9ec7c3"/><stop offset="0.39" stop-color="#a0bbc4"/><stop offset="0.58" stop-color="#a5a8c6"/><stop offset="0.77" stop-color="#aa8dc8"/><stop offset="0.95" stop-color="#b26acb"/><stop offset="1" stop-color="#b460cc"/></linearGradient><linearGradient id="linear-gradient-5" x1="50.69" y1="89.33" x2="109.97" y2="89.33" gradientUnits="userSpaceOnUse"><stop offset="0" stop-color="#7c00ff"/><stop offset="0.11" stop-color="#7d06fd"/><stop offset="0.25" stop-color="#7f15f9"/><stop offset="0.41" stop-color="#842ff1"/><stop offset="0.58" stop-color="#8a54e6"/><stop offset="0.76" stop-color="#9182d8"/><stop offset="0.95" stop-color="#9abbc8"/><stop offset="1" stop-color="#9dcbc3"/></linearGradient><linearGradient id="linear-gradient-6" x1="48.52" y1="86.33" x2="112.14" y2="86.33" xlink:href="#linear-gradient-5"/><linearGradient id="linear-gradient-8" x1="19.4" y1="31.53" x2="81.97" y2="31.53" xlink:href="#linear-gradient-4"/><linearGradient id="linear-gradient-9" x1="19.4" y1="31.53" x2="81.97" y2="31.53" xlink:href="#linear-gradient-5"/><linearGradient id="linear-gradient-10" x1="19.4" y1="31.36" x2="81.97" y2="31.36" gradientUnits="userSpaceOnUse"><stop offset="0" stop-color="#a81ba4"/><stop offset="0.12" stop-color="#a821a5"/><stop offset="0.28" stop-color="#a730a8"/><stop offset="0.45" stop-color="#a54aac"/><stop offset="0.64" stop-color="#a36fb3"/><stop offset="0.83" stop-color="#a09dbb"/><stop offset="1" stop-color="#9dcbc3"/></linearGradient><linearGradient id="linear-gradient-11" x1="22.49" y1="35.19" x2="35.04" y2="35.19" gradientUnits="userSpaceOnUse"><stop offset="0" stop-color="#fff"/><stop offset="0.15" stop-color="#cecece"/><stop offset="0.38" stop-color="#868686"/><stop offset="0.59" stop-color="#4c4c4c"/><stop offset="0.77" stop-color="#232323"/><stop offset="0.92" stop-color="#090909"/><stop offset="1"/></linearGradient><linearGradient id="linear-gradient-12" x1="-25.63" y1="28" x2="122.53" y2="28" gradientTransform="translate(38.42 23.02) rotate(17.48)" xlink:href="#linear-gradient-4"/><linearGradient id="linear-gradient-13" x1="121.96" y1="2.29" x2="122.43" y2="2.29" gradientTransform="translate(38.42 23.02) rotate(17.48)" xlink:href="#linear-gradient-5"/><linearGradient id="linear-gradient-14" x1="-231.87" y1="31.57" x2="177.15" y2="31.57" gradientTransform="translate(38.42 23.02) rotate(17.48)" xlink:href="#linear-gradient-5"/><linearGradient id="linear-gradient-15" x1="-59.93" y1="-14.71" x2="137.63" y2="47.52" gradientTransform="translate(106.54 -46.63) rotate(90)" gradientUnits="userSpaceOnUse"><stop offset="0" stop-color="#057300"/><stop offset="0.12" stop-color="#138a00"/><stop offset="0.41" stop-color="#33bc00"/><stop offset="0.66" stop-color="#4ae100"/><stop offset="0.87" stop-color="#58f700"/><stop offset="1" stop-color="#5dff00"/></linearGradient><linearGradient id="linear-gradient-16" x1="-43.92" y1="-9.66" x2="130.29" y2="45.21" gradientTransform="translate(106.54 -46.63) rotate(90)" gradientUnits="userSpaceOnUse"><stop offset="0" stop-color="#b0ff00"/><stop offset="1" stop-color="#5dff00"/></linearGradient><linearGradient id="linear-gradient-17" x1="105.73" y1="1.96" x2="107.33" y2="47.27" gradientTransform="matrix(0.88, 0.08, -0.09, 1, -19.57, -17.8)" xlink:href="#linear-gradient-3"/><linearGradient id="linear-gradient-18" x1="75.55" y1="27.28" x2="75.55" y2="57.05" gradientTransform="translate(3.61 -0.48) rotate(1.07)" gradientUnits="userSpaceOnUse"><stop offset="0" stop-color="#3dcd00"/><stop offset="0.08" stop-color="#44cf09"/><stop offset="0.22" stop-color="#56d421"/><stop offset="0.4" stop-color="#74db49"/><stop offset="0.6" stop-color="#9ee680"/><stop offset="0.83" stop-color="#d3f4c5"/><stop offset="1" stop-color="#fff"/></linearGradient><linearGradient id="linear-gradient-19" x1="39.58" y1="51.13" x2="131.59" y2="51.13" gradientTransform="matrix(0.89, -0.01, 0.02, 1, 1.19, -2.64)" xlink:href="#linear-gradient-4"/><linearGradient id="linear-gradient-20" x1="39.58" y1="51.13" x2="131.59" y2="51.13" gradientTransform="matrix(0.89, -0.01, 0.02, 1, 1.19, -2.64)" xlink:href="#linear-gradient-5"/><linearGradient id="linear-gradient-21" x1="57.07" y1="68" x2="73.76" y2="68" xlink:href="#linear-gradient-4"/><linearGradient id="linear-gradient-22" x1="14.95" y1="52.77" x2="31.65" y2="52.77" xlink:href="#linear-gradient-4"/><linearGradient id="linear-gradient-23" x1="40.36" y1="47.64" x2="93.8" y2="47.64" xlink:href="#linear-gradient-11"/><linearGradient id="linear-gradient-24" x1="5.56" y1="63.4" x2="46.45" y2="63.4" xlink:href="#linear-gradient-5"/><linearGradient id="linear-gradient-25" x1="69.58" y1="75.55" x2="79.49" y2="75.55" xlink:href="#linear-gradient-5"/><linearGradient id="linear-gradient-26" x1="131.99" y1="58.44" x2="154.41" y2="58.44" xlink:href="#linear-gradient-5"/><linearGradient id="linear-gradient-27" x1="78.43" y1="69.94" x2="85.92" y2="69.94" xlink:href="#linear-gradient-5"/><linearGradient id="linear-gradient-28" x1="93.35" y1="77.5" x2="132.71" y2="77.5" xlink:href="#linear-gradient-5"/><linearGradient id="linear-gradient-29" x1="132.07" y1="58.07" x2="154.41" y2="58.07" xlink:href="#linear-gradient-5"/><linearGradient id="linear-gradient-30" x1="128.16" y1="54.96" x2="146.8" y2="54.96" xlink:href="#linear-gradient-4"/><linearGradient id="linear-gradient-31" x1="109.19" y1="45.19" x2="171.76" y2="45.19" xlink:href="#linear-gradient-4"/><linearGradient id="linear-gradient-32" x1="109.19" y1="45.19" x2="171.76" y2="45.19" xlink:href="#linear-gradient-5"/><linearGradient id="linear-gradient-33" x1="109.19" y1="45.01" x2="171.76" y2="45.01" xlink:href="#linear-gradient-10"/><linearGradient id="linear-gradient-34" x1="112.28" y1="48.84" x2="124.83" y2="48.84" xlink:href="#linear-gradient-11"/><linearGradient id="linear-gradient-35" x1="93.35" y1="77.5" x2="132.32" y2="77.5" xlink:href="#linear-gradient-5"/><linearGradient id="linear-gradient-36" x1="69.58" y1="75.56" x2="78.85" y2="75.56" xlink:href="#linear-gradient-5"/><linearGradient id="linear-gradient-37" x1="78.43" y1="69.94" x2="85.34" y2="69.94" xlink:href="#linear-gradient-5"/><linearGradient id="linear-gradient-38" x1="5.56" y1="63.23" x2="45.66" y2="63.23" xlink:href="#linear-gradient-5"/></defs><g class="cls-1"><g id="Capa_2" data-name="Capa 2"><g id="Layer_3" data-name="Layer 3"><circle class="cls-2" cx="78.42" cy="83.53" r="22.89"/><circle class="cls-3" cx="78.42" cy="83.53" r="20.94"/><circle class="cls-4" cx="78.42" cy="83.53" r="19.13"/><path class="cls-5" d="M79.64,69.25c1,2.14-1.71,5.63-6.16,7.79s-8.89,2.19-9.94,0,1.72-5.63,6.17-7.8S78.6,67.11,79.64,69.25Z"/><ellipse class="cls-6" cx="80.33" cy="89.33" rx="29.64" ry="8.48"/><g class="cls-7"><ellipse class="cls-8" cx="80.33" cy="89.33" rx="29.64" ry="8.48"/></g><g class="cls-7"><ellipse class="cls-9" cx="80.33" cy="86.33" rx="31.81" ry="8.48"/><ellipse class="cls-10" cx="80.33" cy="86.33" rx="31.81" ry="8.48"/></g><path class="cls-11" d="M19.41,46.48c.7-11.1,9.78-30.42,62.56-35.82,0,0-36.86,14.46-37.61,34.92L26.89,52.06A5.57,5.57,0,0,1,19.41,46.48Z"/><path class="cls-12" d="M19.41,46.48c.7-11.1,9.78-30.42,62.56-35.82,0,0-36.86,14.46-37.61,34.92L26.89,52.06A5.57,5.57,0,0,1,19.41,46.48Z"/><path class="cls-13" d="M82,10.66c-47.63,8.8-55.08,41.4-55.08,41.4l17.47-6.48C45.11,25.12,82,10.66,82,10.66Z"/><path class="cls-14" d="M35,25.73S21.61,34.79,22.54,43,35,25.73,35,25.73Z"/><path class="cls-15" d="M154.41,61.51C154.48,51.07,120,42.35,77.34,42S.08,49.94,0,60.39C-.09,72.86,35.53,91.79,78.17,92.1S154.32,74,154.41,61.51Z"/><path class="cls-16" d="M154.32,62.35a4.79,4.79,0,0,0,.09-.84A6,6,0,0,1,154.32,62.35Z"/><path class="cls-17" d="M154.32,62.35c-1.08,6.24-13.68,13-32.75,17.27A194.85,194.85,0,0,1,78.23,84q-3.77,0-7.47-.18C31.51,82.13-.07,70.21,0,60.39-.08,72,30.66,89.12,69.21,91.75c1.41.1,2.83.17,4.26.23h.24c1.48.06,3,.1,4.46.11,1.26,0,2.51,0,3.75,0l1.22,0c.83,0,1.66,0,2.48-.08l1.43-.07,2.22-.14,1.48-.11,2.13-.18,1.47-.15,2.1-.23,1.41-.18c.73-.09,1.44-.19,2.16-.3l1.28-.18,2.58-.43.77-.13c1.09-.19,2.15-.4,3.21-.61l1.26-.28c.64-.13,1.29-.27,1.92-.42l1.41-.33,1.7-.42,1.43-.38,1.59-.43,1.42-.41,1.51-.46,1.39-.43L123,85.2l1.33-.45,1.5-.54,1.19-.44C143.1,77.62,153.49,69.2,154.32,62.35Z"/><ellipse class="cls-18" cx="78.59" cy="28.88" rx="28.88" ry="38.19" transform="translate(48.24 106.91) rotate(-88.93)"/><ellipse class="cls-19" cx="78.59" cy="28.88" rx="25.46" ry="33.68" transform="translate(48.24 106.92) rotate(-88.93)"/><ellipse class="cls-20" cx="71.58" cy="21.95" rx="23.34" ry="15.6" transform="translate(-2.93 14.6) rotate(-11.42)"/><path class="cls-5" d="M80.87,15.55c-.07,3.63-7.21,6.44-16,6.28S49.16,18.59,49.22,15s7.21-6.43,16-6.27S80.94,11.93,80.87,15.55Z"/><path class="cls-5" d="M109.59,16.93c0,2.36-2.88,4.21-6.34,4.15s-6.23-2-6.18-4.38,2.88-4.21,6.34-4.15S109.63,14.58,109.59,16.93Z"/><path class="cls-21" d="M78.05,57.75c17.7.34,32.75-8.49,37.31-20.76-6.76-4.93-20.56-8.48-36.56-8.78-16.25-.3-30.35,2.82-37.18,7.61C45.82,48.15,60.45,57.42,78.05,57.75Z"/><path class="cls-22" d="M115.36,37c-1.74,5.36-17.26,12.22-36.89,12.48S43.79,40.53,41.62,35.82C39.28,37.21,37.38,46,37.4,47.54c.1,5.91,18.75,12.05,41.45,11.68s40.89-7.12,40.79-13C119.61,44.62,117.74,38.3,115.36,37Z"/><g class="cls-7"><path class="cls-23" d="M115.36,37c-1.74,5.36-17.26,12.22-36.89,12.48S43.79,40.53,41.62,35.82C39.28,37.21,37.38,46,37.4,47.54c.1,5.91,18.75,12.05,41.45,11.68s40.89-7.12,40.79-13C119.61,44.62,117.74,38.3,115.36,37Z"/></g><path class="cls-24" d="M57.07,66.48s14.06-8.07,16.41-2.7-10.41,10.45-13,10.28S57.07,66.48,57.07,66.48Z"/><path class="cls-25" d="M15,51.25S29,43.18,31.37,48.55,21,59,18.35,58.84,15,51.25,15,51.25Z"/><path class="cls-26" d="M41.62,38.2s15,17.64,52.18,11.45c0,0-11.27,10.13-35.74,6.74S41.62,38.2,41.62,38.2Z"/><path class="cls-27" d="M44.78,54,5.56,68.19l1.27,2.93,2.1,1.66L7.15,68.87l7.07-2.55,7.67,1.19,17.15-6a1.7,1.7,0,0,0,1.32.63,1.72,1.72,0,1,0-1.72-1.75L21.77,66.29l-5.23-.81,29.91-10.8Z"/><polygon class="cls-28" points="79.49 59.21 78.22 59.23 69.58 83.78 70.43 91.84 71.63 91.9 70.79 83.93 79.49 59.21"/><polygon class="cls-29" points="132.39 53.8 131.99 54.91 154.24 63.08 154.41 61.75 132.39 53.8"/><path class="cls-30" d="M84.2,77.41a1.68,1.68,0,0,0-1.11.42l-3.34-3.7L83.85,59l-1.25.07L78.43,74.45,82.5,79a1.1,1.1,0,0,0,0,.18,1.72,1.72,0,1,0,1.72-1.72Z"/><path class="cls-31" d="M131,71.48a1.72,1.72,0,0,0-1.65,1.24L99.41,77.83l-.18,0-5.88,5.67,1.84-.12L99.79,79l29.63-5.06a1.74,1.74,0,0,0,1.57,1,1.72,1.72,0,0,0,0-3.44Z"/><polygon class="cls-32" points="132.39 53.8 132.07 54.17 154.32 62.34 154.41 61.75 132.39 53.8"/><path class="cls-33" d="M134.15,59.23l12.65-6a59.23,59.23,0,0,0-5.93-2.54l-12.71,5.45Z"/><path class="cls-34" d="M109.2,60.13C109.9,49,119,29.72,171.76,24.31c0,0-36.87,14.47-37.61,34.92l-17.47,6.48A5.56,5.56,0,0,1,109.2,60.13Z"/><path class="cls-35" d="M109.2,60.13C109.9,49,119,29.72,171.76,24.31c0,0-36.87,14.47-37.61,34.92l-17.47,6.48A5.56,5.56,0,0,1,109.2,60.13Z"/><path class="cls-36" d="M171.76,24.31c-47.63,8.8-55.08,41.4-55.08,41.4l17.47-6.48C134.89,38.78,171.76,24.31,171.76,24.31Z"/><path class="cls-37" d="M124.83,39.38s-13.43,9.07-12.51,17.29S124.83,39.38,124.83,39.38Z"/><path class="cls-38" d="M131,71.48a1.72,1.72,0,0,0-1.65,1.24L99.41,77.83l-.18,0-5.88,5.67,1.53-.72,4.6-4.44,29.94-5.2a1.74,1.74,0,0,0,1.57,1,1.22,1.22,0,0,0,1.33-1.24A1.31,1.31,0,0,0,131,71.48Z"/><polygon class="cls-39" points="78.86 59.22 78.22 59.23 69.58 83.78 70.43 91.84 71 91.91 70.15 83.94 78.86 59.22"/><path class="cls-40" d="M83.87,78.12a1.65,1.65,0,0,0-1.12.42l-3.66-4.41L83.19,59l-.59.07L78.43,74.45,82.5,79a1.1,1.1,0,0,0,0,.18,1.72,1.72,0,0,0,1.72,1.72,1.18,1.18,0,0,0,1.14-1.31A1.37,1.37,0,0,0,83.87,78.12Z"/><path class="cls-41" d="M44.78,54,5.56,68.19l1.27,2.93,1.3,1.33L6.35,68.54l8.18-3,7.35,1.19L39,60.79a1.7,1.7,0,0,0,1.32.63c1,0,1.54-.57,1.49-1.3a1.43,1.43,0,0,0-1.49-1.45,1.71,1.71,0,0,0-1.72,1.69L21.77,66.29l-6-1.14,29.91-10.8Z"/></g></g></g></svg>