<svg xmlns="http://www.w3.org/2000/svg" xmlns:xlink="http://www.w3.org/1999/xlink" viewBox="0 0 120.45 143.74"><defs><style>.cls-1{isolation:isolate;}.cls-2,.cls-3{fill:#480087;}.cls-11,.cls-15,.cls-16,.cls-17,.cls-18,.cls-20,.cls-23,.cls-24,.cls-27,.cls-29,.cls-3,.cls-30,.cls-31,.cls-32,.cls-33,.cls-34,.cls-35,.cls-36,.cls-38,.cls-43,.cls-9{mix-blend-mode:multiply;}.cls-3{opacity:0.53;}.cls-4{fill:url(#linear-gradient);}.cls-5{opacity:0.67;fill:url(#linear-gradient-2);}.cls-21,.cls-22,.cls-28,.cls-41,.cls-45,.cls-46,.cls-47,.cls-6{mix-blend-mode:screen;}.cls-6{opacity:0.64;fill:url(#radial-gradient);}.cls-7{fill:url(#linear-gradient-3);}.cls-8{fill:url(#linear-gradient-4);}.cls-10{fill:url(#linear-gradient-5);}.cls-11{fill:url(#linear-gradient-6);}.cls-12{fill:url(#linear-gradient-7);}.cls-13{fill:url(#linear-gradient-8);}.cls-14{fill:url(#linear-gradient-9);}.cls-15{fill:url(#linear-gradient-10);}.cls-16{opacity:0.51;fill:url(#linear-gradient-11);}.cls-17,.cls-18,.cls-23,.cls-24{opacity:0.3;}.cls-17{fill:url(#linear-gradient-12);}.cls-18{fill:url(#linear-gradient-13);}.cls-19{fill:url(#linear-gradient-14);}.cls-20{fill:url(#linear-gradient-15);}.cls-21{fill:url(#linear-gradient-16);}.cls-22{opacity:0.32;fill:url(#linear-gradient-17);}.cls-23{fill:url(#linear-gradient-18);}.cls-24{fill:url(#linear-gradient-19);}.cls-25{fill:url(#linear-gradient-20);}.cls-26{fill:url(#linear-gradient-21);}.cls-27{fill:url(#linear-gradient-22);}.cls-28{fill:url(#linear-gradient-23);}.cls-29{fill:url(#linear-gradient-24);}.cls-30{fill:url(#linear-gradient-25);}.cls-31{fill:url(#linear-gradient-26);}.cls-32{fill:url(#linear-gradient-27);}.cls-33{fill:url(#linear-gradient-28);}.cls-34{fill:url(#linear-gradient-29);}.cls-35{fill:url(#linear-gradient-30);}.cls-36{fill:url(#linear-gradient-31);}.cls-37{fill:url(#linear-gradient-32);}.cls-38{fill:url(#linear-gradient-33);}.cls-39{fill:url(#linear-gradient-34);}.cls-40{fill:url(#linear-gradient-35);}.cls-41{fill:url(#linear-gradient-36);}.cls-42{fill:#fff;}.cls-43{opacity:0.7;}.cls-44{fill:url(#linear-gradient-37);}.cls-45{fill:url(#radial-gradient-2);}.cls-46{fill:url(#linear-gradient-38);}.cls-47{fill:url(#linear-gradient-39);}</style><linearGradient id="linear-gradient" x1="85.64" y1="193.04" x2="79.03" y2="171.33" gradientTransform="matrix(0.96, 0.29, -0.29, 0.96, 33.92, -85.71)" gradientUnits="userSpaceOnUse"><stop offset="0" stop-color="#ff4b00"/><stop offset="0.22" stop-color="#ff5400"/><stop offset="0.5" stop-color="#f60"/><stop offset="0.67" stop-color="#ff6f00"/><stop offset="0.93" stop-color="#ff8700"/><stop offset="1" stop-color="#ff8e00"/></linearGradient><linearGradient id="linear-gradient-2" x1="81.6" y1="172.04" x2="81.6" y2="189.76" gradientTransform="matrix(0.96, 0.29, -0.29, 0.96, 33.92, -85.71)" gradientUnits="userSpaceOnUse"><stop offset="0" stop-color="#ff8b00"/><stop offset="0.4" stop-color="#ffa300"/><stop offset="1" stop-color="#ffce00"/></linearGradient><radialGradient id="radial-gradient" cx="64.75" cy="167.92" r="17.01" gradientTransform="matrix(-0.1, 0.93, -1.05, -0.09, 241.61, 67.05)" gradientUnits="userSpaceOnUse"><stop offset="0" stop-color="#fff325"/><stop offset="0.13" stop-color="#e3d821"/><stop offset="0.43" stop-color="#9c9417"/><stop offset="0.85" stop-color="#2b2906"/><stop offset="1"/></radialGradient><linearGradient id="linear-gradient-3" x1="40.85" y1="105.61" x2="80.23" y2="105.61" gradientUnits="userSpaceOnUse"><stop offset="0" stop-color="#9dcbc3"/><stop offset="0.2" stop-color="#9ec7c3"/><stop offset="0.39" stop-color="#a0bbc4"/><stop offset="0.58" stop-color="#a5a8c6"/><stop offset="0.77" stop-color="#aa8dc8"/><stop offset="0.95" stop-color="#b26acb"/><stop offset="1" stop-color="#b460cc"/></linearGradient><linearGradient id="linear-gradient-4" x1="40.85" y1="105.61" x2="80.23" y2="105.61" gradientUnits="userSpaceOnUse"><stop offset="0" stop-color="#a81ba4"/><stop offset="0.21" stop-color="#a219a4"/><stop offset="0.47" stop-color="#9313a4"/><stop offset="0.76" stop-color="#790aa4"/><stop offset="1" stop-color="#5e00a4"/></linearGradient><linearGradient id="linear-gradient-5" x1="39.41" y1="103.47" x2="81.67" y2="103.47" gradientUnits="userSpaceOnUse"><stop offset="0" stop-color="#7c00ff"/><stop offset="0.11" stop-color="#7d06fd"/><stop offset="0.25" stop-color="#7f15f9"/><stop offset="0.41" stop-color="#842ff1"/><stop offset="0.58" stop-color="#8a54e6"/><stop offset="0.76" stop-color="#9182d8"/><stop offset="0.95" stop-color="#9abbc8"/><stop offset="1" stop-color="#9dcbc3"/></linearGradient><linearGradient id="linear-gradient-6" x1="39.41" y1="103.47" x2="81.67" y2="103.47" xlink:href="#linear-gradient-4"/><linearGradient id="linear-gradient-7" x1="16.62" y1="60.99" x2="104.45" y2="60.99" gradientUnits="userSpaceOnUse"><stop offset="0" stop-color="#f4daa2"/><stop offset="0.2" stop-color="#f2d6a0"/><stop offset="0.4" stop-color="#edca99"/><stop offset="0.59" stop-color="#e5b78f"/><stop offset="0.79" stop-color="#d99c80"/><stop offset="0.98" stop-color="#ca796d"/><stop offset="1" stop-color="#c8746a"/></linearGradient><linearGradient id="linear-gradient-8" x1="277.94" y1="107" x2="316.56" y2="107" gradientTransform="matrix(-1, 0, 0, 1, 398.4, 0)" xlink:href="#linear-gradient-4"/><linearGradient id="linear-gradient-9" x1="277.94" y1="112.91" x2="316.56" y2="112.91" gradientTransform="matrix(-1, 0, 0, 1, 398.4, 0)" xlink:href="#linear-gradient-4"/><linearGradient id="linear-gradient-10" x1="292.63" y1="112.91" x2="328.68" y2="112.91" gradientTransform="matrix(-1, 0, 0, 1, 398.4, 0)" xlink:href="#linear-gradient-4"/><linearGradient id="linear-gradient-11" x1="280.94" y1="85.02" x2="300.24" y2="104.32" gradientTransform="matrix(-1, 0, 0, 1, 398.4, 0)" xlink:href="#linear-gradient-4"/><linearGradient id="linear-gradient-12" x1="-255.92" y1="27.33" x2="167.9" y2="121.97" gradientUnits="userSpaceOnUse"><stop offset="0" stop-color="#a822a4"/><stop offset="0.34" stop-color="#c155a3"/><stop offset="1" stop-color="#f4c1a2"/></linearGradient><linearGradient id="linear-gradient-13" x1="33.61" y1="43.42" x2="87.28" y2="43.42" xlink:href="#linear-gradient-12"/><linearGradient id="linear-gradient-14" x1="32.29" y1="22.06" x2="88.79" y2="22.06" xlink:href="#linear-gradient-4"/><linearGradient id="linear-gradient-15" x1="59.18" y1="22.1" x2="88.79" y2="22.1" xlink:href="#linear-gradient-4"/><linearGradient id="linear-gradient-16" x1="46.35" y1="16.93" x2="57.94" y2="28.52" gradientUnits="userSpaceOnUse"><stop offset="0" stop-color="#ff81ff"/><stop offset="0.18" stop-color="#b85db8"/><stop offset="0.36" stop-color="#783c78"/><stop offset="0.52" stop-color="#424"/><stop offset="0.67" stop-color="#1f101f"/><stop offset="0.78" stop-color="#080408"/><stop offset="0.86"/></linearGradient><linearGradient id="linear-gradient-17" x1="23.99" y1="54.27" x2="43.69" y2="73.97" gradientUnits="userSpaceOnUse"><stop offset="0" stop-color="#fff0d2"/><stop offset="0.4" stop-color="#938b79"/><stop offset="0.82" stop-color="#2a2823"/><stop offset="1"/></linearGradient><linearGradient id="linear-gradient-18" x1="97.08" y1="53.99" x2="82.36" y2="68.72" xlink:href="#linear-gradient-12"/><linearGradient id="linear-gradient-19" x1="83.85" y1="65.41" x2="53.65" y2="95.61" xlink:href="#linear-gradient-12"/><linearGradient id="linear-gradient-20" x1="0" y1="106.68" x2="38.62" y2="106.68" xlink:href="#linear-gradient-4"/><linearGradient id="linear-gradient-21" x1="0" y1="112.59" x2="38.62" y2="112.59" xlink:href="#linear-gradient-4"/><linearGradient id="linear-gradient-22" x1="14.69" y1="112.59" x2="50.74" y2="112.59" xlink:href="#linear-gradient-4"/><linearGradient id="linear-gradient-23" x1="0.04" y1="86.07" x2="20.19" y2="106.23" xlink:href="#linear-gradient-16"/><linearGradient id="linear-gradient-24" x1="26.17" y1="67.19" x2="96.5" y2="67.19" gradientUnits="userSpaceOnUse"><stop offset="0" stop-color="#a81ba4"/><stop offset="0.13" stop-color="#ab21a4"/><stop offset="0.29" stop-color="#b230a4"/><stop offset="0.47" stop-color="#be4aa3"/><stop offset="0.66" stop-color="#ce6fa3"/><stop offset="0.86" stop-color="#e39da2"/><stop offset="1" stop-color="#f4c1a2"/></linearGradient><linearGradient id="linear-gradient-25" x1="68.82" y1="47.6" x2="89.53" y2="47.6" xlink:href="#linear-gradient-24"/><linearGradient id="linear-gradient-26" x1="59.29" y1="102.29" x2="60.13" y2="102.29" xlink:href="#linear-gradient-24"/><linearGradient id="linear-gradient-27" x1="27.54" y1="49.47" x2="61.45" y2="49.47" xlink:href="#linear-gradient-24"/><linearGradient id="linear-gradient-28" x1="59.71" y1="102.29" x2="60.13" y2="102.29" xlink:href="#linear-gradient-24"/><linearGradient id="linear-gradient-29" x1="27.81" y1="49.26" x2="61.15" y2="49.26" xlink:href="#linear-gradient-24"/><linearGradient id="linear-gradient-30" x1="68.82" y1="47.49" x2="89.31" y2="47.49" xlink:href="#linear-gradient-24"/><linearGradient id="linear-gradient-31" x1="26.48" y1="66.99" x2="96.5" y2="66.99" xlink:href="#linear-gradient-24"/><linearGradient id="linear-gradient-32" x1="37.48" y1="74.93" x2="83.59" y2="74.93" gradientTransform="translate(75.2 -20.28) rotate(47.69)" xlink:href="#linear-gradient-4"/><linearGradient id="linear-gradient-33" x1="41.92" y1="74.93" x2="79.16" y2="74.93" xlink:href="#linear-gradient-4"/><linearGradient id="linear-gradient-34" x1="44.22" y1="74.93" x2="76.85" y2="74.93" gradientUnits="userSpaceOnUse"><stop offset="0" stop-color="#057300"/><stop offset="0.12" stop-color="#138a00"/><stop offset="0.41" stop-color="#33bc00"/><stop offset="0.66" stop-color="#4ae100"/><stop offset="0.87" stop-color="#58f700"/><stop offset="1" stop-color="#5dff00"/></linearGradient><linearGradient id="linear-gradient-35" x1="45.61" y1="74.93" x2="75.46" y2="74.93" gradientUnits="userSpaceOnUse"><stop offset="0" stop-color="#b0ff00"/><stop offset="1" stop-color="#5dff00"/></linearGradient><linearGradient id="linear-gradient-36" x1="60.54" y1="61.29" x2="60.54" y2="88.56" gradientUnits="userSpaceOnUse"><stop offset="0" stop-color="#fff"/><stop offset="0.14" stop-color="#c9c9c9"/><stop offset="0.31" stop-color="#8d8d8d"/><stop offset="0.48" stop-color="#5b5b5b"/><stop offset="0.64" stop-color="#333"/><stop offset="0.78" stop-color="#171717"/><stop offset="0.91" stop-color="#060606"/><stop offset="1"/></linearGradient><linearGradient id="linear-gradient-37" x1="60.54" y1="69.75" x2="60.54" y2="91.24" gradientUnits="userSpaceOnUse"><stop offset="0" stop-color="#3dcd00"/><stop offset="0.08" stop-color="#44cf09"/><stop offset="0.22" stop-color="#56d421"/><stop offset="0.4" stop-color="#74db49"/><stop offset="0.6" stop-color="#9ee680"/><stop offset="0.83" stop-color="#d3f4c5"/><stop offset="1" stop-color="#fff"/></linearGradient><radialGradient id="radial-gradient-2" cx="24.9" cy="74.93" r="24.26" gradientTransform="matrix(0.91, 0, 0, 0.83, 37.86, 12.48)" gradientUnits="userSpaceOnUse"><stop offset="0" stop-color="#3dcc00"/><stop offset="0.1" stop-color="#3ac300"/><stop offset="0.26" stop-color="#33ab00"/><stop offset="0.47" stop-color="#278300"/><stop offset="0.71" stop-color="#164b00"/><stop offset="0.98" stop-color="#020500"/><stop offset="1"/></radialGradient><linearGradient id="linear-gradient-38" x1="44.54" y1="60.29" x2="50.2" y2="65.95" xlink:href="#linear-gradient-16"/><linearGradient id="linear-gradient-39" x1="391.88" y1="68" x2="396.24" y2="72.36" gradientTransform="translate(468.98 158.02) rotate(180)" xlink:href="#linear-gradient-16"/></defs><g class="cls-1"><g id="Capa_2" data-name="Capa 2"><g id="Layer_3" data-name="Layer 3"><polygon class="cls-2" points="51.09 91.63 60.67 136.68 73.97 76.68 51.09 91.63"/><polygon class="cls-3" points="51.09 91.63 60.67 136.68 73.97 76.68 51.09 91.63"/><path class="cls-4" d="M50.76,105.81s-3.5,6.11.82,9.65,3.72,4.72,3.72,4.72,1.7-4.32.39-5.82c0,0,4.52,3.42,1.82,9.54a10.69,10.69,0,0,0,5.8-8.86s.91,3.49-.22,4.87a11.74,11.74,0,0,0,6.56-12.49C68.36,98.3,50.76,105.81,50.76,105.81Z"/><path class="cls-5" d="M58.21,104.18S54.7,107.65,56.9,112s3.31,4.34,2.78,7.11c0,0,6.47-8.52,2-14.61S58.21,104.18,58.21,104.18Z"/><ellipse class="cls-6" cx="59.38" cy="111.66" rx="17.87" ry="15.83" transform="translate(-56.34 162.68) rotate(-85.79)"/><path class="cls-7" d="M80.23,105.61c0,3.34-8.82,6-19.69,6s-19.69-2.71-19.69-6,8.81-6,19.69-6S80.23,102.27,80.23,105.61Z"/><path class="cls-8" d="M80.23,105.61c0,3.34-8.82,6-19.69,6s-19.69-2.71-19.69-6,8.81-6,19.69-6S80.23,102.27,80.23,105.61Z"/><g class="cls-9"><path class="cls-10" d="M81.67,103.47c0,3.34-9.46,6-21.13,6s-21.13-2.71-21.13-6,9.46-6,21.13-6S81.67,100.13,81.67,103.47Z"/><path class="cls-11" d="M81.67,103.47c0,3.34-9.46,6-21.13,6s-21.13-2.71-21.13-6,9.46-6,21.13-6S81.67,100.13,81.67,103.47Z"/></g><path class="cls-12" d="M21.27,59.3,37.84,31.08c12.43-21.2,32.78-21.2,45.22,0L99.8,59.6c11.46,19.54.43,47.34-18.72,47.2l-41.35-.3C20.69,106.36,9.88,78.71,21.27,59.3Z"/><path class="cls-13" d="M96.68,82.08a42.38,42.38,0,0,0,.32-5.4c-.12-21,57,11.54-6.54,67.06C90.46,143.74,120.28,109.28,96.68,82.08Z"/><path class="cls-14" d="M81.83,106.77a34.85,34.85,0,0,0,14.84-24.7c23.61,27.21-6.21,61.67-6.21,61.67S100.17,113.52,81.83,106.77Z"/><path class="cls-15" d="M81.83,106.77a34.85,34.85,0,0,0,14.84-24.7c23.61,27.21-6.21,61.67-6.21,61.67S100.17,113.52,81.83,106.77Z"/><path class="cls-16" d="M112.32,115.58s12.55-23.4-.18-35.87C92.05,60,118.5,83.77,112.32,115.58Z"/><path class="cls-17" d="M23.45,76.36s17.23,31.72,45.24,22.15,13.14,8.26,13.14,8.26l-43.21-.32-10.26-2.67L20.94,77.57Z"/><path class="cls-18" d="M33.61,38.28s26.92,23.16,53.67,0Z"/><path class="cls-19" d="M32.29,37.65s28.33,14.57,56.5,0L60.54,0Z"/><path class="cls-20" d="M59.18,44.08s8.95-2.93,5.92-21.27S60.54,0,60.54,0L88.79,37.65A55.44,55.44,0,0,1,59.18,44.08Z"/><path class="cls-21" d="M59.18,4.1S33,37.12,43.32,38.68,59.18,4.1,59.18,4.1Z"/><path class="cls-22" d="M31,83.75s-10.21-14.87-8.13-20,10.82-25.49,14.66-18.2S19.3,59.34,31,83.75Z"/><path class="cls-23" d="M94.61,78.77s-.67-14.92,8.54-11.23c0,0-1.14-4.17-6.83-13.87s-20.86-.36-20.86-.36S85.77,57.19,88.15,72Z"/><path class="cls-24" d="M60.54,98s16.93,1.58,23.05-15.34c6.18-17.09-10.36-27-10.36-27Z"/><path class="cls-25" d="M23.78,81.76a40.58,40.58,0,0,1-.33-5.4c.12-21-57,11.54,6.54,67.06C30,143.42.17,109,23.78,81.76Z"/><path class="cls-26" d="M38.62,106.45A34.88,34.88,0,0,1,23.78,81.76C.17,109,30,143.42,30,143.42S20.28,113.2,38.62,106.45Z"/><path class="cls-27" d="M38.62,106.45A34.88,34.88,0,0,1,23.78,81.76C.17,109,30,143.42,30,143.42S20.28,113.2,38.62,106.45Z"/><path class="cls-28" d="M8.14,115.26s-12.69-19.49-2.4-34S10.53,83.67,8.14,115.26Z"/><polygon class="cls-29" points="96.34 84.17 87.52 82.46 84.44 78.59 37.84 78.59 34.7 77.13 33.2 56.92 26.17 50.96 26.6 50.22 34.02 56.5 35.5 76.57 38.03 77.75 84.85 77.75 87.98 81.69 96.5 83.34 96.34 84.17"/><polygon class="cls-30" points="69.89 53.85 68.82 53.4 72.94 51.54 76.57 45.75 89.09 41.36 89.53 42.1 77.13 46.45 73.52 52.2 69.89 53.85"/><rect class="cls-31" x="59.29" y="97.96" width="0.84" height="8.65"/><polygon class="cls-32" points="35.24 54.78 27.54 48.62 27.98 47.88 35.44 53.85 60.6 47.35 60.6 44.16 61.45 44.19 61.45 48 35.24 54.78"/><rect class="cls-33" x="59.71" y="97.96" width="0.42" height="8.65"/><polygon class="cls-34" points="35.51 54.36 27.81 48.2 27.98 47.88 35.44 53.85 60.6 47.35 60.6 44.16 61.05 44.17 61.15 47.6 35.51 54.36"/><polygon class="cls-35" points="69.46 53.62 68.82 53.4 72.94 51.54 76.57 45.75 89.09 41.36 89.31 41.73 76.7 46.22 73.09 51.97 69.46 53.62"/><polygon class="cls-36" points="96.5 83.75 87.68 82.05 84.6 78.18 38.01 78.18 34.86 76.71 33.51 56.83 26.48 50.87 26.6 50.22 34.02 56.5 35.5 76.57 38.03 77.75 84.85 77.75 87.98 81.69 96.5 83.34 96.5 83.75"/><circle class="cls-37" cx="60.54" cy="74.93" r="23.05" transform="translate(-35.62 69.26) rotate(-47.69)"/><circle class="cls-38" cx="60.54" cy="74.93" r="18.62"/><circle class="cls-39" cx="60.54" cy="74.93" r="16.31"/><circle class="cls-40" cx="60.54" cy="74.93" r="14.93"/><circle class="cls-41" cx="60.54" cy="74.93" r="13.63"/><path class="cls-42" d="M61.41,64.74c.74,1.53-1.23,4-4.4,5.56s-6.34,1.56-7.08,0,1.23-4,4.39-5.55S60.66,63.22,61.41,64.74Z"/><g class="cls-43"><path class="cls-44" d="M60.54,80.88A16.31,16.31,0,0,1,45.08,69.75a16.12,16.12,0,0,0-.86,5.18A16.32,16.32,0,1,0,76,69.75,16.33,16.33,0,0,1,60.54,80.88Z"/></g><path class="cls-42" d="M72.47,83.18c.49.59-.51,2.22-2.23,3.65s-3.51,2.11-4,1.52.52-2.22,2.24-3.65S72,82.59,72.47,83.18Z"/><ellipse class="cls-45" cx="60.54" cy="74.93" rx="22.1" ry="20.22" transform="translate(-2.6 2.17) rotate(-2.01)"/><path class="cls-46" d="M38.62,76.68s-.3-21.35,21-23.64A31.85,31.85,0,0,0,38.62,76.68Z"/><path class="cls-47" d="M81.67,77.38s.23,16.47-16.18,18.23A24.57,24.57,0,0,0,81.67,77.38Z"/></g></g></g></svg>