<svg xmlns="http://www.w3.org/2000/svg" viewBox="0 0 98.42 98.42"><defs><style>.cls-1{isolation:isolate;}.cls-2{fill:#069edf;}.cls-3{fill:#14b6ef;}.cls-4{fill:#a6f94e;}.cls-5{fill:#fee55d;}.cls-6{fill:#fde55c;}.cls-7{fill:#fff;}.cls-8{fill:#9fa1a4;mix-blend-mode:multiply;opacity:0.49;}</style></defs><g class="cls-1"><g id="Capa_2" data-name="Capa 2"><g id="Objects"><path class="cls-2" d="M98.42,49.21A49.15,49.15,0,0,1,50.88,98.39c-.56,0-1.11,0-1.67,0-1.35,0-2.68-.06-4-.16A49.21,49.21,0,0,1,11.73,17.33,49.24,49.24,0,0,1,68.32,3.85a48.69,48.69,0,0,1,12.46,7.62c.76.62,1.5,1.29,2.22,2,.48.44.94.9,1.39,1.37A48.74,48.74,0,0,1,89,20.19c.28.37.56.76.81,1.15h0l.33.48c.52.77,1,1.57,1.49,2.38.12.19.23.39.34.58a46.23,46.23,0,0,1,2.51,5,46.94,46.94,0,0,1,1.74,4.69A49,49,0,0,1,98.42,49.21Z"/><path class="cls-3" d="M72.36,32a30.26,30.26,0,0,1-.75,6.71A29.92,29.92,0,0,1,43.48,61.92l-1,0c-.81,0-1.63,0-2.43-.1A29.89,29.89,0,0,1,19.69,12.68,29.91,29.91,0,0,1,54.07,4.49a29.84,29.84,0,0,1,7.57,4.62q.7.59,1.35,1.2c.29.27.57.55.85.83a30.88,30.88,0,0,1,2.77,3.27c.17.23.34.47.49.7h0l.19.29c.32.47.62,1,.91,1.45.08.12.14.23.21.35A29.11,29.11,0,0,1,70,20.26a27.69,27.69,0,0,1,1,2.85A29.62,29.62,0,0,1,72.36,32Z"/><path class="cls-4" d="M91.93,24.78a9.11,9.11,0,0,1-2.45.71c-.2.06-.54-.17-.54.28s-.07.63.36.73a3.31,3.31,0,0,1,.53.18c.91.38,1,1.18.73,2.12-.18.69-.81.93-1.7.69a8.74,8.74,0,0,0-2.27-.3c-.61,0-.88.26-.85.86a8.15,8.15,0,0,1-.3,2.35,3.9,3.9,0,0,0,0,1.83c.1.44.72,0,1,.29a2.06,2.06,0,0,0,.51.34l0,0a1.25,1.25,0,0,0,1.26.09,2.61,2.61,0,0,1,1.28-.24,1.79,1.79,0,0,0,1.56-.8,2.11,2.11,0,0,0,.36-.82,2.82,2.82,0,0,1,.88-1.36c.54-.52,1.53-.61,1.54-1.67,0-.15.27-.3.56-.27A48.11,48.11,0,0,0,91.93,24.78Zm6.35,20.9a49.12,49.12,0,0,0-2.1-11.18,2.9,2.9,0,0,1-1.46,0,5.44,5.44,0,0,0-4.12.84,1.76,1.76,0,0,1-2.13.07.91.91,0,0,0-1.48.34,2.51,2.51,0,0,1-1.26,1.13,2,2,0,0,0-1.12,1.73,2.28,2.28,0,0,1-1.36,1.94A6.3,6.3,0,0,0,81,43.09a10,10,0,0,1-.89,1.46,2.69,2.69,0,0,0-.39,3.1,1,1,0,0,1,.07.15,2.51,2.51,0,0,1-.42,2.48c-.39.56-.27,3,.2,3.37a.5.5,0,0,0,.14.08A3.75,3.75,0,0,1,81.57,56a5.88,5.88,0,0,0,1.48,2c1.13,1,2.37,1.69,4,1a1.94,1.94,0,0,1,1.45-.2,3.31,3.31,0,0,0,2.38-.21c.64-.2,1.26-.48,1.9-.69a1.5,1.5,0,0,1,1.87.73c.26.82.75.72,1.36.59s.76.13.68.63c0,.28,0,.56.37.44l.13,0a49.52,49.52,0,0,0,1.24-11C98.41,48,98.37,46.84,98.28,45.68Z"/><path class="cls-5" d="M87,34.88l0,0,.48-.1c1.25-.25,2.46-.51,3.65-.83a1.79,1.79,0,0,1-1.56.8,2.61,2.61,0,0,0-1.28.24A1.25,1.25,0,0,1,87,34.88Z"/><path class="cls-5" d="M98.28,45.68A4.27,4.27,0,0,0,95.42,45c-2.32.33-3.5,2.84-4.85,4.75A3.2,3.2,0,0,1,89.16,51a3.15,3.15,0,0,1-2.91-.84,7.85,7.85,0,0,0-2.6-1.75c-1.09-.31-2.29,0-3.35-.34a2.87,2.87,0,0,1-.53-.25,1,1,0,0,0-.07-.15,2.69,2.69,0,0,1,.39-3.1A10,10,0,0,0,81,43.09a6.3,6.3,0,0,1,2.27-2.51,2.28,2.28,0,0,0,1.36-1.94,2,2,0,0,1,1.12-1.73A2.51,2.51,0,0,0,87,35.78a.91.91,0,0,1,1.48-.34,1.76,1.76,0,0,0,2.13-.07,5.44,5.44,0,0,1,4.12-.84,2.9,2.9,0,0,0,1.46,0A49.12,49.12,0,0,1,98.28,45.68Z"/><path class="cls-4" d="M48.43,53.72l0,0h0ZM49.25,9V9h0V9ZM65.65,66.2A3.77,3.77,0,0,1,63.83,65c-.1-.09-.14-.31-.22-.31a13.6,13.6,0,0,0-3.71-.31A1.68,1.68,0,0,0,58.18,63c-.48,0-1.09.34-1.3-.5-.07-.29-.43-.14-.67-.18s-.47,0-.36-.17c.42-.71-.17-1.17-.33-1.74C55,58.53,54.19,57.91,52.31,58a2.43,2.43,0,0,1-1.9-.8,8.29,8.29,0,0,0-1.74-1.76c-.52-.3,0-.76,0-1.14.25,0,.49,0,.38-.36s-.42-.11-.64-.14c.19.84-1,.18-1,.84,0,.1-.2.2-.35.1-.41-.24-.86-.07-1.3-.11a3.54,3.54,0,0,1-2.39-.86,1.33,1.33,0,0,0-1.6-.19c-.09,0-.14.26-.29,0-.44-.67-.86-.7-1.45-.14-.18.17-.38.46-.57.46-.88,0-1.19.56-1.53,1.2-.18.32-.37.92-1,.5a2.32,2.32,0,0,0-2.18-.18,1.59,1.59,0,0,1-1.89-1.62,13.36,13.36,0,0,1,.33-2.27c.21-.84-.1-1.25-1-1.29a2.75,2.75,0,0,0-1.47.12.59.59,0,0,1-.77-.12c-.13-.2.07-.37.15-.55.37-.87.73-1.75,1.11-2.61.17-.38.3-.77-.13-1A2.17,2.17,0,0,0,28.7,47a2.52,2.52,0,0,1-2,1.39,1.62,1.62,0,0,1-1.78-1,3.31,3.31,0,0,1-.39-2.79,14.54,14.54,0,0,0,.7-2.24,1.46,1.46,0,0,1,1-1.18,5.62,5.62,0,0,0,1.27-.7,1.61,1.61,0,0,1,1.95-.23c.59.31,1.48.72,2-.35a.91.91,0,0,1,1.17-.29,3.1,3.1,0,0,0,1.39.42c.77-.07,1.12.38,1.06,1.13a4.59,4.59,0,0,0,.35,1.83.75.75,0,0,0,.71.57c.42,0,.5-.24.63-.5a2.36,2.36,0,0,0,.1-1.53c-.21-1.08-.53-2.22.54-3.07a11.27,11.27,0,0,1,2.15-1.45c1.38-.64,2.21-1.5,1.86-3.2.45.21.62.21.81-.28.25-.65,1.17-.73,1.56-1.23a3,3,0,0,1,1.77-1c.6-.16,1.21-.36,1.3-1.14,0-.22.19-.3.38-.38C48.14,29.3,49,28.9,50,28.4c-.32.45-.39.75-.15,1a.71.71,0,0,0,.86.07,11.7,11.7,0,0,1,2.54-1c.33-.09.76-.29.65-.72s-.58-.11-.87-.19a.43.43,0,0,0-.16,0A1,1,0,0,1,51.78,27c-.29-.43.19-.53.35-.76s.43-.57.3-.9-.52-.13-.8-.18a2.45,2.45,0,0,0-.47,0c.05-.22.15-.31.3-.34a4.59,4.59,0,0,1,2.13-.2c1.07.28,2.12-.31,3.42-.46a22.4,22.4,0,0,1-1.64,1.62.56.56,0,0,0-.23.46c0,.17.06.25.24.26a8.35,8.35,0,0,0,3.19,0c.32-.09.78.07.77-.51a.93.93,0,0,0-.72-1c-.5-.12-.74-.27-.46-.82.17-.33-.19-.42-.48-.49a6.36,6.36,0,0,0,.71-.42A1.29,1.29,0,0,0,59,22c-.15-.55-.64-.53-1.09-.51s-.44-.13-.59-.42a7.87,7.87,0,0,1-.65-3c-.08-.78-.5-1-1.13-.54a7.65,7.65,0,0,1-1.13.8c-.21.11-.39.24-.59.07s-.35-.27-.21-.62a1.16,1.16,0,0,0-.1-1c-.56-.87-3.16-1.23-3.82-.76a1,1,0,0,0-.42.49c-.32,1-1.73,1.53-1.43,2.94.05.26-.43.91-1,1.1a10.43,10.43,0,0,0-.94.48,1.3,1.3,0,0,0-.86,1c-.11.45-.19,1-.65,1.27-.18.1-.39.43-.64.18s-.48-.5-.32-.86.22-.56.33-.82c.25-.58.25-.89-.49-1a3.35,3.35,0,0,1-1.4-.58,2.17,2.17,0,0,0-1.25-.53c-.87,0-1.23-.67-1.39-1.29s.55-.78.91-1.14c.94-.91,2.48-.84,3.24-2a.45.45,0,0,1,.31-.1A11.88,11.88,0,0,0,46,14.64c0,1,.7.63,1.14.53a1.24,1.24,0,0,1,.93.06c.35.19.79.4,1-.12s.15-1-.48-1.14a3.18,3.18,0,0,0-1.36-.25c.55-.32.55-.32,1.83-.33A2.41,2.41,0,0,0,51.24,12c.13-.41.19-.92-.55-.92s-1.56-.09-2.08.72a1,1,0,0,1-.81.44c.21-.61.2-1-.58-1-.33,0-.53-.13-.4-.5.31-.83,0-1.17-.91-1l.39-.77c0,.72.48.75.84.58.69-.32,1.43-.24,2.11-.49.12-.65-.15-.89-.82-.85a6.26,6.26,0,0,0-1.67.33c-.1,0-.27.24-.32.07-.23-.77-.71-.25-1.11-.27-.7,0-1.11.73-1.83.57-.15,0-.42-.13-.46.19s.13.34.28.47a2.25,2.25,0,0,0,1.67.57c-.19.13-.5.21-.5.29,0,.72-.51.49-.91.49-1,0-1.23.17-1.2,1.17-1-.07-2,.32-3.05-.33a3.7,3.7,0,0,0,2.29-.49c.55-.35.6-.63,0-1-.29-.16-.34-.25-.14-.53s.38-.79.09-1a1,1,0,0,0-1.23.14c-.13.13-.21.41-.42,0s-.54-.3-.86-.08a1,1,0,0,1-1.33-.17,3.69,3.69,0,0,0-2.33-.81c-1.5-.19-2.58.84-3.81,1.42-.25.13-.22.41-.16.61a.62.62,0,0,0,.53.47,1.69,1.69,0,0,0,1-.17,1.78,1.78,0,0,1,1.71-.24c-.14.23-.63-.13-.59.34s.43.2.66.24a5.52,5.52,0,0,0,.91,0,4.94,4.94,0,0,1-1.42.18c-.17,0-.42-.14-.48.16s.09.38.31.51a4.27,4.27,0,0,0,1.77.59,1.55,1.55,0,0,1-.67.07c-.4-.06-1.18.87-1.12-.43,0,0-.09-.07-.14-.07-.69.09-1.23-.37-1.86-.53-.86-.22-1.8.12-2.54-.21-1.08-.47-2-.06-3,0s-2.05.74-3.12.52c-1.51-.32-3-.59-4.54-.88a48.21,48.21,0,0,0-7.13,6.86l.13,0c1.23.29,2.12,1.13,3.27,1.5a.47.47,0,0,1,.32.45c0,.05-.11.11-.17.12-.29.06-.27-.14-.34-.33s-.37-.19-.56-.13-.25.45-.25.73.34.28.49.22c.34-.11.74-.05.8.19s.34.69-.07,1h0a5.68,5.68,0,0,0-.25,2.62c0,.18,0,.28-.18.27-.33,0-.62,0-.63.48a1.3,1.3,0,0,0,.49,1.06c.44.38,1,.27,1.52.37-.15.21-.22.21-.38.16a1,1,0,0,0-1.46.73c-.53,1.54-1.87,2.54-2.61,4a4.52,4.52,0,0,0-.64,2.89,21.15,21.15,0,0,1,.39,2.08,1.15,1.15,0,0,0,.73,1.16,1.29,1.29,0,0,1,.8,1.48,2.54,2.54,0,0,0,.34,1.82,1.12,1.12,0,0,1,.18,1,.93.93,0,0,0,.47,1.17,1,1,0,0,1,.52,1.05c-.07.68.51,1,.89,1.49a.62.62,0,0,0,.71,0c.17-.15.09-.41,0-.62a4.34,4.34,0,0,1-.65-1.81,6,6,0,0,0-.82-2.35,4.23,4.23,0,0,1-.28-.85.4.4,0,0,1,.23-.49c.24-.12.32.14.46.25s.12.29.15.45a11,11,0,0,0,2.2,4.59c.6.81,1.33,1.61.84,2.79A1,1,0,0,0,18.71,48a14.49,14.49,0,0,0,4,2.19c.71.35,1.41.79,2.23.34a1.06,1.06,0,0,1,1.49.43,3.7,3.7,0,0,0,3.21,1.58.47.47,0,0,1,.51.43,5.28,5.28,0,0,0,1,1.88,5.41,5.41,0,0,0,3.45,2.06c.35.07.65,0,.61-.49,0-.33.38-.44.6-.44a.43.43,0,0,1,.39.57c-.08.39.19.67.32,1a2.53,2.53,0,0,1-.29,2.63A11.51,11.51,0,0,0,34.28,63c-.18.48-.35,1,.06,1.37s.28.3.08.59a1.87,1.87,0,0,0,.4,2.81,3.81,3.81,0,0,1,.67.92c.41.7.59,1.51,1,2.24a3.76,3.76,0,0,0,.53.81c.24.27.59.48.7.9A4,4,0,0,0,40,75.12c1.62.83,2.89,2,2.92,4.1,0,.7-.44,1.39-.19,2,.36.95,0,1.88.14,2.81,0,.21.08.44.09.64.08,1.32.5,2.58.58,3.89s-.34,2.55.1,3.9a4.43,4.43,0,0,0,1,2.13c.59.55.48,1.45.88,2.12.12.23-.11.41-.37.54-.42.21-.47.67-.11.88l.14.09c.54,0,1.09.08,1.65.1.77,0,1.56.06,2.35.06l1.66,0a6.55,6.55,0,0,0-.62-.69c-.26-.27-.33-.58-.07-.72.66-.37.28-1.07.63-1.55.58-.79-.55-.82-.7-1.31a.34.34,0,0,1,0-.16c1.17.26,1.63-.08,1.44-1.15-.1-.54.08-.6.5-.58a2.5,2.5,0,0,0,.67,0c1-.18,1.9-.89,1.42-2.13-.13-.35-.58-.58-.42-1a1.74,1.74,0,0,0,2.49-.88c.43-.65.88-1.3,1.29-2,.27-.44.09-1,.43-1.46a2.37,2.37,0,0,0,.41-2.3.43.43,0,0,1,.11-.52,5.09,5.09,0,0,1,3.18-1.61,1.38,1.38,0,0,0,1.38-1,10.3,10.3,0,0,0,1-6.08.67.67,0,0,1,.19-.6c.78-.72,1.07-1.8,1.81-2.51a3.39,3.39,0,0,0,.83-1.89A1.65,1.65,0,0,0,65.65,66.2Zm-26-38.29c.31-.16,1-.47,1.35.16.11.19.1.39,0,.38-.62-.06-1,.35-1.31.74,0,0-.14.06-.28.13s-.18-.12-.17-.17C39.36,28.72,39.38,28.06,39.67,27.91ZM43.18,12.1c-.21.34-.43.36-.72.11C42.69,12,42.92,12,43.18,12.1ZM35.77,30.7a5.73,5.73,0,0,1,1.13-2.07A2.58,2.58,0,0,1,35.77,30.7Zm1.48-2.28a1.25,1.25,0,0,0-.09-.12.5.5,0,0,1,.19-.1s.07.06.11.09Zm-1.57-1.69a4.48,4.48,0,0,1,2.46-.88c.58-.1.82.47.84.91s-.47.17-.72.24a1.42,1.42,0,0,1-.93-.24,2,2,0,0,0-1.5.09c-.11.24-.4.2-.44.1S35.62,26.87,35.68,26.73Z"/><path class="cls-6" d="M46.86,98.36c-.56,0-1.11-.06-1.65-.1l-.14-.09c-.36-.21-.31-.67.11-.88.26-.13.49-.31.37-.54-.4-.67-.29-1.57-.88-2.12a4.43,4.43,0,0,1-1-2.13c-.44-1.35,0-2.61-.1-3.9S43,86,43,84.71c0-.2-.07-.43-.09-.64-.11-.93.22-1.86-.14-2.81-.25-.65.21-1.34.19-2,0-2.06-1.3-3.27-2.92-4.1a4,4,0,0,1-2.32-2.46c-.11-.42-.46-.63-.7-.9a3.76,3.76,0,0,1-.53-.81,3.9,3.9,0,0,0,.42.2,10.7,10.7,0,0,0,3.45.41c2.49.22,4.56,3.41,4.54,6,0,1.24-.55,2.43-.49,3.67,0,.86.36,1.69.47,2.55.28,2.25-1.23,5.22,0,7.32.26.43.66.78.9,1.23a5.2,5.2,0,0,1,.42,2.26A26,26,0,0,0,46.86,98.36Z"/><path class="cls-7" d="M80.78,11.47c-.59.32-1.45,0-2,.38a2.92,2.92,0,0,1-1.86.16,2,2,0,0,0-1.49.62A3.93,3.93,0,0,1,73,13.69a4.23,4.23,0,0,0-3.46,2.38c-.46.74-1,1.51-2,1.34-1.57-.24-3-1.1-2.48-3.08a.74.74,0,0,0,0-.39,1.57,1.57,0,0,1,.9-2.06,3.43,3.43,0,0,0,.92-.68.76.76,0,0,0-.13-1.27c-.23-.16-.43-.24-.48-.58a2.67,2.67,0,0,0-2-2.3c-.41-.13-.69.13-1,.12A10.13,10.13,0,0,1,61.63,7c-.55-.1-.59-.35-.61-.78s.17-.51.57-.66a7.63,7.63,0,0,1,1.63-.16A27.65,27.65,0,0,0,66.63,4.2a9.07,9.07,0,0,1,1.69-.35A48.69,48.69,0,0,1,80.78,11.47Z"/><path class="cls-7" d="M49.26,9c.62-.38,1.3-.86,2-.65a8.35,8.35,0,0,0,2.22.14.91.91,0,0,1,.59.22,1.3,1.3,0,0,0,1.59.46c.17-.06.49-.14.61.09a2.29,2.29,0,0,0,1.86,1.15c.33.06.41.31.36.62a1,1,0,0,0,.72,1.15.86.86,0,0,1,.54,1.31,1,1,0,0,1-1.42.46c-.32-.13-.62-.29-1-.46-.13.49.21.85.12,1.27s-.06.85-.68.79c-.09,0-.28.05-.28.08,0,1-.79.54-1.22.57a2,2,0,0,1-1.69-.91c-.49-.73-1-1.12-1.82-.61a1.32,1.32,0,0,1-.66,0,.42.42,0,0,1-.39-.46.37.37,0,0,1,.28-.42,1.25,1.25,0,0,1,.46-.12c.87,0,1.74.19,2.45-.65.46-.55,1.19,0,2-.05a2.23,2.23,0,0,1-1.32-1.22,1.34,1.34,0,0,0-1.83-.8.82.82,0,0,1-.41,0,12.49,12.49,0,0,0-3-.18.71.71,0,0,1-.77-.5.86.86,0,0,1,.34-1A.64.64,0,0,0,49.28,9Z"/><path class="cls-7" d="M58.91,4.81c-.82,0-1.58-.38-2.39-.33-.15,0-.34,0-.36-.21s.17-.28.37-.3c2.23-.16,4.43-.55,6.68-.52a25.5,25.5,0,0,0,2.86-.31c.16,0,.42-.12.49.15s-.11.41-.37.54a13.82,13.82,0,0,1-4.94,1.5,1.49,1.49,0,0,0-.77.19c-1.09.86-2.52.93-3.67,1.67A6.66,6.66,0,0,0,55.44,8a1.48,1.48,0,0,1-1.23.35L50.1,8c-.13,0-.31,0-.32-.17s-.08-.53.17-.77a1.3,1.3,0,0,1,1.52-.36c1.26.76,2.6.31,4,.49-.36-.29-.36-.25-.71-.24A3.22,3.22,0,0,1,53,6.85c-.22-.11-.4-.21-.38-.47s.35-.15.52-.22c.41-.17.79.41,1.18,0,.12-.11.87.17.32-.44,0,0,0-.22.05-.22,1-.06,1.62-1.55,2.9-.77C57.92,5,58.47,4.81,58.91,4.81Z"/><path class="cls-4" d="M89,20.19c.28.37.56.76.81,1.15a1,1,0,0,1-.28-.08A1.06,1.06,0,0,1,89,20.19Z"/><path class="cls-4" d="M91.59,24.2c-.65.08-1.3.24-1.94.36-.37.06-.87.28-1-.09-.21-.57.51-.41.76-.65.06-.05.2,0,.38-.05-.31-.21-.86,0-.81-.46a1.38,1.38,0,0,1,.62-1.15c.22-.11.45-.14.51-.34C90.62,22.59,91.12,23.39,91.59,24.2Z"/><path class="cls-4" d="M35.07,44.83a4.76,4.76,0,0,1,3.41,1,2.86,2.86,0,0,0,1.1.51c.26.06.65.18.61.65s-.54.44-.72.44a5.59,5.59,0,0,1-2.28-.2c-.28-.1-.59-.66-1-1a2.11,2.11,0,0,0-2.34-.44c-.33.14-.72.36-.91-.06s.29-.61.62-.8C34.12,44.69,34.68,44.9,35.07,44.83Z"/><path class="cls-4" d="M84.39,14.81c-1,.52-2,1-3.24.13-.24-.17-.84.28-.78-.41,0-.52.41-.64.88-.87A3.61,3.61,0,0,1,83,13.44C83.48,13.88,83.94,14.34,84.39,14.81Z"/><path class="cls-4" d="M88.94,21.3a6,6,0,0,1-.69,1.83c-.23.41-1.07.51-1.66.67-.4.11-.7-.05-.69-.57a5.37,5.37,0,0,1,.25-1.6,1.73,1.73,0,0,1,1.35-.84c.33,0,.67,0,1,0S89,20.91,88.94,21.3Z"/><path class="cls-4" d="M41.62,47.35a2.7,2.7,0,0,1,2,.47c.34.29.42.49-.06.71a7.55,7.55,0,0,1-3.91.3c-.17,0-.53-.07-.49-.43s.34-.19.53-.21c.41,0,.81.15.87-.6C40.62,47.06,41.33,47.51,41.62,47.35Z"/><path class="cls-7" d="M53.19,5.63c-.4.15-.74-.13-1.12-.15-.17,0-.42.12-.45-.2a.55.55,0,0,1,.28-.63,4.24,4.24,0,0,1,2.36-.49c.22,0,.55.06.56.46s0,.51-.35.63S53.72,5.83,53.19,5.63Z"/><path class="cls-4" d="M38.29,41.82c.17.07.58-.2.69.17s.2.82-.44.93a.66.66,0,0,0-.39.69c0,.17.19.52-.26.55a.67.67,0,0,1-.7-.47c-.07-.23-.16-.59.13-.76s.13-.21,0-.43C37.1,41.7,37.68,41.76,38.29,41.82Z"/><path class="cls-4" d="M48.44,53.72c-.56.1-.72-.26-.43-.59s.45-1.06.85-1.52,0-.81-.44-1.08c-.18-.11-.51-.07-.5-.43,0-.19.11-.26.26-.22.31.08.69-.25,1,.22s.06.86.44,1.22c.2.19-.32.37-.34.42-.17.72-.85,1.22-.82,2Z"/><path class="cls-4" d="M45,48.19c.59-.31.52.67,1,.61,0,.1,0,.24,0,.3a.28.28,0,0,1-.28.08A1.79,1.79,0,0,0,45,49c-.29,0-.79.25-.74-.42C44.24,48.18,44.22,48.18,45,48.19Z"/><path class="cls-4" d="M37.62,49A3.3,3.3,0,0,1,37,49c-.31-.07-.35-.32-.34-.59s.26-.22.43-.24h.42c.37,0,.83,0,.83.52S37.8,48.87,37.62,49Z"/><path class="cls-4" d="M15.35,21.07c-.3.19-.62.4-.94.06a.7.7,0,0,1-.06-.77c.12-.33.47-.31.71-.23.5.17.12.66.27,1Z"/><path class="cls-4" d="M92.66,33.22c-.34,0-.42-.27-.35-.29.5-.13.42-.91,1-.89.26,0,.5,0,.47.38,0,.24,0,.5-.36.48S92.73,32.77,92.66,33.22Z"/><path class="cls-4" d="M47.77,48.85c.28,0,.43,0,.48.17.16.57-.56.55-.68,1,0,.15-.45-.17-.61-.39s-.06-.38,0-.37A.66.66,0,0,0,47.77,48.85Z"/><path class="cls-4" d="M40,46.17c-.16-.06-.53.16-.49-.29s.31-.38.6-.39.41,0,.41.34S40.28,46.17,40,46.17Z"/><path class="cls-4" d="M46.74,48.41s0-.26.28-.22a.39.39,0,0,1,.39.43c0,.17.08.41-.23.41S46.74,48.84,46.74,48.41Z"/><path class="cls-4" d="M48.71,49.53c-.27,0-.29-.13-.29-.35s.1-.32.34-.33.34.16.34.41S48.92,49.54,48.71,49.53Z"/><path class="cls-4" d="M96.33,62c0,.27-.12.29-.34.3s-.33-.18-.33-.41.2-.25.39-.27S96.34,61.8,96.33,62Z"/><path class="cls-4" d="M50.25,52.89c-.26,0-.31-.11-.32-.33s.16-.34.41-.34.26.19.27.38S50.46,52.91,50.25,52.89Z"/><path class="cls-8" d="M96.18,34.5a46.94,46.94,0,0,0-1.74-4.69c-.11-.27-.24-.52-.36-.78A49.16,49.16,0,0,1,46.8,83.25c-.55,0-1.1,0-1.66,0-1.35,0-2.69-.06-4-.16A49.23,49.23,0,0,1,.27,54.29a49.21,49.21,0,0,0,44.94,44c1.32.1,2.65.16,4,.16.56,0,1.11,0,1.67,0A49.24,49.24,0,0,0,96.18,34.5Z"/></g></g></g></svg>