<svg xmlns="http://www.w3.org/2000/svg" viewBox="0 0 42.34 41.76"><defs><style>.cls-1{isolation:isolate;}.cls-2{mix-blend-mode:hard-light;}.cls-3{fill:#02dbf3;}.cls-4{fill:#f5e400;}.cls-5{fill:#009cb1;}.cls-6{fill:#74a32d;}.cls-7{fill:#f3e97c;}.cls-8{fill:#69c6ea;}.cls-9{fill:#8bbc22;}</style></defs><g class="cls-1"><g id="Capa_2" data-name="Capa 2"><g id="Layer_1" data-name="Layer 1"><g class="cls-2"><path class="cls-3" d="M33.87,33.5a.28.28,0,0,1-.29.29h0a.29.29,0,0,1-.29-.29h0a.29.29,0,0,1,.29-.29h0a.28.28,0,0,1,.29.29Z"/><path class="cls-3" d="M33.92,31.75a.18.18,0,0,1-.17.17h0a.18.18,0,0,1-.18-.17h0a.18.18,0,0,1,.18-.18h0a.18.18,0,0,1,.17.18Z"/><path class="cls-3" d="M36.12,35.94a.18.18,0,0,1-.17.17h0a.18.18,0,0,1-.18-.17h0a.18.18,0,0,1,.18-.18h0a.18.18,0,0,1,.17.18Z"/><path class="cls-3" d="M37.57,34a.29.29,0,0,1-.3.3h0A.3.3,0,0,1,37,34h0a.3.3,0,0,1,.31-.3h0a.29.29,0,0,1,.3.3Z"/><path class="cls-3" d="M35.45,32.19a.14.14,0,0,1-.14.14h0a.14.14,0,0,1-.14-.14h0a.14.14,0,0,1,.14-.14h0a.14.14,0,0,1,.14.14Z"/><path class="cls-3" d="M23,35.34a.29.29,0,0,1-.29.29h0a.3.3,0,0,1-.3-.29h0a.31.31,0,0,1,.3-.3h0a.3.3,0,0,1,.29.3Z"/><path class="cls-3" d="M23.06,33.58a.18.18,0,0,1-.18.17h0a.18.18,0,0,1-.17-.17h0a.18.18,0,0,1,.17-.18h0a.18.18,0,0,1,.18.18Z"/><path class="cls-3" d="M25.26,37.77a.17.17,0,0,1-.17.17h0a.17.17,0,0,1-.18-.17h0a.17.17,0,0,1,.18-.17h0a.17.17,0,0,1,.17.17Z"/><path class="cls-3" d="M26.71,35.83a.3.3,0,0,1-.3.31h0a.31.31,0,0,1-.31-.31h0a.3.3,0,0,1,.31-.3h0a.29.29,0,0,1,.3.3Z"/><path class="cls-3" d="M24.58,34a.13.13,0,0,1-.13.14h0a.14.14,0,0,1-.14-.14h0a.14.14,0,0,1,.14-.14h0a.14.14,0,0,1,.13.14Z"/><path class="cls-3" d="M12.61,35.22a.3.3,0,0,1,.17.38h0a.28.28,0,0,1-.37.17h0a.29.29,0,0,1-.18-.37h0a.31.31,0,0,1,.38-.18Z"/><path class="cls-3" d="M11,34.57a.19.19,0,0,1,.11.23h0a.19.19,0,0,1-.23.1h0a.18.18,0,0,1-.1-.23h0a.19.19,0,0,1,.22-.1Z"/><path class="cls-3" d="M15.67,34a.18.18,0,0,1,.11.22h0a.18.18,0,0,1-.22.11h0a.18.18,0,0,1-.11-.23h0a.17.17,0,0,1,.22-.1Z"/><path class="cls-3" d="M14.36,31.94a.3.3,0,0,1,.18.39h0a.29.29,0,0,1-.39.17h0a.3.3,0,0,1-.18-.39h0a.3.3,0,0,1,.39-.17Z"/><path class="cls-3" d="M11.93,33.3a.14.14,0,0,1,.08.18h0a.14.14,0,0,1-.18.08h0a.14.14,0,0,1-.08-.18h0a.13.13,0,0,1,.18-.08Z"/><path class="cls-3" d="M8.06,36.68a.22.22,0,0,1,.23.22h0a.22.22,0,0,1-.22.23h0a.23.23,0,0,1-.23-.23h0a.22.22,0,0,1,.22-.22Z"/><path class="cls-3" d="M6.69,36.66a.13.13,0,0,1,.13.13h0a.13.13,0,0,1-.13.13h0a.13.13,0,0,1-.14-.13h0a.13.13,0,0,1,.14-.13Z"/><path class="cls-3" d="M10,34.9a.14.14,0,0,1,.14.14h0a.13.13,0,0,1-.14.13h0A.13.13,0,0,1,9.82,35h0A.13.13,0,0,1,10,34.9Z"/><path class="cls-3" d="M8.43,33.78a.24.24,0,0,1,.24.24h0a.24.24,0,0,1-.24.24h0A.24.24,0,0,1,8.19,34h0a.24.24,0,0,1,.24-.24Z"/><path class="cls-3" d="M7,35.46a.1.1,0,0,1,.11.11h0a.12.12,0,0,1-.11.11H7a.11.11,0,0,1-.11-.11h0A.1.1,0,0,1,7,35.46Z"/><path class="cls-3" d="M7.16,27.76a.22.22,0,0,1,.23.22h0a.23.23,0,0,1-.23.23h0A.22.22,0,0,1,6.94,28h0a.22.22,0,0,1,.22-.23Z"/><path class="cls-3" d="M5.79,27.73a.14.14,0,0,1,.13.14h0a.13.13,0,0,1-.13.14h0a.14.14,0,0,1-.14-.14h0a.14.14,0,0,1,.14-.14Z"/><path class="cls-3" d="M9.05,26a.13.13,0,0,1,.13.13h0a.13.13,0,0,1-.13.14h0a.14.14,0,0,1-.14-.14h0A.13.13,0,0,1,9.05,26Z"/><path class="cls-3" d="M7.52,24.87a.23.23,0,0,1,.24.23h0a.23.23,0,0,1-.23.24h0a.24.24,0,0,1-.24-.23h0a.23.23,0,0,1,.23-.24Z"/><path class="cls-3" d="M6.12,26.54a.12.12,0,0,1,.12.11h0a.11.11,0,0,1-.11.11h0A.11.11,0,0,1,6,26.65H6a.11.11,0,0,1,.1-.11Z"/><path class="cls-3" d="M6.73,18.73a.22.22,0,0,1,0,.32h0a.22.22,0,0,1-.32,0h0a.23.23,0,0,1,0-.32h0a.22.22,0,0,1,.32,0Z"/><path class="cls-3" d="M5.88,17.65a.14.14,0,0,1,0,.19h0a.14.14,0,0,1-.19,0h0a.14.14,0,0,1,0-.19h0a.13.13,0,0,1,.2,0Z"/><path class="cls-3" d="M9.3,19.06a.13.13,0,0,1,0,.19h0a.13.13,0,0,1-.19,0h0a.13.13,0,0,1,0-.19h0a.13.13,0,0,1,.19,0Z"/><path class="cls-3" d="M9.2,17.17a.25.25,0,0,1,0,.34h0a.24.24,0,0,1-.33,0h0a.23.23,0,0,1,0-.34h0a.24.24,0,0,1,.33,0Z"/><path class="cls-3" d="M7,17.15a.11.11,0,0,1,0,.16H7a.1.1,0,0,1-.15,0h0a.11.11,0,0,1,0-.15h0a.12.12,0,0,1,.16,0Z"/><path class="cls-3" d="M7.16,10.84a.23.23,0,0,1,0,.32h0a.22.22,0,0,1-.32,0h0a.22.22,0,0,1,0-.32h0a.21.21,0,0,1,.31,0Z"/><path class="cls-3" d="M6.3,9.76a.13.13,0,0,1,0,.2h0a.15.15,0,0,1-.19,0h0a.13.13,0,0,1,0-.19h0a.12.12,0,0,1,.18,0Z"/><path class="cls-3" d="M9.73,11.17a.13.13,0,0,1,0,.19h0a.14.14,0,0,1-.19,0h0a.15.15,0,0,1,0-.2h0a.13.13,0,0,1,.19,0Z"/><path class="cls-3" d="M9.63,9.28a.25.25,0,0,1,0,.34h0a.23.23,0,0,1-.33,0h0a.23.23,0,0,1,0-.33h0a.23.23,0,0,1,.33,0Z"/><path class="cls-3" d="M7.45,9.27a.1.1,0,0,1,0,.15h0a.1.1,0,0,1-.15,0h0a.1.1,0,0,1,0-.15h0a.1.1,0,0,1,.15,0Z"/><path class="cls-3" d="M10.24,6.39a.3.3,0,0,1-.37.22h0a.29.29,0,0,1-.21-.37h0A.29.29,0,0,1,10,6h0a.3.3,0,0,1,.22.36Z"/><path class="cls-3" d="M10.73,4.64a.2.2,0,0,1-.22.13h0a.19.19,0,0,1-.14-.22h0a.18.18,0,0,1,.22-.13h0a.18.18,0,0,1,.14.22Z"/><path class="cls-3" d="M11.88,9.4a.18.18,0,0,1-.21.13h0a.19.19,0,0,1-.14-.22h0a.18.18,0,0,1,.22-.13h0a.17.17,0,0,1,.13.22Z"/><path class="cls-3" d="M13.82,7.82a.31.31,0,0,1-.38.23h0a.33.33,0,0,1-.23-.39h0a.3.3,0,0,1,.38-.22h0a.31.31,0,0,1,.23.38Z"/><path class="cls-3" d="M12.14,5.47a.14.14,0,0,1-.17.11h0a.15.15,0,0,1-.11-.18h0A.16.16,0,0,1,12,5.29h0a.14.14,0,0,1,.1.18Z"/><path class="cls-3" d="M20.17,6.89a.31.31,0,0,1-.37.22h0a.3.3,0,0,1-.22-.36h0A.31.31,0,0,1,20,6.53h0a.3.3,0,0,1,.22.36Z"/><path class="cls-3" d="M20.66,5.14a.2.2,0,0,1-.22.13h0a.18.18,0,0,1-.14-.22h0a.2.2,0,0,1,.22-.13h0a.19.19,0,0,1,.14.22Z"/><path class="cls-3" d="M21.81,9.9a.19.19,0,0,1-.22.13h0a.18.18,0,0,1-.13-.22h0a.19.19,0,0,1,.22-.13h0a.18.18,0,0,1,.13.22Z"/><path class="cls-3" d="M23.75,8.32a.31.31,0,0,1-.38.23h0a.32.32,0,0,1-.23-.38h0a.32.32,0,0,1,.38-.23h0a.31.31,0,0,1,.23.38Z"/><path class="cls-3" d="M22.07,6a.15.15,0,0,1-.18.11h0a.15.15,0,0,1-.1-.18h0A.15.15,0,0,1,22,5.8h0a.15.15,0,0,1,.1.17Z"/><path class="cls-3" d="M31,8.91a.31.31,0,0,1,.35.25h0a.3.3,0,0,1-.26.34h0a.29.29,0,0,1-.34-.25h0A.3.3,0,0,1,31,8.91Z"/><path class="cls-3" d="M29.17,9.13a.17.17,0,0,1,.2.15h0a.17.17,0,0,1-.15.2h0A.18.18,0,0,1,29,9.33h0a.18.18,0,0,1,.16-.2Z"/><path class="cls-3" d="M33.13,6.25a.17.17,0,0,1,.2.15h0a.18.18,0,0,1-.15.21h0a.18.18,0,0,1-.2-.16h0a.18.18,0,0,1,.15-.2Z"/><path class="cls-3" d="M30.93,5.06a.31.31,0,0,1,.36.26h0a.32.32,0,0,1-.27.36h0a.31.31,0,0,1-.35-.27h0a.3.3,0,0,1,.26-.35Z"/><path class="cls-3" d="M29.4,7.5a.14.14,0,0,1,.16.12h0a.15.15,0,0,1-.12.17h0a.15.15,0,0,1-.16-.13h0a.14.14,0,0,1,.12-.16Z"/><path class="cls-3" d="M36.79,7.73a.24.24,0,0,1,.27.2h0a.24.24,0,0,1-.2.27h0a.24.24,0,0,1-.27-.2h0a.24.24,0,0,1,.2-.27Z"/><path class="cls-3" d="M35.36,7.9a.16.16,0,0,1,.17.12h0a.16.16,0,0,1-.12.17h0a.13.13,0,0,1-.16-.13h0a.13.13,0,0,1,.11-.16Z"/><path class="cls-3" d="M38.5,5.63a.14.14,0,0,1,.16.12h0a.14.14,0,0,1-.12.16h0a.14.14,0,0,1-.16-.12h0a.13.13,0,0,1,.12-.16Z"/><path class="cls-3" d="M36.76,4.68a.26.26,0,0,1,.28.21h0a.24.24,0,0,1-.21.28h0A.25.25,0,0,1,36.55,5h0a.25.25,0,0,1,.21-.28Z"/><path class="cls-3" d="M35.55,6.62a.1.1,0,0,1,.12.09h0a.11.11,0,0,1-.09.13h0a.11.11,0,0,1-.13-.09h0a.11.11,0,0,1,.1-.13Z"/><path class="cls-3" d="M36.88,14.38a.24.24,0,0,1,.28.2h0a.23.23,0,0,1-.21.26h0a.24.24,0,0,1-.27-.2h0a.24.24,0,0,1,.2-.26Z"/><path class="cls-3" d="M35.46,14.54a.15.15,0,0,1,.16.13h0a.15.15,0,0,1-.12.16h0a.14.14,0,0,1-.16-.12h0a.15.15,0,0,1,.12-.17Z"/><path class="cls-3" d="M38.59,12.27a.14.14,0,0,1,.16.12h0a.14.14,0,0,1-.12.16h0a.14.14,0,0,1-.16-.12h0a.14.14,0,0,1,.12-.16Z"/><path class="cls-3" d="M36.85,11.32a.27.27,0,0,1,.29.22h0a.25.25,0,0,1-.22.28h0a.25.25,0,0,1-.28-.22h0a.25.25,0,0,1,.21-.28Z"/><path class="cls-3" d="M35.64,13.26a.11.11,0,0,1,.13.09h0a.12.12,0,0,1-.1.13h0a.11.11,0,0,1-.13-.09h0a.11.11,0,0,1,.1-.13Z"/><path class="cls-3" d="M36.43,21.83a.24.24,0,0,1,.27.2h0a.24.24,0,0,1-.2.27h0a.24.24,0,0,1-.27-.2h0a.23.23,0,0,1,.2-.27Z"/><path class="cls-3" d="M35,22a.14.14,0,0,1,.16.12h0a.14.14,0,0,1-.12.16h0a.14.14,0,0,1-.16-.12h0A.15.15,0,0,1,35,22Z"/><path class="cls-3" d="M38.13,19.72a.14.14,0,0,1,.17.12h0a.15.15,0,0,1-.12.16h0a.13.13,0,0,1-.16-.12h0a.14.14,0,0,1,.11-.16Z"/><path class="cls-3" d="M36.4,18.78a.25.25,0,0,1,.28.21h0a.25.25,0,0,1-.21.28h0a.25.25,0,0,1-.28-.21h0a.24.24,0,0,1,.21-.28Z"/><path class="cls-3" d="M35.19,20.71a.11.11,0,0,1,.12.1h0a.11.11,0,0,1-.09.13h0a.12.12,0,0,1-.13-.1h0a.11.11,0,0,1,.1-.13Z"/><path class="cls-3" d="M35.21,28a.29.29,0,0,1-.11.4h0a.29.29,0,0,1-.39-.11h0a.28.28,0,0,1,.1-.4h0a.29.29,0,0,1,.4.11Z"/><path class="cls-3" d="M34.36,26.44a.17.17,0,0,1-.06.24h0a.18.18,0,0,1-.24-.06h0a.19.19,0,0,1,.06-.24h0a.17.17,0,0,1,.24.06Z"/><path class="cls-3" d="M38.37,29a.17.17,0,0,1-.07.24h0a.17.17,0,0,1-.23-.06h0a.18.18,0,0,1,.06-.24h0a.18.18,0,0,1,.24.06Z"/><path class="cls-3" d="M38.66,26.57a.31.31,0,0,1-.12.42h0a.31.31,0,0,1-.41-.11h0a.31.31,0,0,1,.11-.42h0a.32.32,0,0,1,.42.11Z"/><path class="cls-3" d="M35.91,26.07a.14.14,0,0,1,0,.19h0a.14.14,0,0,1-.19-.05h0a.13.13,0,0,1,0-.19h0a.13.13,0,0,1,.19.05Z"/><path class="cls-4" d="M13.7,7.05l.1.08.28.21.41.36a6.63,6.63,0,0,1,.52.46c.18.17.38.36.58.57s.42.42.63.65.43.46.64.71.42.5.63.75l.59.77c.2.26.37.52.55.77s.33.49.48.73.29.45.41.66.23.39.33.56.17.32.24.44l.14.29.05.1-.08-.09L20,14.81c-.09-.11-.21-.25-.33-.41l-.43-.53-.5-.62-.55-.7-.6-.73L17,11.06l-.61-.75-.6-.73-.56-.67L14.7,8.3q-.24-.27-.42-.51L14,7.4l-.2-.26Z"/><path class="cls-5" d="M22,6.82v.5c0,.32,0,.78,0,1.33,0,.28,0,.58,0,.89s0,.65,0,1,0,.69,0,1.06,0,.73,0,1.09l-.06,1.09c0,.37,0,.72-.06,1.06,0,.69-.08,1.33-.12,1.89s-.08,1-.1,1.32c0,.17,0,.29,0,.38a1.16,1.16,0,0,0,0,.13v-.13c0-.09,0-.21,0-.38,0-.32,0-.78,0-1.32s0-1.2,0-1.89c0-.34,0-.7,0-1.06s0-.73,0-1.1l.06-1.09c0-.36,0-.72.06-1.06s0-.67.07-1,0-.61.07-.89c0-.55.1-1,.13-1.33,0-.16,0-.28,0-.37A1.11,1.11,0,0,1,22,6.82Z"/><path class="cls-4" d="M29.51,6.45l-.05.07-.12.19c-.1.15-.27.37-.47.63s-.44.57-.71.89c-.13.17-.27.33-.41.5l-.44.51-.45.51-.44.5c-.29.32-.56.62-.81.87l-.59.62-.18.17-.06.06,0-.08a1.88,1.88,0,0,1,.1-.19c.09-.17.22-.41.39-.69s.39-.6.64-.95c.12-.16.25-.34.39-.51L26.76,9l.45-.51c.15-.17.31-.33.46-.48.31-.31.61-.59.88-.82s.51-.43.68-.56l.2-.14Z"/><path class="cls-6" d="M30.55,10.62l-.08.07-.24.2-.87.7-1.25,1-.7.57-.72.6-.72.61c-.23.2-.47.39-.69.59l-1.22,1.08-.87.77L23,17l-.09.07.07-.08c0-.06.1-.15.18-.25s.39-.51.69-.86.67-.75,1.08-1.16c.2-.21.42-.42.65-.62s.46-.43.7-.63.49-.41.73-.6.5-.38.74-.56c.49-.36,1-.67,1.39-.93s.78-.46,1-.59l.31-.16Z"/><path class="cls-4" d="M37.39,11.64l-.11,0-.31.08-1.11.31c-.46.13-1,.28-1.58.46l-.89.27-.91.29-.91.31-.88.31c-.57.2-1.1.41-1.56.58l-1.1.43-.31.13-.11,0,.09-.06.26-.17c.22-.14.55-.34,1-.56s.89-.46,1.43-.7L31.2,13l.9-.32q.46-.17.93-.3l.92-.24c.61-.15,1.19-.26,1.7-.34s.94-.13,1.25-.16l.36,0Z"/><path class="cls-6" d="M42.34,18.9l-.15,0-.43-.1-.66-.16-.86-.18-1-.2L38.1,18c-.4-.07-.8-.12-1.21-.17s-.82-.1-1.24-.13l-1.23-.1-1.19-.05-1.11,0h-1l-.84,0-.64,0-.41,0h-.15l.14,0,.38-.07.61-.1.8-.11c.3,0,.62-.06,1-.07s.71,0,1.09-.05.78,0,1.18,0,.82,0,1.24.07l1.25.14c.42.05.83.13,1.22.2s.79.16,1.16.24.72.18,1,.28.63.18.89.26l.69.24.44.16Z"/><path class="cls-4" d="M25.37,19.79l.16,0,.45-.1.72-.14c.27-.05.58-.1.93-.14s.72-.09,1.12-.12.83-.06,1.27-.07.9,0,1.38,0,1,0,1.44.07,1,.1,1.45.17,1,.16,1.42.24.91.2,1.34.31l1.2.34,1,.34.79.3.5.21.18.07-.17-.05-.5-.15-.77-.22-1-.26-1.19-.27L35.79,20l-1.4-.21c-.48-.06-1-.12-1.44-.16s-1-.08-1.44-.1-.93,0-1.38,0-.87,0-1.28,0l-1.14,0-1,.07-.73.07-.48.05Z"/><path class="cls-4" d="M24.1,20.67l.17,0,.48.06c.41.06,1,.16,1.69.31l1.13.27,1.24.36c.43.14.87.29,1.31.46s.9.34,1.35.54.89.4,1.32.61.86.44,1.26.67c.81.45,1.56.92,2.18,1.35s1.13.81,1.49,1.08l.41.32.14.12-.15-.11-.42-.3c-.36-.26-.88-.62-1.52-1s-1.38-.86-2.19-1.3l-1.26-.65q-.65-.32-1.32-.6c-.45-.2-.89-.38-1.34-.55s-.88-.32-1.3-.47-.84-.27-1.24-.38l-1.11-.3c-.69-.17-1.27-.3-1.68-.37-.21,0-.36-.08-.48-.09Z"/><path class="cls-6" d="M30.94,21.06l.09,0a1.76,1.76,0,0,1,.27,0c.24,0,.57.1,1,.2s.87.22,1.37.38l.76.26.79.31.78.34c.26.11.51.24.76.36.48.24.93.5,1.31.73s.69.43.91.58l.25.17.1.07-.1-.05-.27-.12L38,23.9l-1.33-.61L35.91,23l-.78-.33-.77-.32L33.6,22l-1.35-.49-.95-.34L31,21.1Z"/><path class="cls-6" d="M25.18,22.1l.13,0,.35.09c.31.08.73.21,1.24.38s1.1.4,1.72.66l.93.45c.32.15.64.32,1,.49l.93.54.88.57c.56.38,1.07.76,1.5,1.1s.78.64,1,.86.21.19.27.25l.1.09-.11-.07-.3-.22-1.09-.75c-.46-.3-1-.65-1.56-1L31.26,25l-.93-.52-.94-.5-.92-.46c-.6-.29-1.16-.55-1.65-.76l-1.18-.5-.34-.13Z"/><path class="cls-6" d="M29.2,24.7l.11.05.29.16c.26.14.62.35,1,.61s.9.6,1.39,1c.25.19.51.39.76.6l.76.64.73.68c.24.23.46.46.68.69.44.45.83.89,1.15,1.28s.57.73.75,1,.15.21.2.28a.59.59,0,0,1,.07.1L37,31.64a2.51,2.51,0,0,0-.24-.25c-.2-.22-.49-.52-.84-.88s-.77-.77-1.22-1.21l-.7-.65L33.31,28l-.75-.65c-.25-.21-.49-.42-.73-.61l-1.32-1.05-1-.71-.27-.2Z"/><path class="cls-5" d="M25.91,23.4l.12.08.32.22c.27.2.66.49,1.1.85.23.18.46.39.71.61s.5.44.76.69.53.5.79.77l.78.82c.25.29.5.57.74.86s.46.57.68.85c.43.56.82,1.09,1.13,1.56s.56.87.73,1.15l.2.32.06.12L34,32.19l-.22-.32c-.18-.27-.45-.66-.79-1.11s-.73-1-1.17-1.53c-.22-.28-.46-.56-.7-.84l-.74-.84c-.26-.28-.51-.56-.77-.83s-.52-.53-.78-.77-.5-.49-.74-.71l-.68-.61c-.43-.38-.79-.69-1.05-.9l-.3-.25Z"/><path class="cls-4" d="M22.94,21.91l.12.09c.08.07.2.16.34.29s.32.27.51.45.41.38.63.6l.72.74c.25.27.51.56.76.86s.52.61.77.94.5.66.73,1,.48.69.7,1,.42.69.62,1,.37.66.54,1,.31.61.44.88.25.53.35.76.18.42.25.58l.15.38.05.14-.07-.13c0-.08-.11-.21-.2-.36s-.19-.35-.31-.57-.25-.46-.41-.72-.32-.55-.5-.86-.38-.61-.59-.94-.42-.66-.65-1-.46-.67-.7-1-.49-.67-.74-1-.49-.64-.74-.94-.48-.6-.71-.88l-.65-.77c-.22-.23-.4-.45-.57-.64l-.45-.49L23.05,22Z"/><path class="cls-5" d="M22.21,22.07l.07.11.19.31c.07.13.17.29.27.48s.22.41.34.65l.38.76c.13.28.26.56.39.87s.27.61.39.93l.36,1c.12.33.23.66.34,1s.19.65.29,1,.17.61.24.9.13.55.19.8.11.49.15.69.07.39.1.53,0,.27.05.35a.48.48,0,0,1,0,.12l0-.12c0-.08-.06-.19-.11-.33s-.1-.32-.16-.52-.14-.43-.22-.67-.16-.51-.26-.79-.19-.58-.29-.89l-.33-.94c-.12-.32-.23-.64-.35-1l-.36-1c-.13-.32-.24-.64-.37-.94l-.34-.87-.31-.79c-.1-.24-.19-.46-.26-.66s-.15-.36-.21-.51-.1-.25-.13-.33Z"/><path class="cls-6" d="M26.16,27.72l.07.1c0,.07.11.16.18.29l.28.44.34.59c.12.22.24.46.37.71s.27.52.39.8.27.57.39.87.24.6.36.9.22.61.32.91.2.6.29.89l.23.83q.11.41.18.75c.06.24.1.45.14.64s.07.36.09.5,0,.24.05.31a1.13,1.13,0,0,0,0,.12l0-.11c0-.07-.06-.18-.1-.31l-.15-.48c-.06-.18-.12-.39-.2-.62s-.15-.47-.24-.73l-.28-.82c-.1-.29-.21-.58-.31-.88s-.22-.59-.34-.89l-.36-.91c-.12-.29-.23-.58-.36-.86l-.34-.82-.32-.72c-.11-.23-.2-.43-.27-.62s-.16-.34-.22-.47l-.13-.3A.49.49,0,0,1,26.16,27.72Z"/><path class="cls-6" d="M22.81,28.15s0,.05,0,.15.06.24.11.43c.1.36.24.89.39,1.52l.22,1c.08.36.16.75.24,1.14s.15.81.23,1.23l.21,1.27c.07.43.13.85.19,1.27s.11.84.17,1.24c.1.8.18,1.55.24,2.19s.09,1.18.12,1.55c0,.19,0,.34,0,.44a.85.85,0,0,0,0,.15s0,0,0-.15,0-.24-.06-.43c-.05-.37-.13-.9-.22-1.54s-.2-1.39-.31-2.18c-.06-.4-.13-.81-.2-1.23s-.13-.85-.2-1.27-.14-.85-.22-1.28-.14-.83-.21-1.22-.14-.79-.2-1.15-.12-.71-.18-1c-.12-.64-.21-1.17-.28-1.55,0-.18-.06-.33-.08-.43A.77.77,0,0,1,22.81,28.15Z"/><path class="cls-4" d="M21.35,21.52s0,.05,0,.14,0,.23,0,.4,0,.39.06.63,0,.52.06.81,0,.63,0,1,0,.7.05,1.07,0,.76,0,1.16,0,.79,0,1.19,0,.79,0,1.18v1.15c0,.38,0,.74,0,1.08s0,.67,0,1,0,.57,0,.81,0,.46,0,.63,0,.31,0,.41,0,.14,0,.14,0,0,0-.14,0-.23,0-.41,0-.38-.05-.62,0-.52,0-.82,0-.62-.05-1,0-.71-.05-1.08,0-.76-.05-1.15l0-1.19,0-1.18c0-.4,0-.79,0-1.16s0-.73,0-1.08,0-.66,0-1,0-.57,0-.82,0-.45,0-.62,0-.32,0-.41S21.35,21.52,21.35,21.52Z"/><path class="cls-6" d="M20.49,24v.2c0,.13,0,.31,0,.54s0,.48,0,.76,0,.28,0,.43,0,.29-.05.44l-.06.44c0,.14,0,.28-.08.42s-.1.53-.15.75-.1.41-.13.53a.64.64,0,0,1-.05.15.28.28,0,0,0,0,.05.12.12,0,0,1,0-.05s0-.09,0-.15,0-.32,0-.54,0-.48,0-.76a3.22,3.22,0,0,1,0-.43c0-.15,0-.29.05-.44s0-.3.06-.44,0-.29.07-.43.11-.53.17-.75.11-.4.16-.53l0-.14A.12.12,0,0,1,20.49,24Z"/><path class="cls-6" d="M19.72,32.08a.42.42,0,0,0,0,.07s0,.1,0,.19.05.4.07.68,0,.61,0,1c0,.18,0,.36,0,.55v.56c0,.19,0,.38,0,.56s0,.37,0,.55c0,.36,0,.68-.05,1s-.05.52-.06.68,0,.15,0,.19a.45.45,0,0,0,0,.08.45.45,0,0,0,0-.08.78.78,0,0,1,0-.19c0-.16-.05-.4-.07-.68s0-.61-.06-1c0-.17,0-.36,0-.54s0-.38,0-.57v-.56c0-.19,0-.37,0-.55,0-.35,0-.68.06-1s.06-.52.08-.68a1.52,1.52,0,0,1,0-.19Z"/><path class="cls-5" d="M19.33,25.2a.82.82,0,0,1,0,.11l-.12.33c-.12.28-.27.69-.44,1.17-.09.24-.19.5-.28.78s-.21.57-.31.88-.21.62-.31.94-.21.65-.31,1-.2.66-.29,1S17,32,17,32.3c-.17.62-.31,1.19-.44,1.69s-.22.9-.28,1.19-.06.25-.07.33a.39.39,0,0,0,0,.12,1.09,1.09,0,0,1,0-.12c0-.08,0-.19.06-.34s.12-.71.22-1.2.22-1.08.38-1.7c.07-.31.15-.62.24-1l.28-1c.1-.33.21-.66.31-1s.22-.64.33-.94.22-.6.33-.87.22-.54.31-.78c.2-.48.39-.87.51-1.15s.12-.25.16-.32A.61.61,0,0,1,19.33,25.2Z"/><path class="cls-6" d="M18.17,32v.09c0,.06,0,.15,0,.26s-.06.52-.11.89-.11.79-.18,1.25c0,.23-.07.47-.11.71s-.07.48-.11.73l-.12.72c0,.24-.07.48-.11.71-.07.46-.14.88-.2,1.24s-.11.67-.15.88,0,.19,0,.25a.73.73,0,0,1,0,.08V39.5c0-.21,0-.52,0-.89s.05-.8.1-1.26c0-.22,0-.46.07-.7s.07-.49.1-.74.07-.49.11-.73.09-.47.14-.7c.09-.46.18-.88.28-1.24s.18-.67.24-.88a1.33,1.33,0,0,0,.08-.24Z"/><path class="cls-4" d="M18.87,22.53l-.1.11-.28.33-.44.52-.56.68-.65.82-.7.92c-.24.32-.48.66-.72,1s-.49.7-.71,1.05-.47.72-.69,1.07-.43.71-.62,1l-.57,1-.48.89c-.14.29-.28.54-.39.77l-.29.59c-.08.16-.15.29-.19.38l-.07.13.05-.14.14-.39c.07-.17.14-.38.23-.61l.33-.79c.13-.29.26-.6.42-.92s.33-.67.52-1,.38-.71.6-1.07.43-.72.67-1.08.47-.71.72-1.06.5-.67.75-1,.5-.62.74-.91.48-.55.71-.79.43-.45.63-.64.36-.36.5-.48l.33-.31Z"/><path class="cls-6" d="M16.67,22l-.11.07-.33.21-.5.33-.66.44-.76.52-.84.61-.89.67c-.29.23-.6.47-.89.72s-.59.49-.88.74L10,27l-.77.72-.68.65L8,29l-.43.44-.28.29a.72.72,0,0,1-.1.1l.09-.11.23-.32.39-.48.51-.61c.2-.22.41-.46.64-.7s.47-.5.73-.75.53-.52.82-.77.58-.52.88-.77.6-.48.91-.71.61-.45.91-.66.59-.4.88-.57l.8-.49.7-.38.55-.28.36-.16Z"/><path class="cls-5" d="M8.68,31.5s.3-.5.8-1.22l.41-.57.47-.63.53-.66.57-.66c.19-.22.39-.43.59-.64s.39-.41.59-.61c.38-.39.76-.74,1.1-1,.66-.58,1.13-.94,1.13-.94l-1,1c-.32.31-.68.67-1.06,1.07l-.58.61c-.19.21-.38.43-.58.64l-.57.66-.54.64-.49.62c-.16.19-.3.38-.43.55Z"/><path class="cls-6" d="M4,26.65l.16-.12.45-.33c.39-.28,1-.67,1.63-1.1.35-.21.72-.44,1.12-.66s.82-.46,1.26-.68.89-.43,1.37-.64.94-.41,1.42-.58,1-.35,1.44-.5.95-.29,1.41-.4a24.2,24.2,0,0,1,2.52-.52c.73-.12,1.36-.17,1.79-.21l.5,0h.18l-.18,0-.5.06c-.43.05-1,.14-1.78.27s-1.59.33-2.5.58c-.46.12-.93.26-1.41.41s-.95.32-1.43.5-1,.37-1.42.58-.93.41-1.37.62l-1.26.65c-.4.22-.78.43-1.12.64-.69.4-1.26.77-1.66,1l-.45.31Z"/><path class="cls-4" d="M2.58,23.66l.14-.08c.09-.06.22-.14.39-.23L3.73,23c.24-.12.51-.26.8-.39s.62-.29,1-.43l1.07-.42c.37-.13.75-.26,1.14-.38s.79-.24,1.19-.34.79-.2,1.18-.28.77-.15,1.14-.2.73-.11,1.06-.14.66-.06,1-.08l.79,0c.24,0,.45,0,.61,0H15l-.4,0-.62.07-.81.11-.95.14c-.33.06-.69.12-1.06.2L10,21.16l-1.17.28-1.18.33c-.39.12-.77.23-1.14.36l-1.06.36-1,.36-.8.32-.62.26-.4.17Z"/><path class="cls-5" d="M3.07,20.17l.17-.05L3.73,20c.42-.12,1-.29,1.74-.44.36-.08.75-.16,1.16-.23l1.28-.19L9.27,19l1.38-.06c.46,0,.92,0,1.37,0s.88,0,1.31.07c.84.07,1.61.18,2.26.29s1.19.24,1.56.33l.43.1.15,0a.59.59,0,0,1-.15,0l-.44-.08c-.39-.07-.93-.16-1.6-.25s-1.44-.18-2.29-.23c-.42,0-.86,0-1.31-.05H10.58q-.7,0-1.38.06t-1.35.12l-1.27.17c-.4.06-.79.12-1.14.19-.71.13-1.31.26-1.72.36l-.49.12Z"/><path class="cls-6" d="M5,16.23H5l.24,0,.85,0c.34,0,.74,0,1.15.06.21,0,.42,0,.63.08l.63.09.62.13.59.14c.38.1.72.21,1,.31l.68.28.17.08.07,0h-.08l-.23,0-.79-.12L9.48,17l-.61-.1-.63-.11-.63-.1-.6-.1-1-.19-.74-.14L5,16.25Z"/><path class="cls-4" d="M10.4,14.69l.11,0,.34.06c.29.06.69.14,1.16.27s1,.28,1.57.48c.28.09.56.19.85.31l.85.35.82.38c.27.13.52.27.77.4.49.27.93.54,1.3.77s.65.44.85.59l.23.17.08.07-.1,0L19,18.37l-1-.5c-.41-.2-.88-.44-1.4-.68l-.8-.37-.83-.36c-.28-.13-.56-.24-.84-.36l-.82-.33-1.46-.56-1-.38-.29-.11Z"/><path class="cls-5" d="M7.83,11.22l.16,0,.44.13c.38.12.92.3,1.55.54.3.11.64.25,1,.4l1.09.48,1.13.57c.38.2.75.41,1.12.63s.74.44,1.1.67.69.46,1,.69c.65.45,1.24.91,1.72,1.3s.87.75,1.15,1l.31.29.1.1-.12-.1-.34-.27c-.28-.23-.71-.56-1.21-.94S16.91,16,16.25,15.5l-1-.67-1.1-.66L13,13.55,11.87,13l-1.06-.51-1-.43c-.6-.26-1.1-.46-1.46-.6L8,11.28Z"/><path class="cls-6" d="M12.66,10.63l.06,0a.48.48,0,0,1,.15.07c.13,0,.31.14.51.24a6.3,6.3,0,0,1,.66.41l.34.24.34.27.32.27c.11.1.21.19.3.29s.34.36.48.51.22.3.28.4l.08.11,0,0-.05,0L16,13.41l-.47-.29-.63-.44-.33-.24-.34-.27-.32-.27-.31-.26-.51-.49c-.14-.15-.25-.28-.32-.37l-.09-.11Z"/><path class="cls-6" d="M17.2,26.36a.31.31,0,0,0,0,.07s0,.11-.06.18l-.24.66c-.11.27-.23.59-.37.92l-.21.52c-.08.17-.15.35-.22.53l-.23.53c-.07.17-.14.35-.22.51-.14.34-.28.64-.39.91l-.29.64-.09.18,0,.06a.28.28,0,0,1,0-.06s0-.11,0-.2.08-.39.16-.67.16-.6.28-.94c0-.17.12-.34.19-.52s.13-.36.21-.54.15-.36.23-.53.15-.35.24-.52.32-.63.47-.89l.38-.61.12-.17Z"/><path class="cls-4" d="M26.2,5.6s-3.62,5.18-3.78,11C22.42,16.61,21.87,9.44,26.2,5.6Z"/><path class="cls-6" d="M12.17,2a17.66,17.66,0,0,1,8.13,12.2S19.41,4.9,12.17,2Z"/><path class="cls-6" d="M13,27.6s-4.1,4.25-4.35,9.46C8.68,37.06,10.44,30.16,13,27.6Z"/><path class="cls-5" d="M34.56,25.9a13.13,13.13,0,0,1,6,6.17A40.93,40.93,0,0,0,34.56,25.9Z"/><path class="cls-4" d="M8.68,25.9a12.75,12.75,0,0,0-5.61,9A17.49,17.49,0,0,1,8.68,25.9Z"/><path class="cls-7" d="M3.05,32.71V31.53l.3,1.18.44-1.06L3.6,33s.94-.64,1-.72-.83,1.23-.83,1.23L5.47,33,4,33.9l1.52.32H3.92l.7.9-.83-.54.83,1.73L3.35,34.9v.77l-.3-.82-.59,2,.17-2L2,35.64l.6-1.1L.75,35.6l1.88-1.28L0,34.63l2.46-.53L.94,33.74l1.23.12-.39-.72.82.5-.91-2.22,1.2,1.88-.16-.86Z"/><path class="cls-7" d="M29.75,5.7V4.78L30,5.7l.33-.82-.14,1s.73-.5.78-.56-.64,1-.64,1l1.3-.37-1.17.7,1.17.24H30.43l.53.7-.64-.42L31,8.48,30,7.39V8l-.24-.63-.46,1.58.13-1.54L28.94,8l.47-.86L28,7.93l1.45-1-2,.24,1.9-.41-1.17-.28.95.1L28.77,6l.64.39L28.7,4.7l.93,1.46-.12-.67Z"/><path class="cls-7" d="M2.36,3V2.06L2.59,3l.34-.82-.15,1s.73-.49.79-.56-.64,1-.64,1l1.3-.37-1.18.7,1.18.25H3l.54.69-.64-.42.64,1.34-1-1.09v.6l-.23-.64L1.9,6.21,2,4.66l-.48.58L2,4.38.58,5.2,2,4.21,0,4.46,1.9,4,.72,3.77l1,.09-.3-.56L2,3.69,1.31,2l.93,1.45-.12-.67Z"/><path class="cls-3" d="M2.25,14.72v-.51l.14.51.18-.46-.08.57.43-.31s-.35.53-.35.53l.72-.21-.65.38.65.14H2.63l.29.39-.35-.23.35.74-.53-.61V16l-.14-.35L2,16.51l.07-.86L1.8,16l.26-.47L1.27,16l.8-.55L1,15.54,2,15.31l-.65-.15.53.05-.17-.31.35.22-.39-.95.51.8-.06-.37Z"/><path class="cls-7" d="M30.44,31.72V30.8l.24.92L31,30.9l-.14,1s.72-.5.78-.56-.64,1-.64,1l1.3-.38-1.17.7,1.17.24H31.12l.53.7L31,33.16l.64,1.34-1-1.09V34l-.24-.64L30,35l.14-1.55-.49.58.47-.86L28.66,34l1.46-1-2,.24,1.9-.41-1.17-.28,1,.1-.3-.56.64.39-.71-1.72.93,1.46-.12-.67Z"/><path class="cls-8" d="M40.25,31.3v-.6l.15.6.22-.54-.09.67s.48-.32.52-.37-.43.63-.43.63l.86-.25-.77.46.77.17h-.79l.36.46-.43-.28.43.88-.65-.72v.39l-.15-.42-.3,1,.09-1-.33.38.31-.57-.94.55,1-.66-1.35.16L40,32l-.77-.19.62.06-.2-.36.42.25-.46-1.12.61,1-.08-.44Z"/><path class="cls-8" d="M8,10.48v-.6l.16.6.22-.54-.1.68s.48-.33.52-.37-.42.63-.42.63l.85-.25-.77.46.77.16H8.43l.36.46-.42-.27.42.88-.64-.72V12L8,11.57l-.3,1,.09-1L7.46,12l.3-.57L6.82,12l1-.65-1.34.16,1.25-.27L6.92,11l.62.06-.19-.37.41.26L7.3,9.83l.61,1-.08-.44Z"/><path class="cls-8" d="M16.15,35.31V34.8l.13.51.19-.46-.08.57s.41-.27.44-.31l-.36.53.73-.2-.66.39.66.13h-.67l.3.4-.36-.24.36.75-.55-.61v.33l-.13-.35-.26.88.08-.86-.27.32L16,36.1l-.8.46L16,36l-1.14.13,1.06-.23-.65-.15.53.05-.17-.31.36.22-.4-1,.53.81L16,35.19Z"/><path class="cls-6" d="M30.2,16.61S37,15,40.57,16.61C40.57,16.61,35.33,14.13,30.2,16.61Z"/><path class="cls-4" d="M21.85,20.64s.15-3,5.44-4.84A5.73,5.73,0,0,0,21.85,20.64Z"/><path class="cls-4" d="M20.86,11.64S20,5.34,18.17,3.93C18.17,3.93,21.18,5.48,20.86,11.64Z"/><path class="cls-5" d="M23.66,19.54s4.5-5.06,10.19-4.85A18.89,18.89,0,0,0,23.66,19.54Z"/><path class="cls-4" d="M19.24,20.17A11.73,11.73,0,0,0,13,17.7S17,17.25,19.24,20.17Z"/><path class="cls-4" d="M18.17,15.51a6.06,6.06,0,0,1,2.34,4S20.3,15.8,18.17,15.51Z"/><path class="cls-9" d="M39.5,23.91v-.76l.2.76.27-.68-.12.85s.61-.41.66-.46-.54.79-.54.79l1.09-.31-1,.58,1,.21h-1l.45.58L40,25.12l.54,1.12-.81-.92v.5l-.2-.53-.38,1.33.11-1.3-.41.49.39-.72-1.2.68L39.23,25l-1.7.21,1.59-.35-1-.23.8.08-.25-.47.53.33-.59-1.44.78,1.22-.1-.56Z"/><path class="cls-9" d="M4.64,25.61V25l.16.61L5,25.06l-.09.68s.48-.32.52-.37S5,26,5,26l.87-.25-.78.47.78.16h-.8l.36.47L5,26.58l.43.89-.65-.73v.4l-.16-.42-.31,1.06.09-1-.32.39.31-.58-1,.55,1-.66-1.35.16,1.26-.27-.78-.19.64.07L4,25.83l.42.26-.47-1.15.62,1-.08-.45Z"/><path class="cls-9" d="M12.44,1.11v-1l.26,1L13.07.2l-.16,1.13s.81-.55.88-.62l-.72,1.06,1.45-.42-1.3.78,1.3.27H13.19l.6.78-.72-.47.72,1.49L12.7,3v.67l-.26-.71L11.93,4.7,12.07,3l-.53.64.51-1-1.59.91,1.61-1.09-2.25.27,2.11-.46L10.62,2l1.06.1-.33-.62.7.44L11.27,0l1,1.62L12.17.87Z"/><path class="cls-8" d="M35.6,37.21v-.58l.15.58.21-.52-.09.65s.46-.31.5-.35L36,37.6l.83-.24L36,37.8l.75.16H36l.34.44L36,38.13l.41.86-.62-.7v.38l-.15-.4-.29,1,.08-1-.31.37.3-.54-.92.52.93-.63-1.3.15,1.22-.26-.75-.18.6.06L35,37.42l.41.25-.46-1.09.6.93-.08-.43Z"/></g></g></g></g></svg>