<svg xmlns="http://www.w3.org/2000/svg" viewBox="0 0 33.81 31.97"><defs><style>.cls-1{isolation:isolate;}.cls-2{mix-blend-mode:hard-light;}.cls-3{fill:#ffa89e;}.cls-4{fill:#6dddff;}.cls-5{fill:#88d0ff;}.cls-6{fill:#ff524b;}.cls-7{fill:#f18535;}.cls-8{fill:#eb5c31;}.cls-9{fill:#fab839;}.cls-10{fill:#e8442f;}</style></defs><g class="cls-1"><g id="Capa_2" data-name="Capa 2"><g id="Layer_1" data-name="Layer 1"><g class="cls-2"><path class="cls-3" d="M1.29,17.1v-.5l.12.5.19-.44-.09.55s.4-.26.43-.3-.35.52-.35.52l.71-.2-.64.37.64.14H1.64l.29.37-.34-.23.34.73L1.4,18v.32L1.28,18,1,18.85,1.1,18l-.27.31.26-.47-.78.44.79-.53L0,17.89l1-.21L.4,17.52l.51.06-.16-.31.34.22-.37-.94.49.8L1.15,17Z"/><path class="cls-4" d="M32.17,16.75V16l.19.8.31-.71-.14.89s.64-.42.7-.48-.57.83-.57.83L33.81,17l-1,.59,1,.23h-1l.46.62L32.66,18l.55,1.18-.85-1v.52l-.2-.56-.42,1.39.13-1.36-.43.5.42-.74-1.27.71,1.28-.86L30.09,18l1.67-.34-1-.25.84.09-.26-.5.55.35-.6-1.51.8,1.29-.1-.59Z"/><path class="cls-3" d="M30.83,20.64v-.42l.1.42.16-.38-.07.48.37-.26s-.3.44-.3.44l.6-.16-.55.31.55.12h-.56l.25.32-.3-.19.29.62-.45-.51v.28l-.1-.3-.22.74.06-.72-.23.26.22-.39-.67.38.68-.46-.94.1.89-.18L30.07,21l.44,0-.14-.26.3.19-.32-.8.43.68-.06-.32Z"/><path class="cls-4" d="M27.72,3.15v-.8l.2.8.3-.71-.14.89s.65-.43.7-.48-.57.83-.57.83l1.14-.31-1,.6,1,.22H28.3l.46.62-.56-.38.55,1.18-.84-1v.52l-.2-.56L27.28,6l.13-1.36L27,5.14l.42-.75-1.27.7,1.29-.85-1.79.19,1.67-.34-1-.25.83.09-.26-.5.55.35-.6-1.51.8,1.29L27.5,3Z"/><path class="cls-5" d="M21.15,28.68V28l.15.65.25-.58-.11.72s.51-.34.55-.39-.46.67-.46.67l.92-.25-.83.47.82.19h-.83L22,30l-.45-.3.44.95-.68-.78v.42l-.16-.45L20.81,31l.1-1.08-.35.4.34-.6-1,.57,1-.69-1.43.16,1.34-.28-.82-.2.67.07-.21-.39.44.28L20.42,28l.64,1L21,28.53Z"/><path class="cls-5" d="M11.93,28.27V28l.06.27.11-.24,0,.3.24-.16-.2.28.39-.11-.35.21.35.08h-.36l.16.21-.19-.13.19.41L12,28.78V29l-.06-.2-.14.48,0-.46-.15.17.15-.26-.44.25.44-.3-.61.07.57-.12-.35-.09.28,0-.08-.17.19.12L11.62,28l.27.44,0-.2Z"/><path class="cls-5" d="M11.92,18.61V18.4l.05.21.08-.18,0,.22a1.36,1.36,0,0,0,.17-.12l-.14.21.29-.08-.27.15.26.06h-.26l.11.15L12,18.93l.14.3L12,19v.14L11.92,19l-.11.35,0-.34-.11.13.11-.19-.32.18.33-.22-.46.05.43-.09-.27-.06.21,0-.06-.12.14.09-.15-.39.2.33,0-.15Z"/><path class="cls-5" d="M11.54,10.21V10l0,.2.08-.18,0,.23.17-.12-.14.2.29-.08-.26.16.26.06h-.27l.12.16-.14-.1.14.3-.22-.24v.13l-.05-.14-.11.35,0-.34-.11.13.1-.19-.32.17.33-.21-.46,0,.43-.09-.26-.06.21,0-.06-.13.13.09L11.3,10l.2.32,0-.14Z"/><path class="cls-5" d="M19.25,8.44v-.2l.05.2.07-.18,0,.23.18-.12-.15.21.29-.08-.26.15.26.06h-.27l.12.16-.14-.1.14.3-.22-.24V9l0-.14-.11.35,0-.34L19.06,9l.11-.2-.32.18.32-.21-.45,0,.42-.09-.26-.07.21,0L19,8.51l.14.09L19,8.22l.21.32,0-.15Z"/><path class="cls-6" d="M19.43,14v-.2l.05.2.08-.18,0,.22L19.7,14l-.15.21.3-.08-.27.15.26.06h-.26l.11.15-.14-.09.14.3-.21-.25v.14l0-.14-.11.35,0-.35-.1.13.1-.19-.32.18.33-.22-.46,0,.42-.08-.25-.07.2,0-.06-.12.14.09-.16-.38.21.32,0-.15Z"/><path class="cls-6" d="M7.21,13.91v-.2l0,.2.08-.18,0,.22.18-.12L7.33,14,7.62,14l-.26.15.26.06H7.36l.11.16-.14-.1.14.3-.21-.24v.13l-.06-.15-.1.36,0-.35L7,14.41l.11-.19-.32.18.32-.22-.45.05.42-.09-.26-.06.21,0L7,14l.14.09L7,13.68l.2.33,0-.15Z"/><path class="cls-6" d="M7.26,20.83v-.2l0,.2.08-.18,0,.23.18-.12L7.38,21l.29-.08L7.41,21l.26.06H7.4l.12.16-.14-.1.14.3-.21-.24v.13l0-.14-.1.35,0-.34-.11.13.11-.19-.32.17.32-.21-.45.05.43-.09L6.89,21l.21,0L7,20.9l.14.09L7,20.61l.2.32,0-.15Z"/><path class="cls-6" d="M24.75,16v-.2l.05.2.08-.18,0,.22a1.4,1.4,0,0,0,.18-.12l-.15.21.29-.08-.26.15.26.06h-.27l.12.16-.14-.1.14.3-.21-.24v.13l-.06-.14-.1.35,0-.35-.11.13.11-.19-.32.18.32-.22-.45,0,.42-.08-.26-.07.22,0-.07-.13.14.09-.15-.38.2.32,0-.15Z"/><path class="cls-6" d="M6,25.83v-.4l.1.4.15-.36-.07.45.35-.24s-.29.42-.29.42l.58-.16-.52.3.52.12H6.29l.23.31-.28-.19.28.6-.43-.49v.27L6,26.56l-.21.7.06-.68-.22.25.21-.38-.63.36.64-.43-.9.1.85-.17-.52-.13.42,0L5.56,26l.28.18-.31-.76.41.64-.05-.29Z"/><path class="cls-4" d="M6.9,4.26V3.7l.14.56.21-.5-.1.63s.46-.3.49-.34-.4.58-.4.58l.81-.22-.73.42L8.05,5H7.31l.33.43-.39-.26L7.63,6,7,5.31v.37l-.14-.39-.29,1,.09-1-.3.35.29-.53-.89.5.9-.6-1.26.14,1.19-.25-.73-.17.59.06-.19-.35.4.25L6.25,3.64l.57.91-.07-.42Z"/><path class="cls-6" d="M25.92,6.71V6.13l.14.58.22-.52-.1.64s.47-.3.5-.34-.41.6-.41.6l.83-.23-.75.43.74.17h-.76l.34.44-.4-.27.39.86-.61-.7v.38l-.15-.41-.3,1,.1-1-.32.37.31-.54-.92.51.93-.62-1.29.14,1.21-.24-.75-.19.61.06-.19-.35.4.25-.44-1.09.58.93-.07-.43Z"/><path class="cls-7" d="M20.67,11.71a1.8,1.8,0,0,0-1.29.27,4.37,4.37,0,0,0-1.32,1,8.09,8.09,0,0,0-1.44,2.6h0a4.56,4.56,0,0,1,1.71-2.12c.38-.26.75-.53,1.14-.77s.86-.28,1.21-.59C20.78,12,20.87,11.77,20.67,11.71Z"/><path class="cls-8" d="M23.86,7.71a.94.94,0,0,0-1.07-.13,4.73,4.73,0,0,0-1.14.53,10.66,10.66,0,0,0-1.92,1.56,16.92,16.92,0,0,0-1.49,1.78,22,22,0,0,0-1.13,2s0,0,0,0c.18-.28.33-.58.52-.86a7.57,7.57,0,0,1,.74-.87A9.68,9.68,0,0,1,22.3,9.2C22.7,9.05,24.64,8.49,23.86,7.71Z"/><path class="cls-9" d="M20.77,3.25c-.85,0-1.56.87-2,1.49a6.84,6.84,0,0,0-1.07,2.44,16.77,16.77,0,0,0-.74,5.26h0a13.84,13.84,0,0,1,1.53-4.95,9.72,9.72,0,0,1,1.22-2c.46-.58,1.16-1.06,1.4-1.79A.37.37,0,0,0,20.77,3.25Z"/><path class="cls-10" d="M24.27,4.66c-.42-.39-1-.12-1.45.11a5.94,5.94,0,0,0-1.48,1.1,7.78,7.78,0,0,0-1,1.23c-.14.2-.26.42-.38.63a5,5,0,0,0-.39.62s0,0,0,0a4.39,4.39,0,0,1,1-1,11.64,11.64,0,0,1,1.2-.77c.43-.25.88-.48,1.33-.69s.92-.35,1.19-.82A.38.38,0,0,0,24.27,4.66Z"/><path class="cls-10" d="M30,9.38a2.59,2.59,0,0,0-2-.56,9.69,9.69,0,0,0-2.45.37,14.53,14.53,0,0,0-2.26.89l-.74.37-.08.06a4.23,4.23,0,0,0-.41.33l.4-.11c.34-.12.67-.2,1-.29a18.36,18.36,0,0,1,3-.4,14.31,14.31,0,0,0,3.34-.27C30,9.73,30.12,9.52,30,9.38Z"/><path class="cls-9" d="M31.57,12.64a10.64,10.64,0,0,0-3.21-1,13.81,13.81,0,0,0-3.51.19,10.26,10.26,0,0,0-3.2,1,24.8,24.8,0,0,0-2.84,1.81s0,0,0,0a12.82,12.82,0,0,1,3.58-1.4,26,26,0,0,1,5.7-.53c1.12,0,2.23.09,3.34.2C31.62,13,31.74,12.71,31.57,12.64Z"/><path class="cls-10" d="M15.19,7.32a11,11,0,0,0-.95-3.06A10.47,10.47,0,0,0,12.45,1.5a8.1,8.1,0,0,0-1.12-1A2.38,2.38,0,0,0,9.93,0c-.2,0-.37.27-.2.41.33.29.64.59,1,.87a8.31,8.31,0,0,1,1.11,1,13.73,13.73,0,0,1,1.65,2.55,14.66,14.66,0,0,1,1.92,5.63s0,0,0,0A14,14,0,0,0,15.19,7.32Z"/><path class="cls-7" d="M16.67,3a.34.34,0,0,0-.38.13,2.48,2.48,0,0,0-.24,1.76c0,.14.06.26.06.39s0,.34,0,.51.06.6.08.9a22.48,22.48,0,0,1,0,3.76s.05,0,.05,0c.3-1.31.51-2.63.74-3.95.06-.3.09-.6.13-.91,0-.13,0-.26,0-.39a5.14,5.14,0,0,0,.06-.55C17.24,4.1,17.25,3.22,16.67,3Z"/><path class="cls-9" d="M18.37,3.66a1.63,1.63,0,0,0,.11-.23c0-.06,0-.12.05-.18.08-.32.19-.64.27-1,.13-.49.26-1.37-.47-1.44a.35.35,0,0,0-.33.21,1.93,1.93,0,0,0,.1,1.25A3.34,3.34,0,0,1,18.37,3.66Z"/><path class="cls-9" d="M15.23,11.52c0-.29-.06-.59-.11-.88a8.62,8.62,0,0,0-.69-2,10.6,10.6,0,0,0-1-1.7,4.22,4.22,0,0,0-1.46-1.39c-.17-.09-.31.16-.24.3.55,1.14,1.48,2,2.06,3.17.27.54.53,1.09.8,1.63a6,6,0,0,1,.72,1.69s.05,0,.05,0A4.79,4.79,0,0,0,15.23,11.52Z"/><path class="cls-9" d="M12.61,4.18c-.23-.29-.46-.62-.86-.57a.31.31,0,0,0-.24.37c.1.67,1.1.65,1.43,1.13,0,0,0,0,0,0A1.79,1.79,0,0,0,12.61,4.18Z"/><path class="cls-9" d="M11.79,9.61c-.19-.09-.34.2-.22.33a30.07,30.07,0,0,1,2.11,2.41,14.06,14.06,0,0,1,.9,1.37,13,13,0,0,1,.83,1.45s.06,0,.06,0A6.69,6.69,0,0,0,11.79,9.61Z"/><path class="cls-7" d="M13.24,9.59a6.14,6.14,0,0,0-1.91-2.77c-.85-.75-2-1.83-3.28-1.5a.36.36,0,0,0-.25.5,2.25,2.25,0,0,0,1.26.84,8.17,8.17,0,0,1,1.5.9l1.4,1a4.79,4.79,0,0,1,1.23,1.1S13.25,9.61,13.24,9.59Z"/><path class="cls-10" d="M16.43,12.37c0-.15-.23-.08-.27,0a3.93,3.93,0,0,0-.23,1.31,3.4,3.4,0,0,0,.05.71,2.2,2.2,0,0,1,.1.68s.05.06.08,0a.7.7,0,0,0,.09-.29c0-.29.07-.59.11-.88A4.88,4.88,0,0,0,16.43,12.37Z"/><path class="cls-8" d="M14.9,15.34c-.1-.19-.19-.38-.28-.57a5,5,0,0,0-.42-.6c-.25-.36-.51-.73-.79-1.07a11.83,11.83,0,0,0-2.11-1.95C9.85,10.07,8.1,8.9,6.23,8.94c-.14,0-.36.25-.18.36.33.19.67.34,1,.5s.81.41,1.23.59a15.92,15.92,0,0,1,2.46,1.43,20.75,20.75,0,0,1,2.15,1.61l1,.87a7.49,7.49,0,0,1,1,1.06S14.9,15.35,14.9,15.34Z"/><path class="cls-10" d="M10.48,9.14a5.94,5.94,0,0,0-1-.92A14.64,14.64,0,0,0,8,7.19a15.08,15.08,0,0,0-1.53-.83A2.45,2.45,0,0,0,4.8,6c-.15,0-.34.3-.16.42A6.82,6.82,0,0,0,6,7c.51.2,1,.42,1.54.65s1,.45,1.5.71a6.5,6.5,0,0,1,1.37.81S10.51,9.18,10.48,9.14Z"/><path class="cls-10" d="M14.41,15.51a2.27,2.27,0,0,0-.74-.77A12.91,12.91,0,0,0,12.38,14a6.25,6.25,0,0,0-1.52-.48,1.9,1.9,0,0,0-1.24-.09c-.15.08-.29.34-.11.47s.73.15,1.05.23c.48.12.95.24,1.42.39a9.24,9.24,0,0,1,1.24.46,6.1,6.1,0,0,0,.57.29,2.06,2.06,0,0,1,.6.28S14.41,15.51,14.41,15.51Z"/><path class="cls-7" d="M8.44,13.25c-.58-.1-1.14-.26-1.72-.35S5.54,12.75,5,12.7a5.35,5.35,0,0,0-3.43.66c-.19.13-.22.54.07.54a5.71,5.71,0,0,0,1.58-.33,11.07,11.07,0,0,1,1.72-.31c.58,0,1.18,0,1.77-.06s1.18.06,1.77.08A0,0,0,0,0,8.44,13.25Z"/><path class="cls-10" d="M10.43,12.45a15,15,0,0,0-1.37-.73c-.51-.19-1-.45-1.5-.62a9.94,9.94,0,0,0-1.43-.35,2.76,2.76,0,0,0-1.56,0c-.14.05-.24.35-.05.4a10,10,0,0,0,1.33.24c.52.09,1,.19,1.55.31,1,.24,2,.53,3,.77C10.43,12.47,10.44,12.46,10.43,12.45Z"/><path class="cls-9" d="M11.63,15.05c-.33-.05-.65-.16-1-.22s-.87-.17-1.31-.24a16.38,16.38,0,0,0-2.52-.22c-1.53,0-3.74.07-4.72,1.47-.14.2-.12.49.16.54a5.66,5.66,0,0,0,2.19-.52,19.87,19.87,0,0,1,2.39-.49c.81-.11,1.63-.21,2.45-.29.43,0,.88-.06,1.32-.06s.69.06,1,.06C11.64,15.08,11.65,15.05,11.63,15.05Z"/><path class="cls-10" d="M11.45,15.81a4.71,4.71,0,0,0-1.83-.18,3.65,3.65,0,0,0-2.16.88c-.19.18-.2.58.15.53a10.81,10.81,0,0,0,1.9-.62,11,11,0,0,1,1.93-.58S11.46,15.81,11.45,15.81Z"/><path class="cls-8" d="M10.25,17.14a26.66,26.66,0,0,0-2.69,1.17,12.61,12.61,0,0,0-2.63,1.85A9.92,9.92,0,0,0,3,22.58,7.24,7.24,0,0,0,2.37,24a2.59,2.59,0,0,0-.17,1.5.39.39,0,0,0,.63.15,3,3,0,0,0,.72-1.16c.17-.41.34-.82.53-1.22a12,12,0,0,1,1.55-2.31,16.74,16.74,0,0,1,4.63-3.78S10.27,17.13,10.25,17.14Z"/><path class="cls-10" d="M14.15,17.44a17.5,17.5,0,0,0-3.77,3.72A13.39,13.39,0,0,0,9,23.71a5.5,5.5,0,0,0-.57,2.67.22.22,0,0,0,.41.09A10.35,10.35,0,0,0,10,24.22a25.23,25.23,0,0,1,1.16-2.47c.4-.74.88-1.43,1.32-2.13a10.84,10.84,0,0,1,1.71-2.16S14.17,17.43,14.15,17.44Z"/><path class="cls-7" d="M10.13,19.69a15,15,0,0,0-2.58,2,6.72,6.72,0,0,0-1.76,3.05c-.12.5.52.52.71.15.5-1,1-1.88,1.56-2.79a11.58,11.58,0,0,1,2.09-2.43S10.15,19.67,10.13,19.69Z"/><path class="cls-10" d="M7.81,24.52a8,8,0,0,0-.94,1.66,6.51,6.51,0,0,0-.37,2.14c0,.33.44.21.5,0,.31-1.25.47-2.52.83-3.76C7.84,24.51,7.81,24.51,7.81,24.52Z"/><path class="cls-9" d="M13.62,16.8c-1.83.35-4.2.75-5.14,2.58a.22.22,0,0,0,.28.32,4.6,4.6,0,0,0,1.1-.76A12.93,12.93,0,0,1,11,18.1a11.15,11.15,0,0,1,2.65-1.27S13.64,16.79,13.62,16.8Z"/><path class="cls-10" d="M5.92,18.32a7.84,7.84,0,0,0-2.84,1.11,7,7,0,0,0-1.25,1.12,2,2,0,0,0-.64,1.37.26.26,0,0,0,.39.22,2.55,2.55,0,0,0,1-.85,13.16,13.16,0,0,1,1-1.1,10.59,10.59,0,0,1,2.37-1.85S5.94,18.32,5.92,18.32Z"/><path class="cls-9" d="M15.47,18.23s-.05,0-.06,0a10.72,10.72,0,0,0-1.1,4.53c0,.43.55.27.64,0A16.49,16.49,0,0,0,15.47,18.23Z"/><path class="cls-10" d="M16.29,17s0,0,0,0c-.08.6-.21,1.18-.27,1.79s-.14,1.32-.18,2a19.1,19.1,0,0,0,0,4.07c.05.27.4.09.45-.09a10.18,10.18,0,0,0,.22-2c0-.67.08-1.34.09-2A33.73,33.73,0,0,0,16.29,17Z"/><path class="cls-7" d="M14.08,20a30,30,0,0,0-1.42,2.76,11.26,11.26,0,0,0-.47,1.46A6.53,6.53,0,0,0,12,25.78c0,.35.46.28.57,0A18.74,18.74,0,0,0,13.41,23c.14-.5.21-1,.32-1.53S14,20.5,14.1,20C14.1,20,14.09,20,14.08,20Z"/><path class="cls-9" d="M10.55,24.78c-.09.16-.18.33-.26.5A4,4,0,0,0,9.7,28a.29.29,0,0,0,.51,0,7.43,7.43,0,0,0,.9-2.7c.13-.44.25-.89.37-1.34.06-.23.2-.51.27-.78C11.37,23.73,10.94,24.24,10.55,24.78Z"/><path class="cls-10" d="M14.67,26.61c0-.66-.05-1.33-.08-2,0-.05-.05,0-.06,0a9.76,9.76,0,0,0-.63,4.2c.06.38.56.11.62-.13A7.63,7.63,0,0,0,14.67,26.61Z"/><path class="cls-9" d="M15.4,16.92a16.76,16.76,0,0,0-1.25,1.13,3.76,3.76,0,0,0-.83,1.45c-.06.2.2.27.31.12.28-.41.5-.86.76-1.29s.72-.9,1-1.39C15.44,16.92,15.42,16.9,15.4,16.92Z"/><path class="cls-9" d="M5.48,17a6.52,6.52,0,0,0-1.89.45,3.87,3.87,0,0,0-1.94,1.27c-.15.19-.08.5.21.46a4.15,4.15,0,0,0,1.77-1A8.32,8.32,0,0,1,5.48,17,0,0,0,0,0,5.48,17Z"/><path class="cls-7" d="M19.41,22.41c-.2-.72-.42-1.43-.67-2.13a13.39,13.39,0,0,0-.92-2,5.44,5.44,0,0,0-.61-.84c-.1-.11-.18-.24-.28-.36s-.24-.19-.3-.32,0,0,0,0a.42.42,0,0,0,.1.2,3.27,3.27,0,0,1,.24.5c.13.32.23.66.33,1,.23.72.53,1.43.76,2.15s.41,1.34.62,2,.38,1.37.65,2c.09.2.35.06.35-.12A6.65,6.65,0,0,0,19.41,22.41Z"/><path class="cls-10" d="M22.49,25.89c-.25-.66-.52-1.29-.83-1.92s-.58-1.16-.91-1.7a6.48,6.48,0,0,0-.56-.81c.21.7.33,1.45.52,2.16.06.22.13.44.2.67.21.63.44,1.26.66,1.88a4.84,4.84,0,0,0,.81,1.66.2.2,0,0,0,.34-.12A3.54,3.54,0,0,0,22.49,25.89Z"/><path class="cls-9" d="M18,31.72c.15.22.37.38.6.11a1.67,1.67,0,0,0,.18-.28,9.43,9.43,0,0,0,.06-2.05,29.91,29.91,0,0,0-.28-3.66,22,22,0,0,0-1-3.36,6.43,6.43,0,0,1,0,1.81c0,.63,0,1.26,0,1.89a31.78,31.78,0,0,0,.15,3.52c0,.48.07,1,.11,1.44A2,2,0,0,0,18,31.72Z"/><path class="cls-10" d="M23.84,24.78a6.13,6.13,0,0,0-1-2.35c-.47-.68-1-1.35-1.46-2a14.6,14.6,0,0,0-1.76-1.93,6.48,6.48,0,0,0-2.12-1.42,0,0,0,0,0,0,0,8.2,8.2,0,0,1,1.69,1.83c.55.7,1,1.45,1.57,2.16s.87,1.21,1.29,1.82.89,1.45,1.39,2.14C23.59,25.26,23.89,25,23.84,24.78Z"/><path class="cls-9" d="M27.12,26.47a8.59,8.59,0,0,0-.9-2.35A14.67,14.67,0,0,0,24,21.17a11.3,11.3,0,0,0-2.77-2s0,0,0,0c.24.25.52.45.75.71a37.11,37.11,0,0,1,3.51,4.82,11.16,11.16,0,0,0,1.42,1.93C27,26.81,27.16,26.6,27.12,26.47Z"/><path class="cls-10" d="M30.94,16.21a6.05,6.05,0,0,0-2.86-1.31,16.25,16.25,0,0,0-6.55-.22,11.42,11.42,0,0,0-3.07,1s0,0,0,0a13.12,13.12,0,0,1,6.26-.26c1,.14,2,.33,3,.56a25.73,25.73,0,0,0,3,.69C30.94,16.68,31.12,16.36,30.94,16.21Z"/><path class="cls-10" d="M32.16,19.75c0-.64-.63-.94-1.13-1.22a14.31,14.31,0,0,0-2-.91,18,18,0,0,0-2-.61c-.66-.16-1.34-.34-2-.47,0,0,0,0,0,0a24.56,24.56,0,0,1,3.6,1.58,16.56,16.56,0,0,1,1.58.91C30.39,19.17,32.23,20.65,32.16,19.75Z"/><path class="cls-9" d="M28.21,19.52a11.73,11.73,0,0,0-4.53-2.66,19.69,19.69,0,0,0-2.49-.62,7,7,0,0,0-1.29-.14,2,2,0,0,0-.85.09s0,0,0,0a2.71,2.71,0,0,1,1.08.22c.38.12.76.24,1.13.39.76.31,1.53.57,2.28.9,1.51.67,3,1.4,4.51,2C28.19,19.82,28.31,19.62,28.21,19.52Z"/><path class="cls-8" d="M28.16,22.32a5,5,0,0,0-1.83-1.88,18.54,18.54,0,0,0-2.1-1.38,14.55,14.55,0,0,0-4.88-1.92s0,0,0,0a20.22,20.22,0,0,1,2.14,1.17c.76.41,1.48.85,2.22,1.27a18.63,18.63,0,0,1,2,1.37c.35.27.72.53,1.05.82a3.54,3.54,0,0,0,1.1.79C28,22.64,28.22,22.46,28.16,22.32Z"/><path class="cls-9" d="M31.87,25.28a3.1,3.1,0,0,0-.39-1.14,9,9,0,0,0-1.41-2.05,5.9,5.9,0,0,0-3-1.93s0,0,0,0a8.11,8.11,0,0,1,1.53,1.67c.64.77,1.33,1.51,1.93,2.33.22.29.79,1.29,1.21,1.24A.14.14,0,0,0,31.87,25.28Z"/><path class="cls-10" d="M28.58,25.31a13.88,13.88,0,0,0-1.2-1.44A11.92,11.92,0,0,0,26,22.68s-.05,0,0,0A12.34,12.34,0,0,1,27,24c.34.51.65,1,.94,1.58.57,1.05,1.07,2.14,1.71,3.14.14.22.46,0,.45-.21A7,7,0,0,0,28.58,25.31Z"/><path class="cls-7" d="M16.18,28.51c-.05-.29-.11-.56-.18-.85s-.07-.47-.14-.69c0-.07-.11,0-.11,0a4.58,4.58,0,0,1-.13.74c-.06.3-.08.6-.12.9a2.9,2.9,0,0,0,.1,1.6c.09.22.43.06.49-.1A3.1,3.1,0,0,0,16.18,28.51Z"/><path class="cls-8" d="M33.63,15.44c-.08-.85-1.15-1.17-1.84-1.35a9.59,9.59,0,0,0-1.41-.21,5.65,5.65,0,0,0-1.3,0s0,0,0,.05a17.66,17.66,0,0,1,2.19.95,8.21,8.21,0,0,1,1,.51,1.93,1.93,0,0,0,1,.38C33.47,15.75,33.65,15.62,33.63,15.44Z"/><path class="cls-10" d="M25.25,10.85a2.58,2.58,0,0,0-.92,0,4.33,4.33,0,0,0-1.37.65c.73-.19,1.52-.11,2.25-.33C25.36,11.13,25.45,10.89,25.25,10.85Z"/></g></g></g></g></svg>