<svg xmlns="http://www.w3.org/2000/svg" viewBox="0 0 53.15 51.13"><defs><style>.cls-1{isolation:isolate;}.cls-2{mix-blend-mode:hard-light;}.cls-3{fill:#00b2ea;}.cls-4{fill:#cd4492;}.cls-5{fill:#566bb1;}.cls-6{fill:#7f5ba2;}.cls-7{fill:#0064b0;}.cls-8{fill:#cf0662;}.cls-9{fill:#6bc4ef;}.cls-10{fill:#00a1d5;}.cls-11{fill:#cbef6b;}.cls-12{fill:#acd500;}.cls-13{fill:#60bcff;}.cls-14{fill:#0092de;}.cls-15{fill:#ff7b8c;}.cls-16{fill:#ff1042;}</style></defs><g class="cls-1"><g id="Capa_2" data-name="Capa 2"><g id="Layer_1" data-name="Layer 1"><g class="cls-2"><path class="cls-3" d="M17.11,1.77l.09.16c.05.11.14.26.23.46s.23.43.36.71.3.59.46.93.34.71.52,1.11l.56,1.24.59,1.34L20.5,9.1c.2.47.39.93.57,1.39s.37.92.54,1.35l.48,1.27c.16.41.29.79.42,1.15s.24.68.34,1,.18.55.25.76.12.37.16.48,0,.18,0,.18l-.09-.16c0-.11-.13-.26-.23-.46s-.23-.44-.36-.71l-.46-.93-.52-1.11L21.09,12l-.59-1.33c-.19-.46-.38-.93-.58-1.39l-.57-1.39c-.19-.46-.36-.92-.53-1.35s-.34-.87-.49-1.28l-.42-1.14c-.13-.36-.24-.68-.34-1l-.25-.76-.16-.49Z"/><path class="cls-4" d="M26,2.07s0,.08,0,.21V2.9c0,.52,0,1.27,0,2.18,0,.44,0,.94,0,1.45s0,1.06,0,1.63,0,1.14,0,1.73,0,1.19-.05,1.8-.05,1.2-.07,1.79-.05,1.17-.07,1.73c-.05,1.13-.1,2.18-.15,3.08s-.1,1.65-.13,2.18c0,.26,0,.47,0,.61s0,.21,0,.21v-.82c0-.53,0-1.28,0-2.18s0-2,0-3.08c0-.57,0-1.15.05-1.74s0-1.19.05-1.8l.06-1.79c0-.59.05-1.17.08-1.73s0-1.11.07-1.63,0-1,.08-1.45c0-.9.09-1.65.12-2.18,0-.26,0-.46.05-.61S26,2.07,26,2.07Z"/><path class="cls-5" d="M33.48.15l0,.12c0,.08-.05.19-.1.34s-.21.7-.37,1.19-.38,1.05-.61,1.65q-.16.46-.36.93l-.39,1-.42.94c-.13.31-.27.61-.41.9-.27.59-.54,1.13-.78,1.59s-.45.84-.6,1.1-.14.24-.18.31l-.07.11,0-.12c0-.08.05-.2.09-.34.09-.29.22-.7.38-1.19S30,7.58,30.27,7c.12-.3.24-.61.37-.92s.26-.63.39-1,.27-.63.41-.94l.41-.9c.28-.59.55-1.13.79-1.59s.45-.84.6-1.1.13-.24.17-.31Z"/><path class="cls-3" d="M35.14,6.46l-.08.15L34.85,7c-.19.35-.46.86-.8,1.46s-.75,1.31-1.19,2c-.22.37-.45.76-.69,1.14s-.49.77-.74,1.16-.49.78-.74,1.16L30,15.1c-.49.72-.95,1.38-1.35,1.94s-.76,1-1,1.35l-.3.37-.1.14a1.37,1.37,0,0,1,.07-.16l.22-.41c.18-.36.46-.86.79-1.47s.75-1.3,1.19-2c.22-.37.45-.75.7-1.13s.48-.78.73-1.17l.74-1.15.74-1.11c.49-.72.95-1.38,1.36-1.94s.75-1,1-1.35c.12-.17.22-.29.29-.38Z"/><path class="cls-4" d="M42.12,4.22,42,4.34l-.27.36c-.23.29-.57.72-1,1.22S39.86,7,39.32,7.61l-.84.94-.88,1-.89.94-.88.91c-.58.58-1.12,1.11-1.6,1.56s-.88.83-1.17,1.08l-.33.3-.12.1.09-.12.27-.36,1-1.23c.42-.5.91-1.08,1.45-1.69.27-.3.55-.62.84-.93l.88-1L38,8.17c.3-.31.6-.61.88-.91.58-.58,1.12-1.11,1.6-1.57s.88-.82,1.16-1.08L42,4.32Z"/><path class="cls-4" d="M40,10.06l-.13.14-.37.39c-.32.34-.76.82-1.32,1.39l-.88.92-1,1L35.24,15l-1.12,1.12L33,17.24c-.37.37-.74.72-1.1,1.07l-2,1.88-1.4,1.31-.4.36L28,22l.13-.14.36-.39,1.32-1.39c.55-.58,1.2-1.24,1.89-1.95.35-.35.71-.72,1.08-1.08l1.12-1.12L35,14.81l1.09-1.07,1-1c.33-.32.65-.61.93-.89.58-.55,1.07-1,1.41-1.31l.4-.36Z"/><path class="cls-3" d="M49.32,10.71l-.15.1-.45.28-.69.42c-.26.16-.56.35-.9.54l-1.07.63-1.21.67-1.3.72-1.36.72-1.36.7-1.32.67c-.43.22-.86.42-1.26.61l-1.12.53-1,.44-.75.33-.48.21-.18.07.16-.11.44-.28.69-.42L37,17c.33-.19.69-.41,1.08-.62s.78-.45,1.21-.68l1.3-.72c.44-.24.89-.48,1.35-.71l1.36-.71,1.33-.67,1.25-.61L47,11.75l1-.44.74-.33.49-.2Z"/><path class="cls-6" d="M30.51,22.94l.2-.1c.13-.06.31-.16.56-.27l.88-.41,1.15-.52,1.36-.6,1.53-.65c.53-.22,1.08-.46,1.64-.68l1.7-.69,1.71-.67c.56-.23,1.12-.43,1.66-.64l1.56-.58,1.41-.5c.43-.16.83-.29,1.19-.41s.67-.23.93-.31l.59-.19.22-.07-.2.1L48,16l-.88.41L46,17l-1.37.6-1.52.65c-.54.22-1.08.46-1.64.68l-1.71.69-1.7.67-1.67.63-1.56.58c-.49.19-1,.35-1.4.51l-1.2.41-.92.31-.6.19Z"/><path class="cls-4" d="M28.93,24.59h.23l.63,0,2.25.12,1.51.09,1.68.12,1.79.12,1.86.14,1.85.15,1.79.15c1.16.1,2.25.2,3.18.3l2.24.23.63.07.23,0h-.23l-.63,0L45.68,26l-3.18-.2-1.8-.13-1.85-.14L37,25.36l-1.79-.15-1.68-.15L32,24.91l-2.25-.23-.62-.07Z"/><path class="cls-3" d="M37.76,22.94l.12,0,.35-.08,1.23-.24c.52-.09,1.12-.19,1.76-.28l1-.13,1-.11,1-.1,1-.08c.65-.05,1.26-.07,1.78-.09s1,0,1.26,0h.49l-.13,0-.34.08-1.24.24c-.51.09-1.11.19-1.76.28l-1,.13-1,.11-1,.1-1,.08-1.78.09c-.52,0-1,0-1.26,0h-.48Z"/><path class="cls-5" d="M30.51,26.73l.17,0,.49.06,1.72.27c.71.12,1.54.27,2.42.44l1.36.28,1.4.3,1.39.32,1.35.33c.87.22,1.68.43,2.38.63l1.67.48.46.15.16.06-.17,0L44.83,30l-1.73-.26c-.71-.12-1.54-.28-2.42-.45L39.32,29l-1.4-.3-1.39-.32-1.35-.33c-.87-.22-1.68-.43-2.37-.63s-1.27-.36-1.67-.49l-.47-.14Z"/><path class="cls-4" d="M36.45,29.58l.16,0,.45.11c.39.1.93.24,1.58.43s1.42.4,2.23.65l1.24.4,1.27.43,1.27.44,1.23.44,2.15.84c.63.25,1.14.47,1.51.63l.41.19.15.07-.16,0-.45-.11c-.38-.09-.93-.23-1.58-.41s-1.41-.41-2.22-.67l-1.24-.39-1.28-.43-1.27-.44-1.22-.45c-.79-.29-1.53-.58-2.16-.83L37,29.84l-.42-.19Z"/><path class="cls-7" d="M31.66,28.68l.18.1.47.28,1.69,1,1.12.7,1.24.77,1.33.84,1.37.87,1.36.88,1.31.86c.85.56,1.64,1.08,2.31,1.54l1.62,1.11.45.31.16.12L46.1,38l-.47-.28c-.41-.25-1-.59-1.69-1s-1.51-.92-2.37-1.46l-1.32-.84-1.37-.87-1.36-.88-1.31-.86L35,31l-1.09-.73-1.62-1.11-.46-.32Z"/><path class="cls-3" d="M27.46,26.73l.17.16c.11.09.27.24.47.43s.45.41.73.68.59.56.92.89.71.68,1.09,1.06l1.2,1.2,1.27,1.3L34.6,33.8l1.29,1.36,1.22,1.33c.41.43.78.85,1.14,1.25s.7.78,1,1.14.59.67.83,1,.47.55.64.76.32.37.41.49l.14.17-.17-.15-.47-.43L39.91,40c-.27-.26-.59-.56-.92-.89L37.9,38l-1.2-1.2-1.27-1.29c-.42-.45-.86-.9-1.29-1.35l-1.28-1.36c-.43-.45-.83-.9-1.23-1.33s-.78-.86-1.13-1.26-.7-.78-1-1.13l-.84-1L28,27.4l-.41-.49Z"/><path class="cls-3" d="M26.78,28.41l.1.17.27.5c.11.22.25.48.41.78s.33.64.51,1,.39.78.6,1.21.43.88.65,1.35L30,34.9c.22.5.45,1,.68,1.51s.45,1,.67,1.53L32,39.41c.21.48.4,1,.57,1.39s.35.86.5,1.25l.41,1.06c.12.32.22.6.3.83l.19.53c0,.12.07.19.07.19a1.85,1.85,0,0,1-.1-.18c-.07-.11-.16-.28-.27-.5s-.26-.47-.41-.78l-.53-1c-.18-.38-.38-.78-.59-1.21l-.65-1.36-.68-1.46c-.23-.5-.45-1-.68-1.51l-.66-1.52c-.22-.5-.43-1-.63-1.48s-.39-.94-.57-1.39-.35-.86-.5-1.25L27.33,30c-.11-.32-.21-.59-.3-.82s-.14-.41-.19-.53Z"/><path class="cls-4" d="M32.72,35.62l.12.14.34.4c.15.18.33.39.52.64s.43.52.67.83.5.63.77,1,.56.72.84,1.11.6.78.9,1.2l.91,1.25c.29.42.59.84.89,1.25s.56.84.84,1.23l.77,1.16q.38.55.69,1l.57.89.42.7.27.44.09.17-.12-.14c-.08-.1-.2-.23-.34-.41s-.33-.38-.52-.63-.43-.52-.67-.83-.5-.63-.77-1-.56-.72-.85-1.11l-.89-1.2-.91-1.25-.89-1.26c-.29-.41-.57-.83-.84-1.23s-.53-.79-.78-1.16-.47-.71-.68-1l-.57-.9-.42-.69-.27-.45Z"/><path class="cls-4" d="M27.46,34.77l.05.17c0,.11.09.28.14.49.12.41.29,1,.48,1.72.09.36.2.75.31,1.16s.21.84.33,1.29.23.91.35,1.39.23.95.35,1.43.23,1,.34,1.43.21.94.32,1.39c.21.9.39,1.75.54,2.47S31,49,31,49.47l.09.49,0,.18,0-.18c0-.11-.08-.27-.14-.48-.12-.42-.29-1-.48-1.73s-.41-1.55-.64-2.45c-.11-.45-.23-.91-.35-1.38s-.23-1-.35-1.44-.23-.95-.34-1.43-.22-.94-.32-1.39l-.29-1.3c-.09-.42-.18-.81-.26-1.17-.15-.72-.27-1.33-.36-1.75,0-.21-.07-.38-.1-.49Z"/><path class="cls-6" d="M25.31,26.13a2.18,2.18,0,0,0,0,.24c0,.15,0,.38.05.66s.05.63.07,1,.06.84.08,1.33,0,1,.07,1.58,0,1.15.07,1.76,0,1.25,0,1.89,0,1.29,0,2,0,1.3,0,1.94,0,1.28,0,1.89,0,1.2,0,1.76,0,1.09,0,1.58,0,.94,0,1.34,0,.74-.05,1,0,.5,0,.66,0,.23,0,.23l0-.23c0-.15,0-.38-.05-.66s-.05-.63-.08-1-.05-.84-.07-1.33-.06-1-.07-1.58-.05-1.15-.07-1.77,0-1.24-.05-1.88,0-1.29,0-2,0-1.3,0-1.94,0-1.28,0-1.89,0-1.2,0-1.76,0-1.09,0-1.58,0-.94,0-1.34,0-.74.05-1,0-.51,0-.66S25.31,26.13,25.31,26.13Z"/><path class="cls-4" d="M24.05,30.08v.09a1.89,1.89,0,0,1,0,.24c0,.22,0,.53,0,.89s-.05.79-.1,1.24c0,.23-.05.46-.08.7s-.07.47-.1.71-.08.48-.13.71-.09.47-.13.69c-.09.44-.2.86-.29,1.21s-.19.65-.26.86-.06.17-.08.23l0,.09a.41.41,0,0,1,0-.09V37.4c0-.22,0-.53,0-.89a12.08,12.08,0,0,1,.1-1.24c0-.22.05-.45.08-.69s.07-.48.1-.72l.12-.71c0-.24.09-.46.14-.69.09-.44.19-.86.29-1.21l.25-.85c0-.1.07-.18.09-.24Z"/><path class="cls-8" d="M23.78,38.82a.66.66,0,0,1,0,.11c0,.07,0,.18,0,.31s0,.66.06,1.13,0,1,0,1.59c0,.29,0,.59,0,.89s0,.62,0,.92,0,.62-.05.92,0,.61-.07.9c0,.57-.11,1.11-.17,1.58s-.13.84-.18,1.11a2.86,2.86,0,0,1-.06.31c0,.07,0,.11,0,.11a.87.87,0,0,0,0-.11c0-.07,0-.18,0-.32s-.05-.65-.07-1.12,0-1,0-1.59c0-.29,0-.59,0-.89l0-.92.06-.93c0-.3,0-.6.07-.89.05-.58.11-1.11.17-1.58s.12-.84.17-1.11.05-.24.06-.32A.42.42,0,0,0,23.78,38.82Z"/><path class="cls-5" d="M22.84,30.08a1.52,1.52,0,0,0-.07.18l-.21.52c-.18.44-.42,1.08-.74,1.84-.16.37-.33.78-.51,1.22l-.57,1.36c-.21.47-.41,1-.62,1.45l-.66,1.5-.66,1.49c-.21.49-.44,1-.65,1.45-.42.93-.82,1.8-1.17,2.54s-.65,1.36-.85,1.8c-.1.21-.19.38-.24.5l-.09.17.07-.18.2-.51c.18-.45.43-1.08.74-1.84L17.9,41c.2-.47.4-1,.62-1.45s.44-1,.65-1.5.45-1,.67-1.49l.64-1.44.62-1.35.55-1.2c.35-.74.65-1.36.86-1.79.1-.22.19-.39.24-.5Z"/><path class="cls-5" d="M21.26,38.52s0,0,0,.14,0,.23-.08.4c-.06.35-.17.84-.3,1.43s-.31,1.27-.51,2c-.1.37-.2.74-.31,1.12l-.34,1.15-.36,1.15L19,47c-.24.72-.48,1.38-.69,1.95s-.4,1-.54,1.36a3.35,3.35,0,0,1-.16.38l-.06.14,0-.15c0-.09,0-.23.07-.4.07-.34.17-.84.31-1.43s.31-1.27.5-2c.1-.36.21-.74.32-1.12s.22-.76.33-1.15l.36-1.15c.12-.38.24-.75.36-1.1.25-.72.48-1.39.69-2s.4-1,.54-1.37l.16-.38Z"/><path class="cls-3" d="M21.89,27.53l-.15.18-.42.48c-.19.21-.41.47-.67.75s-.55.62-.88,1L18.72,31c-.37.4-.76.82-1.18,1.25l-1.28,1.32L14.92,35l-1.35,1.34c-.44.44-.89.87-1.32,1.28s-.85.82-1.24,1.2L9.88,39.84l-1,.89-.75.67-.49.43L7.5,42l.14-.18.43-.49.67-.75.87-1,1.06-1.13c.37-.4.76-.82,1.18-1.25s.84-.88,1.28-1.32l1.33-1.36,1.36-1.34,1.32-1.29,1.24-1.19,1.13-1.06,1-.88.75-.68.49-.43Z"/><path class="cls-6" d="M19,26.13l-.16.09-.47.23-.74.35-.95.45c-.36.16-.74.34-1.15.51l-1.27.56-1.38.58-1.43.58L10,30c-.47.19-.94.36-1.4.53s-.89.34-1.31.49l-1.18.42-1,.33c-.3.11-.56.19-.78.26l-.5.15-.18.06.17-.09L4.3,32,5,31.6l1-.44c.35-.16.73-.34,1.14-.51l1.28-.56,1.37-.58,1.43-.58,1.43-.56,1.4-.54,1.31-.48,1.18-.41,1-.34.78-.26.5-.15Z"/><path class="cls-4" d="M4.77,36.17s.67-.45,1.71-1.1l.84-.52L8.27,34l1-.6,1.05-.62,1.06-.61c.34-.21.69-.4,1-.59.67-.38,1.3-.72,1.84-1,1.08-.59,1.81-1,1.81-1s-.68.45-1.72,1.1l-1.78,1.1-1,.6c-.34.21-.69.42-1,.62l-1.05.61-1,.58c-.33.2-.66.38-1,.55l-.86.47C5.5,35.8,4.77,36.17,4.77,36.17Z"/><path class="cls-7" d="M1.61,24.59h.9l2.37,0H8.23l1.89,0,2,0,1.95,0,1.89,0,3.35.09,2.36.09.67,0,.23,0h-.9l-2.36,0H14l-2,0-1.94,0-1.89,0-1.77,0-1.58-.05-2.37-.09-.66,0Z"/><path class="cls-4" d="M1.61,18.9l.18,0L2.3,19l.79.15c.31.05.65.12,1,.2l1.2.26,1.34.3,1.43.34,1.47.37L11,21l1.42.39,1.31.38,1.17.36,1,.31.76.26.49.17.17.06-.18,0-.51-.09-.79-.14-1-.21-1.21-.25-1.33-.31c-.46-.11-.94-.21-1.43-.34l-1.47-.36-1.46-.39-1.41-.39-1.32-.38L4,19.69l-1-.31-.76-.26L1.78,19Z"/><path class="cls-5" d="M3.66,14.4l.2.09.55.25,2,.9,1.3.61,1.45.69,1.54.74,1.59.78,1.59.79,1.53.77,2.71,1.38,1.9,1,.53.29.18.1-.19-.09-.55-.25c-.48-.21-1.15-.51-2-.89l-2.75-1.31-1.54-.74-1.59-.78-1.59-.79L9,17.17l-1.42-.72-1.28-.66-1.9-1-.53-.29Z"/><path class="cls-3" d="M7,10.28l.09.05.25.18.85.64c.35.27.74.6,1.15.95l.63.56c.22.19.43.39.64.59l.63.6.59.59c.38.39.73.77,1,1.09l.69.8.18.24a.45.45,0,0,0,.06.08l-.09-.06-.25-.17-.85-.64c-.34-.28-.74-.6-1.15-1l-.63-.55-.64-.59c-.21-.2-.42-.4-.62-.61s-.41-.39-.6-.59c-.38-.39-.72-.76-1-1.08s-.52-.61-.68-.81l-.18-.23Z"/><path class="cls-4" d="M13.07,11.68l.13.11.35.31c.31.27.74.66,1.25,1.13s1.1,1,1.71,1.65l.95.95,1,1c.32.33.64.67.95,1s.61.65.9,1c.59.64,1.12,1.24,1.58,1.77s.81,1,1.07,1.28l.29.37.1.14-.13-.11c-.08-.08-.2-.18-.36-.31s-.73-.66-1.24-1.14-1.1-1-1.72-1.65c-.31-.3-.62-.62-.94-.95l-1-1c-.32-.34-.64-.67-.95-1l-.91-1C15.52,14.6,15,14,14.53,13.47s-.82-1-1.07-1.29l-.29-.37A1,1,0,0,1,13.07,11.68Z"/><path class="cls-5" d="M11.33,4.72a1.76,1.76,0,0,1,.14.17l.4.48c.34.42.83,1,1.4,1.74.3.36.6.76.94,1.17l1,1.31L16.33,11l1.12,1.46,1.11,1.46,1.08,1.42,1.88,2.54c.54.74,1,1.37,1.3,1.81.16.21.28.39.36.51a1.48,1.48,0,0,1,.13.18l-.14-.18-.4-.48c-.34-.42-.83-1-1.4-1.74s-1.25-1.57-2-2.48l-1.1-1.41c-.36-.48-.74-1-1.12-1.46l-1.11-1.46L15,9.75c-.35-.47-.68-.91-1-1.34s-.62-.82-.89-1.2c-.55-.74-1-1.37-1.31-1.81l-.36-.5Z"/><path class="cls-6" d="M16.27,6.37l.05.06a1.23,1.23,0,0,1,.15.16L17,7.2c.19.26.41.57.62.9l.33.53.32.54.3.56c.1.18.19.36.28.54.17.35.32.69.45,1s.21.55.27.73a2,2,0,0,0,.07.2l0,.08-.06-.06L19.41,12a7.31,7.31,0,0,1-.48-.61c-.2-.26-.41-.57-.62-.9L18,10l-.32-.54c-.1-.19-.21-.38-.3-.56s-.19-.37-.28-.54c-.17-.36-.33-.69-.45-1s-.21-.55-.27-.72l-.07-.21A.31.31,0,0,0,16.27,6.37Z"/><path class="cls-6" d="M19,33.37a.55.55,0,0,1,0,.1c0,.07-.07.17-.13.29s-.27.58-.48,1-.47.87-.75,1.36l-.45.75c-.15.25-.32.51-.48.76s-.32.51-.49.76-.33.49-.5.73c-.32.47-.63.89-.91,1.26l-.69.87-.21.23a.3.3,0,0,1-.07.08.39.39,0,0,0,0-.1l.13-.28c.11-.24.28-.58.49-1s.46-.87.75-1.36c.14-.24.29-.5.45-.75l.47-.77c.17-.25.33-.51.5-.75s.33-.49.49-.73c.32-.46.64-.9.91-1.26l.69-.87.21-.23Z"/><polygon class="cls-9" points="46.09 6.49 46.91 7.56 48.29 7.52 47.47 8.59 47.93 9.83 46.62 9.42 45.52 10.21 45.52 8.9 44.38 8.15 45.7 7.75 46.09 6.49"/><polygon class="cls-10" points="46.09 6.49 46.79 7.68 48.29 7.52 47.19 8.57 47.93 9.83 46.59 9.2 45.52 10.21 45.7 8.79 44.38 8.15 45.88 7.85 46.09 6.49"/><polygon class="cls-9" points="46.12 6.82 46 7.93 44.65 8.19 46.12 8.02 46.12 6.82"/><polygon class="cls-9" points="46.34 9.37 46.6 9.12 47.63 9.59 46.62 9.03 46.34 9.37"/><polygon class="cls-11" points="7.94 25.72 8.38 26.3 9.14 26.29 8.69 26.86 8.94 27.54 8.23 27.32 7.63 27.75 7.63 27.04 7.01 26.63 7.73 26.41 7.94 25.72"/><polygon class="cls-12" points="7.94 25.72 8.32 26.37 9.14 26.29 8.54 26.86 8.94 27.54 8.21 27.2 7.63 27.75 7.73 26.98 7.01 26.63 7.82 26.46 7.94 25.72"/><polygon class="cls-11" points="7.95 25.9 7.89 26.5 7.15 26.65 7.95 26.56 7.95 25.9"/><polygon class="cls-11" points="8.07 27.29 8.22 27.16 8.78 27.41 8.23 27.1 8.07 27.29"/><polygon class="cls-11" points="45.8 18.89 46.25 19.48 47 19.46 46.56 20.04 46.81 20.71 46.09 20.49 45.49 20.92 45.49 20.21 44.87 19.8 45.59 19.58 45.8 18.89"/><polygon class="cls-12" points="45.8 18.89 46.19 19.54 47 19.46 46.4 20.03 46.81 20.71 46.08 20.37 45.49 20.92 45.59 20.15 44.87 19.8 45.69 19.64 45.8 18.89"/><polygon class="cls-11" points="45.81 19.08 45.75 19.68 45.02 19.82 45.81 19.73 45.81 19.08"/><polygon class="cls-11" points="45.94 20.46 46.08 20.33 46.64 20.59 46.09 20.28 45.94 20.46"/><polygon class="cls-11" points="19.96 47.01 20.8 48.1 22.23 48.08 21.39 49.17 21.87 50.46 20.5 50.03 19.36 50.86 19.37 49.5 18.19 48.73 19.55 48.31 19.96 47.01"/><polygon class="cls-12" points="19.96 47.01 20.68 48.24 22.23 48.08 21.09 49.16 21.87 50.46 20.48 49.81 19.36 50.86 19.55 49.39 18.19 48.73 19.74 48.41 19.96 47.01"/><polygon class="cls-11" points="19.98 47.35 19.86 48.49 18.47 48.76 19.98 48.59 19.98 47.35"/><polygon class="cls-11" points="20.21 49.98 20.49 49.73 21.55 50.22 20.5 49.63 20.21 49.98"/><polygon class="cls-11" points="20.55 2.69 21 3.27 21.75 3.25 21.3 3.83 21.55 4.5 20.84 4.28 20.24 4.72 20.24 4 19.62 3.59 20.34 3.37 20.55 2.69"/><polygon class="cls-12" points="20.55 2.69 20.93 3.34 21.75 3.25 21.15 3.82 21.55 4.5 20.82 4.17 20.24 4.72 20.34 3.94 19.62 3.59 20.43 3.43 20.55 2.69"/><polygon class="cls-11" points="20.56 2.87 20.5 3.47 19.77 3.61 20.56 3.52 20.56 2.87"/><polygon class="cls-11" points="20.68 4.25 20.83 4.12 21.39 4.38 20.84 4.07 20.68 4.25"/><polygon class="cls-13" points="6.53 37.1 6.88 38.35 8.17 38.77 7.03 39.48 7 40.78 5.94 39.97 4.63 40.34 5.12 39.13 4.34 38.07 5.7 38.13 6.53 37.1"/><polygon class="cls-14" points="6.53 37.1 6.73 38.43 8.17 38.77 6.77 39.38 7 40.78 6 39.76 4.63 40.34 5.32 39.09 4.34 38.07 5.83 38.28 6.53 37.1"/><polygon class="cls-13" points="6.42 37.41 5.91 38.39 4.57 38.19 5.99 38.52 6.42 37.41"/><polygon class="cls-13" points="5.7 39.83 6.03 39.69 6.81 40.47 6.08 39.61 5.7 39.83"/><polygon class="cls-15" points="28.63 10.84 28.9 11.81 29.9 12.14 29.02 12.69 29 13.7 28.17 13.07 27.16 13.36 27.53 12.42 26.93 11.6 27.98 11.64 28.63 10.84"/><polygon class="cls-16" points="28.63 10.84 28.79 11.87 29.9 12.14 28.82 12.61 29 13.7 28.21 12.91 27.16 13.36 27.69 12.39 26.93 11.6 28.08 11.76 28.63 10.84"/><polygon class="cls-15" points="28.54 11.08 28.15 11.85 27.11 11.69 28.2 11.94 28.54 11.08"/><polygon class="cls-15" points="27.98 12.96 28.24 12.86 28.84 13.45 28.28 12.79 27.98 12.96"/><polygon class="cls-15" points="37.09 44.59 37.29 45.28 38 45.51 37.37 45.91 37.35 46.63 36.76 46.18 36.04 46.38 36.31 45.71 35.88 45.12 36.63 45.16 37.09 44.59"/><polygon class="cls-16" points="37.09 44.59 37.2 45.32 38 45.51 37.22 45.85 37.35 46.63 36.8 46.06 36.04 46.38 36.42 45.69 35.88 45.12 36.7 45.24 37.09 44.59"/><polygon class="cls-15" points="37.03 44.76 36.75 45.3 36.01 45.19 36.79 45.37 37.03 44.76"/><polygon class="cls-15" points="36.63 46.1 36.81 46.02 37.24 46.45 36.84 45.98 36.63 46.1"/><polygon class="cls-15" points="13.89 22.25 14.01 22.72 14.48 22.9 14.04 23.15 14.01 23.63 13.63 23.31 13.13 23.43 13.34 22.98 13.07 22.58 13.57 22.62 13.89 22.25"/><polygon class="cls-16" points="13.89 22.25 13.95 22.75 14.48 22.9 13.95 23.1 14.01 23.63 13.65 23.23 13.13 23.43 13.41 22.97 13.07 22.58 13.62 22.68 13.89 22.25"/><polygon class="cls-15" points="13.85 22.37 13.64 22.72 13.15 22.63 13.67 22.77 13.85 22.37"/><polygon class="cls-15" points="13.54 23.25 13.67 23.21 13.94 23.51 13.69 23.18 13.54 23.25"/><polygon class="cls-13" points="23.9 27.05 24.13 27.86 24.95 28.13 24.22 28.59 24.2 29.42 23.52 28.9 22.68 29.14 22.99 28.36 22.49 27.68 23.36 27.72 23.9 27.05"/><polygon class="cls-14" points="23.9 27.05 24.03 27.91 24.95 28.13 24.05 28.52 24.2 29.42 23.55 28.77 22.68 29.14 23.12 28.34 22.49 27.68 23.45 27.82 23.9 27.05"/><polygon class="cls-13" points="23.83 27.25 23.5 27.89 22.64 27.75 23.54 27.97 23.83 27.25"/><polygon class="cls-13" points="23.36 28.81 23.58 28.72 24.08 29.22 23.61 28.67 23.36 28.81"/><polygon class="cls-15" points="33.44 23 33.55 23.39 33.95 23.52 33.6 23.73 33.59 24.13 33.26 23.89 32.86 24 33.01 23.63 32.77 23.3 33.19 23.32 33.44 23"/><polygon class="cls-16" points="33.44 23 33.51 23.41 33.95 23.52 33.52 23.7 33.59 24.13 33.28 23.82 32.86 24 33.07 23.61 32.77 23.3 33.23 23.37 33.44 23"/><polygon class="cls-15" points="33.41 23.1 33.26 23.4 32.84 23.34 33.28 23.44 33.41 23.1"/><polygon class="cls-15" points="33.19 23.84 33.29 23.8 33.53 24.04 33.3 23.77 33.19 23.84"/><polygon class="cls-13" points="14.78 17.78 14.88 18.16 15.28 18.3 14.93 18.51 14.92 18.91 14.6 18.66 14.2 18.78 14.35 18.41 14.11 18.08 14.52 18.1 14.78 17.78"/><polygon class="cls-14" points="14.78 17.78 14.84 18.19 15.28 18.3 14.85 18.48 14.92 18.91 14.62 18.6 14.2 18.78 14.41 18.39 14.11 18.08 14.56 18.14 14.78 17.78"/><polygon class="cls-13" points="14.75 17.88 14.59 18.18 14.18 18.12 14.61 18.22 14.75 17.88"/><polygon class="cls-13" points="14.52 18.62 14.63 18.58 14.86 18.81 14.64 18.55 14.52 18.62"/><polygon class="cls-13" points="14.78 17.78 14.88 18.16 15.28 18.3 14.93 18.51 14.92 18.91 14.6 18.66 14.2 18.78 14.35 18.41 14.11 18.08 14.52 18.1 14.78 17.78"/><polygon class="cls-14" points="14.78 17.78 14.84 18.19 15.28 18.3 14.85 18.48 14.92 18.91 14.62 18.6 14.2 18.78 14.41 18.39 14.11 18.08 14.56 18.14 14.78 17.78"/><polygon class="cls-13" points="14.75 17.88 14.59 18.18 14.18 18.12 14.61 18.22 14.75 17.88"/><polygon class="cls-13" points="14.52 18.62 14.63 18.58 14.86 18.81 14.64 18.55 14.52 18.62"/><polygon class="cls-13" points="43.72 33.67 43.89 34.26 44.49 34.46 43.95 34.8 43.94 35.4 43.44 35.02 42.83 35.2 43.05 34.63 42.69 34.13 43.33 34.16 43.72 33.67"/><polygon class="cls-14" points="43.72 33.67 43.82 34.3 44.49 34.46 43.83 34.74 43.94 35.4 43.46 34.92 42.83 35.2 43.15 34.61 42.69 34.13 43.39 34.23 43.72 33.67"/><polygon class="cls-13" points="43.67 33.82 43.43 34.28 42.8 34.19 43.46 34.34 43.67 33.82"/><polygon class="cls-13" points="43.33 34.96 43.48 34.89 43.85 35.26 43.51 34.86 43.33 34.96"/><polygon class="cls-13" points="16.82 8.35 17 8.93 17.6 9.13 17.06 9.46 17.05 10.07 16.55 9.69 15.94 9.87 16.16 9.3 15.8 8.8 16.44 8.83 16.82 8.35"/><polygon class="cls-14" points="16.82 8.35 16.92 8.97 17.6 9.13 16.94 9.42 17.05 10.07 16.58 9.6 15.94 9.87 16.26 9.28 15.8 8.8 16.5 8.9 16.82 8.35"/><polygon class="cls-13" points="16.78 8.49 16.54 8.95 15.91 8.86 16.57 9.01 16.78 8.49"/><polygon class="cls-13" points="16.44 9.63 16.59 9.56 16.95 9.93 16.62 9.53 16.44 9.63"/><path class="cls-4" d="M45.31,44.36a.45.45,0,0,1-.46.44h0a.46.46,0,0,1-.47-.44h0a.45.45,0,0,1,.47-.44h0a.44.44,0,0,1,.46.44Z"/><path class="cls-7" d="M45.39,41.67a.28.28,0,0,1-.28.27h0a.27.27,0,0,1-.28-.27h0a.27.27,0,0,1,.28-.26h0a.28.28,0,0,1,.28.26Z"/><path class="cls-7" d="M48.93,48.07a.27.27,0,0,1-.29.26h0a.26.26,0,0,1-.27-.26h0a.27.27,0,0,1,.27-.27h0a.28.28,0,0,1,.29.27Z"/><path class="cls-3" d="M51.25,45.11a.48.48,0,0,1-.49.47h0a.48.48,0,0,1-.49-.47h0a.48.48,0,0,1,.49-.46h0a.48.48,0,0,1,.49.46Z"/><path class="cls-15" d="M47.84,42.36a.21.21,0,0,1-.22.21h0a.22.22,0,0,1-.23-.21h0a.22.22,0,0,1,.23-.21h0a.21.21,0,0,1,.22.21Z"/><path class="cls-4" d="M27.89,47.15a.45.45,0,0,1-.46.44h0a.45.45,0,0,1-.47-.44h0a.46.46,0,0,1,.47-.44h0a.45.45,0,0,1,.46.44Z"/><path class="cls-7" d="M28,44.47a.27.27,0,0,1-.28.26h0a.28.28,0,0,1-.28-.26h0a.28.28,0,0,1,.28-.27h0a.27.27,0,0,1,.28.27Z"/><path class="cls-7" d="M31.5,50.86a.28.28,0,0,1-.28.27h0a.27.27,0,0,1-.28-.27h0a.27.27,0,0,1,.28-.26h0a.28.28,0,0,1,.28.26Z"/><path class="cls-3" d="M33.82,47.91a.48.48,0,0,1-.48.46h0a.47.47,0,0,1-.49-.46h0a.47.47,0,0,1,.49-.47h0a.48.48,0,0,1,.48.47Z"/><path class="cls-15" d="M30.41,45.15a.21.21,0,0,1-.22.21h0a.21.21,0,0,1-.22-.21h0a.21.21,0,0,1,.22-.21h0a.21.21,0,0,1,.22.21Z"/><path class="cls-4" d="M11.19,47a.44.44,0,0,1,.27.58h0a.47.47,0,0,1-.6.26h0a.44.44,0,0,1-.27-.57h0a.48.48,0,0,1,.6-.27Z"/><path class="cls-7" d="M8.57,46a.26.26,0,0,1,.16.34h0a.28.28,0,0,1-.36.16h0a.27.27,0,0,1-.16-.35h0A.29.29,0,0,1,8.57,46Z"/><path class="cls-7" d="M16.11,45.07a.26.26,0,0,1,.16.34h0a.28.28,0,0,1-.36.16h0a.28.28,0,0,1-.16-.35h0a.29.29,0,0,1,.36-.15Z"/><path class="cls-3" d="M14,42a.44.44,0,0,1,.28.59h0a.49.49,0,0,1-.62.28h0a.45.45,0,0,1-.29-.6h0A.49.49,0,0,1,14,42Z"/><path class="cls-15" d="M10.1,44a.23.23,0,0,1,.13.28h0a.23.23,0,0,1-.29.12h0a.2.2,0,0,1-.13-.27h0A.23.23,0,0,1,10.1,44Z"/><path class="cls-4" d="M3.9,49.2a.34.34,0,0,1,.36.34h0a.34.34,0,0,1-.36.35h0a.35.35,0,0,1-.36-.34h0a.34.34,0,0,1,.36-.35Z"/><path class="cls-7" d="M1.69,49.16a.21.21,0,0,1,.22.21h0a.21.21,0,0,1-.22.21h0a.21.21,0,0,1-.22-.21h0a.22.22,0,0,1,.22-.21Z"/><path class="cls-7" d="M6.93,46.49a.21.21,0,0,1,.22.21h0a.21.21,0,0,1-.22.2h0a.2.2,0,0,1-.22-.2h0a.21.21,0,0,1,.22-.21Z"/><path class="cls-3" d="M4.48,44.79a.37.37,0,0,1,.39.35h0a.38.38,0,0,1-.38.37h0a.38.38,0,0,1-.39-.36h0a.37.37,0,0,1,.38-.36Z"/><path class="cls-15" d="M2.24,47.34a.17.17,0,0,1,.17.16h0a.18.18,0,0,1-.17.17h0a.17.17,0,0,1-.18-.16h0a.17.17,0,0,1,.18-.17Z"/><path class="cls-4" d="M2.45,35.6a.36.36,0,0,1,.37.34h0a.36.36,0,0,1-.37.35h0A.35.35,0,0,1,2.09,36h0a.36.36,0,0,1,.36-.35Z"/><path class="cls-7" d="M.24,35.56a.22.22,0,0,1,.22.21h0A.22.22,0,0,1,.25,36h0A.23.23,0,0,1,0,35.77H0a.23.23,0,0,1,.22-.21Z"/><path class="cls-7" d="M5.48,32.89a.21.21,0,0,1,.22.21h0a.22.22,0,0,1-.22.21h0a.21.21,0,0,1-.22-.21h0a.22.22,0,0,1,.22-.21Z"/><path class="cls-3" d="M3,31.19a.38.38,0,0,1,.39.35h0a.37.37,0,0,1-.38.37H3a.38.38,0,0,1-.39-.36h0A.37.37,0,0,1,3,31.19Z"/><path class="cls-15" d="M.79,33.74A.17.17,0,0,1,1,33.9H1a.17.17,0,0,1-.17.17h0a.17.17,0,0,1-.18-.17h0a.18.18,0,0,1,.18-.16Z"/><path class="cls-4" d="M1.76,21.83a.33.33,0,0,1-.05.49h0a.37.37,0,0,1-.51-.05h0a.33.33,0,0,1,.05-.49h0a.37.37,0,0,1,.51,0Z"/><path class="cls-7" d="M.39,20.19a.21.21,0,0,1,0,.29h0a.23.23,0,0,1-.31,0h0a.2.2,0,0,1,0-.29h0a.23.23,0,0,1,.31,0Z"/><path class="cls-7" d="M5.88,22.34a.19.19,0,0,1,0,.29h0a.23.23,0,0,1-.31,0h0a.2.2,0,0,1,0-.29h0a.21.21,0,0,1,.3,0Z"/><path class="cls-3" d="M5.72,19.45a.37.37,0,0,1,0,.52h0a.41.41,0,0,1-.54,0h0a.36.36,0,0,1,0-.51h0a.4.4,0,0,1,.54,0Z"/><path class="cls-15" d="M2.22,19.43a.15.15,0,0,1,0,.23h0a.17.17,0,0,1-.24,0H2a.16.16,0,0,1,0-.24H2a.2.2,0,0,1,.25,0Z"/><path class="cls-4" d="M2.45,9.8a.33.33,0,0,1,0,.48h0a.37.37,0,0,1-.52,0h0a.35.35,0,0,1,.05-.49h0a.37.37,0,0,1,.51.05Z"/><path class="cls-7" d="M1.08,8.15a.21.21,0,0,1,0,.3h0a.22.22,0,0,1-.3,0h0a.2.2,0,0,1,0-.29h0a.24.24,0,0,1,.31,0Z"/><path class="cls-7" d="M6.58,10.3a.22.22,0,0,1,0,.3h0a.23.23,0,0,1-.31,0h0a.2.2,0,0,1,0-.29h0a.23.23,0,0,1,.31,0Z"/><path class="cls-3" d="M6.41,7.42a.35.35,0,0,1,0,.52h0a.41.41,0,0,1-.54-.05h0a.35.35,0,0,1,0-.51h0a.4.4,0,0,1,.54,0Z"/><path class="cls-15" d="M2.91,7.4a.16.16,0,0,1,0,.23h0a.18.18,0,0,1-.25,0h0a.16.16,0,0,1,0-.23h0a.18.18,0,0,1,.25,0Z"/><path class="cls-4" d="M7.39,3a.49.49,0,0,1-.58.33h0a.47.47,0,0,1-.36-.56h0A.5.5,0,0,1,7,2.46H7A.47.47,0,0,1,7.39,3Z"/><path class="cls-7" d="M8.17.34a.29.29,0,0,1-.35.2h0A.27.27,0,0,1,7.61.21h0A.28.28,0,0,1,8,0H8a.27.27,0,0,1,.21.33Z"/><path class="cls-7" d="M10,7.6a.29.29,0,0,1-.35.19h0a.28.28,0,0,1-.21-.33h0a.29.29,0,0,1,.35-.19h0A.26.26,0,0,1,10,7.6Z"/><path class="cls-3" d="M13.13,5.19a.5.5,0,0,1-.61.35h0A.48.48,0,0,1,12.16,5h0a.5.5,0,0,1,.61-.35h0a.46.46,0,0,1,.36.58Z"/><path class="cls-15" d="M10.44,1.61a.23.23,0,0,1-.28.16h0A.23.23,0,0,1,10,1.5h0a.23.23,0,0,1,.28-.15h0a.2.2,0,0,1,.17.26Z"/><path class="cls-4" d="M23.32,3.78a.47.47,0,0,1-.58.33h0a.45.45,0,0,1-.35-.55h0A.47.47,0,0,1,23,3.23h0a.45.45,0,0,1,.35.55Z"/><path class="cls-7" d="M24.1,1.11a.3.3,0,0,1-.35.2h0A.28.28,0,0,1,23.54,1h0a.31.31,0,0,1,.35-.2h0a.28.28,0,0,1,.21.34Z"/><path class="cls-7" d="M26,8.36a.29.29,0,0,1-.35.2h0a.26.26,0,0,1-.21-.33h0a.28.28,0,0,1,.35-.2h0a.28.28,0,0,1,.21.33Z"/><path class="cls-3" d="M29.07,6a.5.5,0,0,1-.61.34h0a.47.47,0,0,1-.37-.58h0a.5.5,0,0,1,.61-.34h0a.48.48,0,0,1,.37.58Z"/><path class="cls-15" d="M26.38,2.38a.24.24,0,0,1-.28.16h0a.22.22,0,0,1-.17-.27h0a.23.23,0,0,1,.28-.16h0a.23.23,0,0,1,.17.27Z"/><path class="cls-4" d="M40.66,6.86a.47.47,0,0,1,.55.39h0a.47.47,0,0,1-.41.52h0a.48.48,0,0,1-.54-.39h0a.46.46,0,0,1,.4-.52Z"/><path class="cls-7" d="M37.76,7.19a.29.29,0,0,1,.33.23h0a.28.28,0,0,1-.25.31h0a.28.28,0,0,1-.32-.23h0a.27.27,0,0,1,.24-.31Z"/><path class="cls-7" d="M44.12,2.8a.29.29,0,0,1,.33.23h0a.28.28,0,0,1-.24.31h0a.29.29,0,0,1-.33-.23h0a.27.27,0,0,1,.24-.31Z"/><path class="cls-3" d="M40.6,1a.5.5,0,0,1,.57.41h0a.48.48,0,0,1-.43.54h0a.51.51,0,0,1-.57-.41h0A.48.48,0,0,1,40.6,1Z"/><path class="cls-15" d="M38.14,4.71a.23.23,0,0,1,.26.18h0a.23.23,0,0,1-.2.25h0A.22.22,0,0,1,37.94,5h0a.21.21,0,0,1,.2-.24Z"/><path class="cls-4" d="M50,5.06a.38.38,0,0,1,.43.31h0a.37.37,0,0,1-.32.41h0a.38.38,0,0,1-.43-.31h0A.36.36,0,0,1,50,5.06Z"/><path class="cls-7" d="M47.71,5.32a.23.23,0,0,1,.26.19h0a.24.24,0,0,1-.2.24h0a.23.23,0,0,1-.26-.18h0a.22.22,0,0,1,.2-.25Z"/><path class="cls-7" d="M52.74,1.85A.22.22,0,0,1,53,2h0a.22.22,0,0,1-.19.25h0a.23.23,0,0,1-.26-.18h0a.22.22,0,0,1,.2-.25Z"/><path class="cls-3" d="M49.94.41a.4.4,0,0,1,.46.32h0a.38.38,0,0,1-.34.43h0a.39.39,0,0,1-.45-.32h0a.38.38,0,0,1,.33-.43Z"/><path class="cls-15" d="M48,3.36a.18.18,0,0,1,.21.15h0a.18.18,0,0,1-.16.19h0a.19.19,0,0,1-.21-.15h0A.18.18,0,0,1,48,3.36Z"/><path class="cls-4" d="M50.15,15.19a.37.37,0,0,1,.43.3h0a.36.36,0,0,1-.32.41h0a.36.36,0,0,1-.43-.3h0a.36.36,0,0,1,.32-.41Z"/><path class="cls-7" d="M47.86,15.45a.21.21,0,0,1,.25.18h0a.22.22,0,0,1-.19.25h0a.23.23,0,0,1-.26-.19h0a.23.23,0,0,1,.2-.24Z"/><path class="cls-7" d="M52.89,12a.21.21,0,0,1,.25.18h0a.22.22,0,0,1-.19.25h0a.23.23,0,0,1-.26-.18h0a.23.23,0,0,1,.2-.25Z"/><path class="cls-3" d="M50.1,10.54a.4.4,0,0,1,.45.32h0a.38.38,0,0,1-.34.43h0a.39.39,0,0,1-.45-.32h0a.38.38,0,0,1,.34-.43Z"/><path class="cls-15" d="M48.15,13.48a.2.2,0,0,1,.21.15h0a.18.18,0,0,1-.16.2h0a.19.19,0,0,1-.21-.15h0a.19.19,0,0,1,.16-.2Z"/><path class="cls-4" d="M49.42,26.55a.38.38,0,0,1,.43.31h0a.37.37,0,0,1-.32.41h0A.38.38,0,0,1,49.1,27h0a.37.37,0,0,1,.32-.41Z"/><path class="cls-7" d="M47.12,26.82a.22.22,0,0,1,.26.18h0a.2.2,0,0,1-.19.24h0a.23.23,0,0,1-.26-.18h0a.21.21,0,0,1,.19-.24Z"/><path class="cls-7" d="M52.15,23.34a.24.24,0,0,1,.26.19h0a.2.2,0,0,1-.19.24h0a.23.23,0,0,1-.26-.18h0a.22.22,0,0,1,.19-.25Z"/><path class="cls-3" d="M49.37,21.9a.4.4,0,0,1,.45.32h0a.38.38,0,0,1-.34.43h0a.39.39,0,0,1-.45-.32h0a.39.39,0,0,1,.34-.43Z"/><path class="cls-15" d="M47.42,24.85a.19.19,0,0,1,.21.15h0a.18.18,0,0,1-.16.19h0a.17.17,0,0,1-.2-.14h0a.17.17,0,0,1,.15-.2Z"/><path class="cls-4" d="M47.46,36a.42.42,0,0,1-.18.6h0a.47.47,0,0,1-.64-.16h0a.43.43,0,0,1,.18-.6h0a.48.48,0,0,1,.64.16Z"/><path class="cls-7" d="M46.1,33.59A.25.25,0,0,1,46,34h0a.29.29,0,0,1-.38-.09h0a.27.27,0,0,1,.1-.37h0a.3.3,0,0,1,.38.1Z"/><path class="cls-7" d="M52.53,37.45a.26.26,0,0,1-.1.36h0a.27.27,0,0,1-.38-.09h0a.25.25,0,0,1,.1-.36h0a.29.29,0,0,1,.38.09Z"/><path class="cls-3" d="M53,33.79a.44.44,0,0,1-.18.63h0a.48.48,0,0,1-.66-.17h0a.44.44,0,0,1,.17-.63h0a.5.5,0,0,1,.67.17Z"/><path class="cls-15" d="M48.59,33a.21.21,0,0,1-.09.29h0a.22.22,0,0,1-.3-.08h0a.21.21,0,0,1,.08-.29h0a.24.24,0,0,1,.31.08Z"/></g></g></g></g></svg>