<svg xmlns="http://www.w3.org/2000/svg" viewBox="0 0 52.03 51.12"><defs><style>.cls-1{isolation:isolate;}.cls-2{mix-blend-mode:hard-light;}.cls-3{fill:#eb027e;}.cls-4{fill:#02dbf3;}.cls-5{fill:#2471ba;}.cls-6{fill:#2e60a2;}.cls-7{fill:#0288c9;}.cls-8{fill:#7de8f2;}.cls-9{fill:#e96ab0;}</style></defs><g class="cls-1"><g id="Capa_2" data-name="Capa 2"><g id="Layer_1" data-name="Layer 1"><g class="cls-2"><path class="cls-3" d="M40.32,37.53a.3.3,0,0,1-.27.34h0a.32.32,0,0,1-.33-.27h0a.3.3,0,0,1,.27-.34h0a.31.31,0,0,1,.33.27Z"/><path class="cls-3" d="M40.17,35.7a.18.18,0,0,1-.16.2h0a.18.18,0,0,1-.2-.16h0a.18.18,0,0,1,.16-.2h0a.18.18,0,0,1,.2.16Z"/><path class="cls-3" d="M42.93,39.81a.18.18,0,0,1-.16.2h0a.18.18,0,0,1-.2-.16h0a.18.18,0,0,1,.16-.2h0a.18.18,0,0,1,.2.16Z"/><path class="cls-3" d="M44.22,37.64a.32.32,0,0,1-.28.35h0a.32.32,0,0,1-.35-.28h0a.32.32,0,0,1,.28-.36h0a.33.33,0,0,1,.35.29Z"/><path class="cls-3" d="M41.81,36a.15.15,0,0,1-.13.17h0a.15.15,0,0,1-.16-.13h0a.14.14,0,0,1,.13-.16h0a.15.15,0,0,1,.16.12Z"/><path class="cls-3" d="M29.25,40.65A.3.3,0,0,1,29,41h0a.3.3,0,0,1-.34-.27h0a.31.31,0,0,1,.27-.33h0a.3.3,0,0,1,.34.27Z"/><path class="cls-3" d="M29.1,38.81a.2.2,0,0,1-.16.21h0a.19.19,0,0,1-.21-.17h0a.19.19,0,0,1,.16-.2h0a.19.19,0,0,1,.21.16Z"/><path class="cls-3" d="M31.85,42.92a.17.17,0,0,1-.16.2h0a.17.17,0,0,1-.2-.15h0a.18.18,0,0,1,.16-.2h0a.17.17,0,0,1,.2.15Z"/><path class="cls-3" d="M33.14,40.75a.32.32,0,0,1-.28.35h0a.32.32,0,0,1-.35-.28h0a.32.32,0,0,1,.28-.35h0a.32.32,0,0,1,.35.28Z"/><path class="cls-3" d="M30.73,39.11a.15.15,0,0,1-.13.16h0a.15.15,0,0,1-.16-.13h0a.15.15,0,0,1,.13-.16h0a.15.15,0,0,1,.16.13Z"/><path class="cls-3" d="M18.42,41.7a.3.3,0,0,1,.22.37h0a.31.31,0,0,1-.37.22h0a.31.31,0,0,1-.22-.37h0a.29.29,0,0,1,.37-.22Z"/><path class="cls-3" d="M16.65,41.2a.17.17,0,0,1,.13.22h0a.17.17,0,0,1-.22.13h0a.18.18,0,0,1-.13-.22h0a.18.18,0,0,1,.22-.13Z"/><path class="cls-3" d="M21.47,40.05a.19.19,0,0,1,.13.22h0a.18.18,0,0,1-.22.13h0a.17.17,0,0,1-.13-.22h0a.17.17,0,0,1,.22-.13Z"/><path class="cls-3" d="M19.88,38.08a.33.33,0,0,1,.23.39h0a.33.33,0,0,1-.39.23h0a.32.32,0,0,1-.23-.39h0a.33.33,0,0,1,.39-.23Z"/><path class="cls-3" d="M17.5,39.77a.15.15,0,0,1,.11.17h0a.15.15,0,0,1-.18.11h0a.15.15,0,0,1-.11-.18h0a.15.15,0,0,1,.18-.1Z"/><path class="cls-3" d="M13.86,43.71a.23.23,0,0,1,.26.21h0a.22.22,0,0,1-.2.26h0a.24.24,0,0,1-.27-.21h0a.24.24,0,0,1,.21-.26Z"/><path class="cls-3" d="M12.43,43.84a.15.15,0,0,1,.16.12h0a.15.15,0,0,1-.13.16h0a.13.13,0,0,1-.15-.12h0a.14.14,0,0,1,.12-.16Z"/><path class="cls-3" d="M15.63,41.66a.15.15,0,0,1,.16.12h0a.15.15,0,0,1-.13.16h0a.15.15,0,0,1-.16-.13h0a.14.14,0,0,1,.13-.15Z"/><path class="cls-3" d="M13.92,40.66a.25.25,0,0,1,.27.22h0a.25.25,0,0,1-.22.28h0a.25.25,0,0,1-.27-.22h0a.25.25,0,0,1,.22-.28Z"/><path class="cls-3" d="M12.65,42.56a.11.11,0,0,1,.13.1h0a.11.11,0,0,1-.1.12h0a.11.11,0,0,1-.13-.09h0a.11.11,0,0,1,.1-.13Z"/><path class="cls-3" d="M11.93,34.54a.24.24,0,0,1,.26.21h0A.24.24,0,0,1,12,35h0a.25.25,0,0,1-.26-.21h0a.25.25,0,0,1,.21-.27Z"/><path class="cls-3" d="M10.5,34.68a.14.14,0,0,1,.16.12h0a.15.15,0,0,1-.13.16h0a.15.15,0,0,1-.16-.12h0a.15.15,0,0,1,.13-.16Z"/><path class="cls-3" d="M13.7,32.49a.14.14,0,0,1,.15.13h0a.15.15,0,0,1-.12.16h0a.15.15,0,0,1-.16-.13h0a.15.15,0,0,1,.13-.16Z"/><path class="cls-3" d="M12,31.5a.25.25,0,0,1,.28.22h0A.24.24,0,0,1,12,32h0a.24.24,0,0,1-.27-.21h0A.24.24,0,0,1,12,31.5Z"/><path class="cls-3" d="M10.72,33.4a.1.1,0,0,1,.12.1h0a.1.1,0,0,1-.09.12h0a.11.11,0,0,1-.13-.1h0a.11.11,0,0,1,.1-.12Z"/><path class="cls-3" d="M10.48,25.21a.25.25,0,0,1,0,.34h0a.24.24,0,0,1-.33,0h0a.24.24,0,0,1,0-.34h0a.24.24,0,0,1,.34,0Z"/><path class="cls-3" d="M9.47,24.19a.15.15,0,0,1,0,.2h0a.13.13,0,0,1-.2,0h0a.13.13,0,0,1,0-.2h0a.14.14,0,0,1,.2,0Z"/><path class="cls-3" d="M13.18,25.27a.14.14,0,0,1,0,.2h0a.13.13,0,0,1-.2,0h0a.13.13,0,0,1,0-.19h0a.14.14,0,0,1,.2,0Z"/><path class="cls-3" d="M12.86,23.32a.24.24,0,0,1,0,.35h0a.25.25,0,0,1-.35,0h0a.25.25,0,0,1,0-.35h0a.25.25,0,0,1,.35,0Z"/><path class="cls-3" d="M10.59,23.55a.11.11,0,0,1,0,.16h0a.12.12,0,0,1-.16,0h0a.11.11,0,0,1,0-.16h0a.1.1,0,0,1,.16,0Z"/><path class="cls-3" d="M10,17a.23.23,0,0,1,0,.33h0a.23.23,0,0,1-.33,0h0a.23.23,0,0,1,0-.33h0A.23.23,0,0,1,10,17Z"/><path class="cls-3" d="M9,15.94a.17.17,0,0,1,0,.21H9a.15.15,0,0,1-.2,0h0a.14.14,0,0,1,0-.2h0a.15.15,0,0,1,.21,0Z"/><path class="cls-3" d="M12.75,17a.13.13,0,0,1,0,.2h0a.14.14,0,0,1-.2,0h0a.15.15,0,0,1,0-.2h0a.14.14,0,0,1,.2,0Z"/><path class="cls-3" d="M12.43,15.07a.25.25,0,0,1,0,.36h0a.25.25,0,0,1-.35,0h0a.26.26,0,0,1,0-.36h0a.26.26,0,0,1,.35,0Z"/><path class="cls-3" d="M10.17,15.3a.12.12,0,0,1,0,.16h0a.11.11,0,0,1-.16,0h0a.12.12,0,0,1,0-.17h0a.14.14,0,0,1,.17,0Z"/><path class="cls-3" d="M12.74,12a.3.3,0,0,1-.35.27h0a.31.31,0,0,1-.27-.35h0a.32.32,0,0,1,.35-.27h0a.31.31,0,0,1,.27.35Z"/><path class="cls-3" d="M13.05,10.13a.18.18,0,0,1-.21.16h0a.2.2,0,0,1-.16-.21h0a.18.18,0,0,1,.21-.16h0a.18.18,0,0,1,.16.21Z"/><path class="cls-3" d="M14.79,14.94a.19.19,0,0,1-.22.16h0a.18.18,0,0,1-.16-.21h0a.19.19,0,0,1,.21-.16h0a.19.19,0,0,1,.17.21Z"/><path class="cls-3" d="M16.63,13.09a.34.34,0,0,1-.38.28h0A.33.33,0,0,1,16,13h0a.33.33,0,0,1,.37-.28h0a.34.34,0,0,1,.29.37Z"/><path class="cls-3" d="M14.62,10.84a.14.14,0,0,1-.17.12h0a.15.15,0,0,1-.13-.17h0a.14.14,0,0,1,.17-.12h0a.15.15,0,0,1,.13.17Z"/><path class="cls-3" d="M23.12,11.42a.33.33,0,0,1-.36.27h0a.33.33,0,0,1-.27-.36h0a.3.3,0,0,1,.36-.26h0a.31.31,0,0,1,.27.35Z"/><path class="cls-3" d="M23.42,9.54a.18.18,0,0,1-.21.16h0a.19.19,0,0,1-.16-.21h0a.2.2,0,0,1,.21-.16h0a.18.18,0,0,1,.16.21Z"/><path class="cls-3" d="M25.16,14.36a.2.2,0,0,1-.22.16h0a.18.18,0,0,1-.15-.21h0a.17.17,0,0,1,.21-.16h0a.18.18,0,0,1,.16.21Z"/><path class="cls-3" d="M27,12.5a.32.32,0,0,1-.37.28h0a.33.33,0,0,1-.28-.37h0a.34.34,0,0,1,.37-.28h0a.32.32,0,0,1,.28.37Z"/><path class="cls-3" d="M25,10.25a.16.16,0,0,1-.17.13h0a.16.16,0,0,1-.13-.17h0a.16.16,0,0,1,.17-.13h0a.16.16,0,0,1,.13.17Z"/><path class="cls-3" d="M34.57,12.31a.32.32,0,0,1,.38.23h0a.32.32,0,0,1-.23.38h0a.32.32,0,0,1-.38-.23h0a.31.31,0,0,1,.23-.38Z"/><path class="cls-3" d="M32.71,12.74a.18.18,0,0,1,.23.13h0a.18.18,0,0,1-.14.23h0a.18.18,0,0,1-.22-.13h0a.18.18,0,0,1,.13-.23Z"/><path class="cls-3" d="M36.51,9.3a.2.2,0,0,1,.23.14h0a.19.19,0,0,1-.14.23h0a.19.19,0,0,1-.23-.14h0a.2.2,0,0,1,.14-.23Z"/><path class="cls-3" d="M34.09,8.31a.32.32,0,0,1,.4.24h0a.33.33,0,0,1-.24.4h0a.35.35,0,0,1-.4-.24h0a.33.33,0,0,1,.24-.4Z"/><path class="cls-3" d="M32.77,11a.16.16,0,0,1,.19.11h0a.15.15,0,0,1-.11.18h0a.16.16,0,0,1-.19-.11h0a.15.15,0,0,1,.11-.18Z"/><path class="cls-3" d="M40.48,10.43a.25.25,0,0,1,.3.18h0a.26.26,0,0,1-.18.31h0a.25.25,0,0,1-.3-.18h0a.25.25,0,0,1,.18-.31Z"/><path class="cls-3" d="M39,10.77a.15.15,0,0,1,.18.11h0a.14.14,0,0,1-.1.18h0a.15.15,0,0,1-.18-.11h0a.14.14,0,0,1,.1-.18Z"/><path class="cls-3" d="M42,8.06a.16.16,0,0,1,.19.11h0a.15.15,0,0,1-.11.18h0a.15.15,0,0,1-.18-.11h0a.14.14,0,0,1,.1-.18Z"/><path class="cls-3" d="M40.1,7.27a.26.26,0,0,1,.32.19h0a.25.25,0,0,1-.19.31h0a.24.24,0,0,1-.31-.18h0a.26.26,0,0,1,.18-.32Z"/><path class="cls-3" d="M39.06,9.41a.14.14,0,0,1,.15.09h0a.13.13,0,0,1-.09.15h0A.14.14,0,0,1,39,9.56h0a.14.14,0,0,1,.09-.15Z"/><path class="cls-3" d="M41.32,17.33a.24.24,0,0,1,.3.17h0a.26.26,0,0,1-.18.31h0a.25.25,0,0,1-.3-.18h0a.24.24,0,0,1,.18-.3Z"/><path class="cls-3" d="M39.85,17.66a.15.15,0,0,1,.18.11h0a.15.15,0,0,1-.1.18h0a.16.16,0,0,1-.19-.11h0a.15.15,0,0,1,.11-.18Z"/><path class="cls-3" d="M42.85,15a.15.15,0,0,1,.18.11h0a.15.15,0,0,1-.11.18h0a.16.16,0,0,1-.18-.11h0a.16.16,0,0,1,.11-.18Z"/><path class="cls-3" d="M40.94,14.16a.27.27,0,0,1,.32.19h0a.25.25,0,0,1-.19.31h0a.26.26,0,0,1-.32-.18h0a.27.27,0,0,1,.19-.32Z"/><path class="cls-3" d="M39.9,16.31a.11.11,0,0,1,.14.08h0a.11.11,0,0,1-.09.14h0a.11.11,0,0,1-.14-.08h0a.12.12,0,0,1,.09-.14Z"/><path class="cls-3" d="M41.68,25.12a.26.26,0,0,1,.3.18h0a.26.26,0,0,1-.18.3h0a.25.25,0,0,1-.3-.18h0a.24.24,0,0,1,.18-.3Z"/><path class="cls-3" d="M40.21,25.46a.14.14,0,0,1,.18.1h0a.15.15,0,0,1-.1.18h0a.14.14,0,0,1-.19-.1h0a.14.14,0,0,1,.11-.18Z"/><path class="cls-3" d="M43.21,22.74a.15.15,0,0,1,.18.11h0a.14.14,0,0,1-.11.18h0a.16.16,0,0,1-.18-.1h0a.15.15,0,0,1,.11-.19Z"/><path class="cls-3" d="M41.3,22a.26.26,0,0,1,.32.18h0a.27.27,0,0,1-.19.32h0a.26.26,0,0,1-.31-.19h0A.24.24,0,0,1,41.3,22Z"/><path class="cls-3" d="M40.26,24.1a.11.11,0,0,1,.14.08h0a.12.12,0,0,1-.09.15h0a.12.12,0,0,1-.14-.09h0a.11.11,0,0,1,.09-.14Z"/><path class="cls-3" d="M41.09,31.66a.3.3,0,0,1-.06.42h0A.31.31,0,0,1,40.6,32h0a.3.3,0,0,1,.07-.42h0a.3.3,0,0,1,.42.07Z"/><path class="cls-3" d="M40,30.14a.19.19,0,0,1,0,.26h0a.18.18,0,0,1-.25,0h0a.19.19,0,0,1,0-.26h0a.18.18,0,0,1,.25,0Z"/><path class="cls-3" d="M44.49,32.33a.19.19,0,0,1,0,.25h0a.19.19,0,0,1-.26,0h0a.18.18,0,0,1,0-.25h0a.19.19,0,0,1,.26,0Z"/><path class="cls-3" d="M44.52,29.8a.33.33,0,0,1-.07.45h0a.32.32,0,0,1-.45-.08h0a.32.32,0,0,1,.07-.44h0a.33.33,0,0,1,.45.07Z"/><path class="cls-3" d="M41.61,29.58a.16.16,0,0,1,0,.21h0a.16.16,0,0,1-.21,0h0a.15.15,0,0,1,0-.2h0a.14.14,0,0,1,.2,0Z"/><path class="cls-4" d="M32.65,8.64l-.11.1-.3.29-.45.46c-.18.18-.37.39-.57.61s-.42.48-.63.74-.45.55-.67.84-.46.61-.68.93l-.66,1-.62,1c-.2.33-.38.66-.56,1s-.34.63-.49.92-.29.57-.41.83-.23.5-.32.71-.17.4-.24.55l-.14.36-.05.13a.73.73,0,0,0,.09-.12c.05-.08.13-.19.22-.34l.35-.52c.13-.2.29-.43.44-.68l.52-.79.59-.89.62-.94.65-1c.21-.33.43-.65.65-1s.42-.63.62-.93l.59-.87c.19-.27.36-.53.52-.77l.44-.65c.13-.2.23-.37.32-.5l.21-.33A.86.86,0,0,1,32.65,8.64Z"/><path class="cls-3" d="M22.84,9.3s0,0,0,.16,0,.25,0,.44c0,.38.09.92.17,1.57,0,.33.08.68.13,1.06s.1.76.15,1.17.11.83.17,1.25l.18,1.3c.06.43.13.86.19,1.29s.13.85.19,1.25c.13.81.25,1.57.36,2.22s.21,1.19.27,1.57c0,.19.06.33.08.43s0,.16,0,.16,0-.05,0-.16,0-.25,0-.44c0-.38-.09-.93-.16-1.58s-.14-1.41-.25-2.23c0-.4-.09-.83-.15-1.26s-.12-.86-.17-1.29-.13-.87-.19-1.29-.13-.85-.19-1.25-.14-.8-.2-1.17-.12-.72-.18-1.05c-.12-.65-.23-1.18-.31-1.56,0-.19-.07-.33-.09-.44Z"/><path class="cls-5" d="M13.82,9.72l.06.07.17.21.62.71.95,1,.55.54.58.56.59.56.58.53,1,1,.78.66.23.18.08.07,0-.08a1.8,1.8,0,0,0-.14-.22c-.12-.2-.31-.46-.54-.78s-.53-.67-.86-1.05c-.17-.19-.34-.38-.53-.57l-.56-.57-.6-.56-.6-.52c-.39-.33-.79-.63-1.13-.88s-.66-.44-.88-.57l-.26-.16Z"/><path class="cls-6" d="M13.05,14.78l.11.08c.07,0,.17.12.31.2l1.11.74,1.59,1.05.9.6.92.63.92.64c.31.21.61.42.89.63.58.41,1.11.8,1.57,1.14l1.12.82.31.23.11.08-.08-.1c0-.06-.13-.16-.24-.27s-.53-.56-.93-.94-.87-.81-1.41-1.25c-.26-.23-.54-.45-.84-.68l-.9-.66c-.31-.21-.62-.43-.94-.63l-.94-.58c-.61-.36-1.22-.68-1.75-.94s-1-.46-1.31-.59l-.38-.15Z"/><path class="cls-4" d="M5.05,16.77l.13,0,.38.07,1.35.24,1.93.36c.35.06.72.14,1.09.22s.74.15,1.11.24l1.12.26,1.08.27c.7.18,1.35.36,1.91.52l1.36.39.38.11.14,0-.11-.05-.33-.18c-.28-.14-.69-.34-1.2-.55s-1.12-.45-1.79-.67c-.34-.11-.68-.22-1-.32s-.74-.2-1.11-.29-.76-.17-1.14-.24S9.56,17.07,9.2,17c-.74-.11-1.44-.18-2.06-.22s-1.13,0-1.5,0H5.05Z"/><path class="cls-6" d="M0,25.93l.17-.05.5-.17.77-.26,1-.32,1.19-.35c.42-.12.86-.24,1.32-.35l1.41-.34c.48-.11,1-.21,1.45-.3l1.46-.25c.48-.07,1-.15,1.41-.2s.89-.11,1.31-.14l1.18-.11,1-.06.77,0,.49,0h.18l-.17,0-.47,0-.73,0c-.28,0-.61,0-1,0s-.74,0-1.15,0-.85,0-1.3.07l-1.4.15c-.48.06-1,.14-1.46.23s-1,.19-1.47.31-1,.24-1.43.37-.92.28-1.34.42-.84.3-1.21.44l-1,.42-.78.36-.51.24Z"/><path class="cls-4" d="M20.24,25.08l-.2,0L19.49,25c-.23,0-.52-.06-.85-.08l-1.13-.07-1.34,0c-.49,0-1,0-1.52.07S13.58,25,13,25s-1.13.15-1.7.26-1.14.22-1.71.36-1.12.29-1.66.45-1,.34-1.55.52-1,.36-1.39.54-.82.35-1.17.51l-.9.45-.58.3-.2.11.2-.08.58-.23.89-.35L5,27.45,6.37,27c.48-.16,1-.31,1.53-.45s1.08-.29,1.64-.42,1.12-.25,1.69-.35,1.14-.2,1.69-.28,1.1-.15,1.63-.2,1-.1,1.53-.13l1.35-.07,1.15,0h1.66Z"/><path class="cls-4" d="M21.85,26l-.2.05-.56.13c-.48.12-1.17.3-2,.56-.41.13-.84.28-1.3.45s-.94.36-1.44.57-1,.43-1.51.68-1,.52-1.53.8-1,.58-1.5.88-1,.62-1.42.93c-.91.63-1.74,1.27-2.43,1.85S6.72,34,6.33,34.32l-.45.43a1.64,1.64,0,0,1-.15.15l.16-.14c.11-.1.27-.23.46-.41C6.76,34,7.34,33.52,8,33s1.55-1.17,2.46-1.79c.45-.31.93-.61,1.42-.91s1-.59,1.5-.87,1-.55,1.52-.8,1-.48,1.5-.7,1-.41,1.42-.59.89-.35,1.29-.48c.8-.29,1.48-.5,2-.64l.55-.16Z"/><path class="cls-7" d="M13.78,27.22l-.12,0-.31.08c-.27.07-.67.19-1.13.34s-1,.36-1.58.61l-.87.4q-.45.21-.9.45c-.3.16-.6.32-.89.49l-.85.51c-.55.35-1.06.7-1.48,1s-.78.6-1,.8a2.91,2.91,0,0,0-.28.24.44.44,0,0,1-.1.08l.11-.06L4.65,32l1.08-.64c.44-.26.95-.56,1.51-.87L8.09,30,9,29.55l.88-.46.87-.43c.56-.28,1.08-.53,1.54-.74l1.09-.51.31-.14Z"/><path class="cls-7" d="M20.72,27.8l-.15,0-.41.15c-.35.13-.84.33-1.42.59s-1.26.59-2,1c-.35.19-.7.4-1.06.63s-.72.45-1.08.69-.7.49-1,.75-.67.51-1,.77c-.63.51-1.19,1-1.67,1.48s-.84.85-1.1,1.13l-.3.33-.11.12.13-.1.33-.29,1.21-1c.5-.41,1.1-.89,1.74-1.37l1-.73c.35-.25.69-.49,1.05-.73l1-.7,1-.65c.68-.41,1.32-.78,1.88-1.09l1.34-.72.38-.2Z"/><path class="cls-6" d="M16.25,31.34l-.12.07-.34.23c-.28.19-.68.48-1.15.84s-1,.81-1.55,1.31c-.28.25-.55.51-.83.79s-.55.56-.82.85-.54.59-.8.89l-.73.89c-.47.59-.88,1.16-1.21,1.65s-.61.93-.79,1.23l-.21.36a.86.86,0,0,1-.07.12l.09-.11L8,40.14c.22-.28.53-.68.91-1.14s.82-1,1.31-1.57l.75-.86c.26-.29.52-.58.8-.87l.81-.85c.27-.28.53-.55.8-.8.52-.52,1-1,1.45-1.39s.79-.73,1-1l.29-.27Z"/><path class="cls-3" d="M20,29.42l-.13.11-.35.31c-.3.26-.72.64-1.21,1.13-.25.24-.5.5-.77.79s-.55.59-.83.91-.57.65-.85,1-.55.71-.83,1.07-.53.73-.78,1.1-.49.73-.72,1.08c-.45.72-.84,1.4-1.16,2s-.57,1.09-.74,1.44l-.19.41-.07.14.08-.14.22-.4c.19-.34.47-.83.81-1.4s.76-1.25,1.22-2c.23-.36.48-.71.73-1.08l.79-1.08c.27-.37.54-.72.82-1.07l.83-1,.8-.92.74-.81c.47-.49.86-.9,1.15-1.18l.33-.32Z"/><path class="cls-4" d="M23.36,27.32a1.21,1.21,0,0,0-.13.13l-.37.37c-.16.16-.35.36-.55.59s-.44.5-.69.79-.5.62-.76,1-.54.71-.81,1.1-.54.79-.8,1.21-.52.84-.77,1.27-.48.87-.7,1.3-.43.86-.62,1.28-.37.82-.53,1.21-.3.76-.43,1.1-.23.65-.33.93-.17.52-.23.73-.1.36-.13.47l0,.16.07-.16.19-.45L16,39.6c.11-.26.25-.57.4-.9s.32-.7.5-1.07l.59-1.19c.21-.41.44-.83.67-1.25s.46-.86.71-1.29l.76-1.26c.26-.42.51-.82.77-1.21l.75-1.12.69-1c.22-.31.43-.59.61-.83s.33-.46.47-.64l.3-.4A1.16,1.16,0,0,1,23.36,27.32Z"/><path class="cls-3" d="M24.25,27.43a.73.73,0,0,0-.07.13c-.05.09-.11.22-.19.39s-.17.38-.27.61-.22.51-.33.8-.25.61-.36.95-.25.7-.37,1.07-.24.76-.35,1.16L22,33.73c-.1.4-.19.8-.28,1.2s-.16.79-.24,1.17-.13.74-.19,1.09-.09.68-.13,1-.08.58-.1.83,0,.47-.06.65,0,.31,0,.41a1,1,0,0,1,0,.15,1.1,1.1,0,0,1,0-.15c0-.09.05-.23.08-.41s.09-.38.14-.63.12-.52.18-.81.14-.63.22-1,.16-.7.25-1.08.19-.76.28-1.15.2-.8.31-1.2.21-.8.32-1.19.21-.78.32-1.15.21-.74.31-1.08.19-.67.28-1l.24-.82.18-.63c.05-.17.09-.31.12-.4Z"/><path class="cls-7" d="M20.2,34.58l-.07.12c0,.09-.11.21-.19.36s-.17.35-.27.57-.22.47-.34.74-.25.56-.37.88-.25.64-.37,1-.25.71-.36,1.07-.22.74-.32,1.12-.2.74-.29,1.11-.16.74-.23,1.09-.13.69-.18,1-.1.62-.14.91-.06.54-.09.77,0,.43-.05.6,0,.29,0,.38v.13a1.11,1.11,0,0,0,0-.13c0-.09,0-.21.08-.37s.08-.36.13-.59.1-.48.16-.75.13-.58.21-.9.15-.66.24-1,.18-.7.27-1.07l.3-1.11c.11-.37.22-.74.32-1.11L19,38.33c.11-.35.21-.68.32-1s.2-.62.3-.9.17-.53.25-.76.15-.42.2-.58.1-.29.13-.38A.93.93,0,0,0,20.2,34.58Z"/><path class="cls-7" d="M24.23,34.71l0,.18c0,.12-.06.3-.1.52-.07.45-.17,1.09-.27,1.86,0,.38-.11.8-.16,1.24s-.1.9-.15,1.38-.09,1-.13,1.49-.08,1-.11,1.53-.06,1-.08,1.53,0,1-.06,1.49c0,1,0,1.86,0,2.62s0,1.41,0,1.87c0,.22,0,.39,0,.51v.19s0-.07,0-.19,0-.29,0-.51c0-.45.05-1.09.08-1.86s.09-1.66.13-2.63q0-.72.09-1.47c0-.51.07-1,.1-1.54s.07-1,.11-1.53.08-1,.11-1.48.08-.95.11-1.39.08-.86.11-1.24c.06-.77.11-1.41.15-1.86,0-.23,0-.41,0-.53S24.23,34.71,24.23,34.71Z"/><path class="cls-4" d="M25.21,26.67a1.41,1.41,0,0,0,0,.18v1.23c0,.29,0,.62,0,1s0,.75,0,1.15,0,.84.07,1.28.05.91.08,1.38.07.93.1,1.41.09.94.13,1.41.08.92.13,1.37.09.87.13,1.27.09.79.13,1.15.08.67.12,1,.07.54.1.75.05.37.06.48l0,.17s0-.06,0-.18v-.48c0-.21,0-.46,0-.75s0-.62,0-1,0-.74-.05-1.15,0-.84-.06-1.28-.05-.9-.08-1.37L26,34.23c0-.47-.07-.94-.11-1.41s-.08-.92-.11-1.36-.08-.88-.12-1.29-.08-.78-.13-1.14-.07-.68-.11-1-.08-.54-.11-.75-.05-.37-.07-.48S25.21,26.67,25.21,26.67Z"/><path class="cls-6" d="M26.5,29.47v.06s0,.11,0,.18,0,.38.06.65.07.57.13.89.06.33.1.5.07.35.11.52.08.35.13.52.08.33.13.49c.09.33.18.62.26.88s.17.47.23.61.05.13.06.17l0,.06v-.24c0-.16,0-.38,0-.65s-.06-.57-.12-.9c0-.16-.05-.33-.08-.5s-.07-.34-.11-.52l-.12-.51c0-.17-.09-.34-.14-.5-.09-.32-.19-.62-.28-.87s-.18-.47-.25-.61a1.44,1.44,0,0,0-.08-.17Z"/><path class="cls-6" d="M28.34,39a.28.28,0,0,0,0,.08c0,.06,0,.14,0,.24s0,.48,0,.81,0,.74.05,1.16c0,.21,0,.43.05.65s0,.44.07.67.05.44.07.66.05.44.08.65c.06.42.12.81.18,1.14s.11.62.15.81l0,.22a.32.32,0,0,1,0,.09.31.31,0,0,0,0-.09v-.23c0-.19,0-.47,0-.81s0-.74,0-1.16c0-.21,0-.43,0-.65l-.06-.67c0-.22,0-.44-.07-.67s-.05-.43-.08-.64c-.05-.42-.12-.81-.18-1.14s-.12-.62-.17-.81l-.05-.23A.24.24,0,0,1,28.34,39Z"/><path class="cls-3" d="M28,30.81l.06.14.18.37c.16.32.39.78.65,1.34.14.27.28.58.43.9l.46,1q.24.52.48,1.08c.16.37.32.74.47,1.12l.46,1.12c.15.38.29.74.42,1.1.28.71.51,1.38.71,2s.37,1,.48,1.38c0,.17.09.3.12.38l.05.14a1.31,1.31,0,0,0,0-.14c0-.09-.05-.22-.1-.39-.09-.34-.22-.83-.39-1.4s-.39-1.25-.64-2c-.13-.36-.26-.73-.41-1.1s-.29-.76-.44-1.14l-.48-1.11c-.16-.37-.33-.74-.49-1.08s-.33-.69-.49-1-.32-.61-.46-.89c-.29-.54-.55-1-.74-1.3a3,3,0,0,0-.22-.37A.92.92,0,0,1,28,30.81Z"/><path class="cls-7" d="M30.17,38.8a.42.42,0,0,0,0,.1q0,.1.06.3c.05.25.13.61.23,1s.22.94.35,1.47l.21.83c.07.28.14.56.22.85l.21.85c.07.28.15.56.21.82l.38,1.46c.12.42.21.77.28,1s.06.22.08.29l0,.1a.82.82,0,0,0,0-.1q0-.11,0-.3c0-.26-.07-.62-.13-1.06S32.13,45.53,32,45c-.05-.27-.1-.55-.17-.83s-.13-.57-.2-.86-.14-.57-.22-.85-.15-.55-.23-.82c-.16-.53-.33-1-.48-1.45s-.29-.76-.39-1l-.12-.28Z"/><path class="cls-4" d="M28.26,27.59l.13.13.38.36.58.57.74.74.86.89.94,1c.32.35.64.73,1,1.11l1,1.16c.32.4.64.8.93,1.19s.59.79.87,1.18.53.75.77,1.11l.68,1,.55.86c.16.25.3.48.41.67l.26.43a1,1,0,0,1,.1.15,1.37,1.37,0,0,0-.07-.16l-.21-.46c-.09-.19-.21-.43-.35-.7s-.29-.57-.48-.89-.38-.68-.6-1.05-.46-.75-.73-1.15-.53-.8-.83-1.2-.6-.81-.91-1.21-.65-.79-1-1.17-.67-.75-1-1.1-.67-.68-1-1-.63-.59-.93-.85-.57-.5-.81-.7L28.85,28l-.44-.32Z"/><path class="cls-6" d="M30.8,26.71l.15.07.41.21.64.34.83.44,1,.54,1.07.62,1.12.69,1.15.76c.38.25.76.52,1.13.78s.73.52,1.07.79.68.51,1,.76.61.48.88.7l.74.61.56.48c.16.13.28.23.36.31l.13.11-.11-.13-.32-.35c-.13-.15-.31-.33-.51-.53s-.43-.42-.68-.66-.53-.5-.83-.76-.62-.54-1-.82-.69-.55-1-.82l-1.13-.8-1.16-.75c-.39-.24-.78-.46-1.16-.68s-.75-.4-1.1-.58-.7-.34-1-.48-.61-.27-.87-.38l-.68-.26L31,26.76Z"/><path class="cls-3" d="M41.36,37.09s-.4-.56-1.07-1.35l-.55-.64c-.2-.22-.41-.46-.64-.69s-.45-.48-.7-.72L37.65,33c-.25-.24-.51-.47-.77-.7s-.52-.44-.77-.65c-.51-.42-1-.79-1.42-1.1-.85-.62-1.46-1-1.46-1s.56.42,1.37,1.07c.41.33.88.72,1.37,1.14l.76.67.76.69.75.72c.25.23.49.47.72.7l.65.67.58.61C40.9,36.57,41.36,37.09,41.36,37.09Z"/><path class="cls-6" d="M46.39,30.81l-.2-.13-.58-.34c-.49-.29-1.2-.69-2.06-1.12-.43-.22-.9-.44-1.4-.66s-1-.45-1.57-.66-1.11-.42-1.69-.61-1.17-.37-1.76-.53-1.18-.3-1.77-.43S34.2,26.1,33.65,26c-1.12-.17-2.16-.28-3-.33s-1.63-.05-2.15,0l-.6,0h.6c.52,0,1.26.05,2.15.13s1.92.2,3,.4q.84.13,1.71.33c.58.12,1.18.27,1.76.43s1.18.33,1.76.52,1.14.39,1.68.59,1.08.42,1.58.63,1,.42,1.4.62c.87.41,1.58.78,2.08,1.05l.58.31Z"/><path class="cls-4" d="M47.73,27.09,47.55,27l-.5-.22-.76-.32-1-.38-1.18-.4c-.43-.12-.86-.26-1.32-.37s-.93-.24-1.41-.33-1-.19-1.44-.27-1-.14-1.43-.2-.93-.08-1.37-.11-.88,0-1.28,0-.79,0-1.14,0l-.94.05-.72.06-.46.06-.17,0h.65l.74,0,1,0,1.15.07,1.28.11c.44,0,.9.1,1.37.16l1.43.21c.48.07.95.16,1.43.25l1.39.29,1.3.32,1.17.32,1,.29.77.23.49.16Z"/><path class="cls-3" d="M46.75,23,46.54,23l-.6-.11c-.51-.1-1.24-.23-2.11-.33l-1.4-.14c-.5,0-1-.06-1.54-.08s-1.08,0-1.63,0-1.1,0-1.65.08-1.09.1-1.63.17-1,.14-1.54.23c-1,.18-1.9.39-2.65.6s-1.39.42-1.82.56l-.5.18-.17.07.18-.06L30,24c.44-.13,1.08-.3,1.86-.48s1.69-.37,2.69-.53c.5-.08,1-.15,1.55-.21s1.07-.11,1.62-.15,1.1-.07,1.65-.08,1.08,0,1.61,0,1,0,1.52,0l1.38.1c.86.08,1.58.16,2.08.24l.59.08Z"/><path class="cls-7" d="M44.07,18.55h-.39c-.25,0-.6,0-1,.07s-.87.12-1.36.21c-.24,0-.49.09-.73.15l-.75.19-.72.22c-.24.07-.46.15-.68.23-.44.17-.83.33-1.16.49s-.59.3-.76.4l-.21.12-.07,0,.1,0,.26-.06.92-.23L38.79,20l.71-.19.74-.2.73-.19.7-.19,1.23-.34.86-.25.23-.08Z"/><path class="cls-4" d="M37.43,17.33l-.14,0-.39.11c-.33.1-.8.25-1.35.45s-1.16.45-1.8.74l-1,.47-1,.52c-.32.18-.63.36-.93.55s-.6.37-.87.55c-.55.37-1.05.74-1.45,1.06s-.73.6-.95.8l-.26.23-.08.09a.46.46,0,0,1,.11-.07l.31-.2L28.81,22l1.58-1,.91-.53.94-.53c.32-.17.64-.35,1-.51l.93-.49c.61-.3,1.18-.59,1.67-.82L37,17.55l.33-.17Z"/><path class="cls-3" d="M40.09,12.93,39.9,13l-.51.21c-.43.19-1,.45-1.77.81-.35.18-.74.37-1.13.59s-.82.45-1.24.7-.84.52-1.27.8-.86.57-1.27.87-.83.61-1.22.92-.78.62-1.14.93c-.72.62-1.36,1.22-1.89,1.75s-1,1-1.25,1.31l-.33.37-.12.14.13-.13.37-.36c.31-.3.78-.74,1.34-1.25s1.24-1.1,2-1.7l1.16-.91c.4-.3.81-.61,1.23-.91l1.26-.87c.42-.28.84-.54,1.26-.8s.81-.5,1.19-.72.76-.43,1.1-.62c.68-.37,1.26-.67,1.67-.88l.47-.24Z"/><path class="cls-7" d="M34.28,12.78l-.06,0L34,12.9c-.14.08-.35.21-.57.36s-.48.34-.74.55l-.38.34L32,14.5l-.35.37c-.11.12-.22.24-.31.36a6,6,0,0,0-.51.67,4.08,4.08,0,0,0-.3.49l-.08.15a.12.12,0,0,1,0,.05l.06,0,.16-.11.53-.4.69-.58.36-.34.38-.35.35-.36a3.61,3.61,0,0,0,.33-.35c.21-.23.4-.45.55-.64s.27-.35.35-.46l.08-.14Z"/><path class="cls-7" d="M30.68,32l0,.07.09.22c.09.18.21.44.37.75s.33.66.53,1l.31.59.33.6.32.61.32.58.57,1,.42.72.12.2,0,.07,0-.08a2,2,0,0,1-.07-.22c-.06-.19-.15-.46-.26-.78s-.27-.69-.45-1.08c-.08-.2-.18-.4-.28-.6l-.3-.61c-.12-.21-.22-.41-.34-.61s-.23-.39-.34-.58c-.23-.37-.46-.72-.67-1a8.09,8.09,0,0,0-.52-.69L30.73,32Z"/><path class="cls-4" d="M17.65,8.34S22.53,14.07,23.38,21C23.38,21,23.23,12.4,17.65,8.34Z"/><path class="cls-7" d="M33.89,2.46a21.07,21.07,0,0,0-8.26,15.41S25.63,6.73,33.89,2.46Z"/><path class="cls-7" d="M35.77,33S41.12,37.53,42,43.69C42,43.69,39.14,35.7,35.77,33Z"/><path class="cls-3" d="M10,33.37a15.68,15.68,0,0,0-6.44,8A49,49,0,0,1,10,33.37Z"/><path class="cls-4" d="M40.73,30.45s6.35,3.08,7.69,10.07C48.42,40.52,46.34,34,40.73,30.45Z"/><path class="cls-8" d="M48.19,37.89l-.14-1.4-.22,1.43-.63-1.2.37,1.54s-1.19-.65-1.29-.74,1.12,1.37,1.12,1.37l-2-.38,1.9.89L45.49,40l1.83-.18-.72,1.15.92-.74-.78,2.15,1.34-1.82.08.92.27-1,.93,2.36-.42-2.36.82.82L48.93,40l2.32,1-2.38-1.3,3.16.08-3-.36,1.76-.59-1.45.28.38-.91-.91.7.83-2.74-1.22,2.37.09-1Z"/><path class="cls-5" d="M13.45,8.85l-.11-1.09-.17,1.12-.49-.94L13,9.13s-.92-.5-1-.57.87,1.06.87,1.06l-1.59-.29,1.47.69-1.36.43,1.42-.14-.56.89.71-.57-.6,1.66,1-1.41.07.71.2-.78.73,1.83L14,10.82l.64.63-.65-1,1.79.82-1.83-1,2.44.06-2.31-.28,1.36-.46-1.11.22.29-.7-.71.54.65-2.12-.94,1.83.06-.81Z"/><path class="cls-8" d="M15.57,39.81l-.11-1.09-.17,1.11-.49-.93.29,1.19s-.92-.5-1-.57.87,1.06.87,1.06l-1.59-.29,1.47.69-1.36.43,1.42-.14-.56.89.72-.58-.61,1.67,1-1.41.07.71.21-.78.72,1.83-.33-1.82.64.63-.65-1,1.8.82-1.84-1,2.44.06L16.23,41l1.37-.46-1.12.22.29-.7-.71.54.65-2.12-1,1.83.07-.81Z"/><path class="cls-9" d="M3.88,40.42l-.07-.71-.11.72-.32-.61.18.78s-.6-.33-.65-.37.57.7.57.7l-1-.2,1,.46-.9.28.93-.09L3.07,42l.47-.37-.39,1.09.68-.93,0,.47L4,41.71l.48,1.2-.22-1.2.42.42-.42-.63L5.44,42l-1.21-.66,1.6,0-1.51-.18.9-.3-.74.14.19-.46L4.21,41l.42-1.4L4,40.77l0-.54Z"/><path class="cls-9" d="M39.81,12.07l-.07-.71-.11.73-.32-.62.19.79s-.61-.33-.66-.38.57.7.57.7l-1-.19,1,.45-.9.29.93-.1-.36.59.47-.38-.41,1.1.69-.93,0,.47.13-.51.48,1.2-.22-1.2.43.41-.43-.63,1.18.53L40.16,13l1.6,0-1.51-.18.9-.31-.74.15.19-.46-.47.35.43-1.39-.62,1.2.05-.53Z"/><path class="cls-9" d="M32.93,42.46l-.06-.61-.09.63L32.5,42l.16.67s-.51-.28-.55-.32.49.59.49.59l-.89-.16.82.38-.77.24.8-.08-.31.5.4-.32-.34.93.58-.78,0,.39.12-.44.4,1-.18-1,.36.35-.37-.53,1,.45-1-.57,1.36,0-1.28-.15.76-.25-.63.12.17-.4-.4.3.36-1.18-.52,1,0-.46Z"/><path class="cls-7" d="M14.15,21.85S5.94,20.75,1.84,23C1.84,23,7.78,19.48,14.15,21.85Z"/><path class="cls-4" d="M24.51,25.68s-.51-3.56-7-5.12A6.84,6.84,0,0,1,24.51,25.68Z"/><path class="cls-4" d="M24.68,14.9S25,7.32,27,5.45C27,5.45,23.6,7.62,24.68,14.9Z"/><path class="cls-3" d="M22.24,24.59S16.33,19.09,9.6,20A22.64,22.64,0,0,1,22.24,24.59Z"/><path class="cls-4" d="M27.56,24.84a13.92,13.92,0,0,1,7.09-3.63S29.91,21.12,27.56,24.84Z"/><path class="cls-4" d="M28.3,19.18A7.28,7.28,0,0,0,26,24.23S25.8,19.76,28.3,19.18Z"/><path class="cls-5" d="M3.94,31.57l-.09-.91-.14.93-.41-.78.24,1s-.77-.42-.83-.48.72.88.72.88L2.1,32l1.24.58-1.14.36,1.18-.12-.47.74.6-.48L3,34.44l.87-1.17,0,.59.17-.65.61,1.52-.28-1.52.54.53-.54-.81,1.49.68-1.53-.84,2,0-1.93-.23,1.14-.38-.93.18.24-.59-.59.45.54-1.77L4.1,32l.06-.67Z"/><path class="cls-5" d="M45.5,29.65l-.07-.73-.12.74L45,29l.2.79s-.62-.33-.67-.38.58.71.58.71L44,30l1,.47-.91.28.95-.09-.37.59.47-.38L44.75,32l.69-.95,0,.48.14-.52.49,1.22L45.89,31l.43.42-.44-.64,1.2.54-1.23-.67,1.63,0-1.54-.18.91-.32-.74.15.19-.47-.47.36.43-1.42L45.63,30l0-.54Z"/><path class="cls-5" d="M33.47,1.45,33.36.24l-.2,1.23-.54-1,.32,1.33s-1-.56-1.11-.64,1,1.18,1,1.18L31,2l1.64.77-1.52.48,1.58-.15-.62,1,.79-.64-.68,1.85L33.37,3.7l.08.79.23-.87.8,2-.36-2,.71.7-.72-1.07,2,.9L34.06,3l2.71.07L34.21,2.8l1.51-.51-1.24.24.33-.77L34,2.35,34.74,0,33.69,2l.08-.91Z"/></g></g></g></g></svg>