<svg xmlns="http://www.w3.org/2000/svg" viewBox="0 0 69.35 68.14"><defs><style>.cls-1{isolation:isolate;}.cls-2{mix-blend-mode:hard-light;}.cls-3{fill:#eb027e;}.cls-4{fill:#02dbf3;}.cls-5{fill:#2471ba;}.cls-6{fill:#2e60a2;}.cls-7{fill:#0288c9;}.cls-8{fill:#7de8f2;}.cls-9{fill:#e96ab0;}</style></defs><g class="cls-1"><g id="Capa_2" data-name="Capa 2"><g id="Layer_1" data-name="Layer 1"><g class="cls-2"><path class="cls-3" d="M53.75,50a.4.4,0,0,1-.36.44h0a.39.39,0,0,1-.44-.35h0a.41.41,0,0,1,.36-.45h0a.4.4,0,0,1,.44.36Z"/><path class="cls-3" d="M53.54,47.6a.23.23,0,0,1-.2.26h0a.23.23,0,0,1-.27-.22h0a.24.24,0,0,1,.21-.26h0a.23.23,0,0,1,.26.22Z"/><path class="cls-3" d="M57.23,53.08a.25.25,0,0,1-.22.26h0a.23.23,0,0,1-.26-.22h0a.23.23,0,0,1,.2-.26h0a.26.26,0,0,1,.28.22Z"/><path class="cls-3" d="M58.94,50.18a.42.42,0,0,1-.38.46h0a.4.4,0,0,1-.45-.37h0a.41.41,0,0,1,.36-.47h0a.43.43,0,0,1,.47.38Z"/><path class="cls-3" d="M55.74,48a.21.21,0,0,1-.18.22h0a.19.19,0,0,1-.22-.18h0a.21.21,0,0,1,.18-.21h0a.22.22,0,0,1,.22.17Z"/><path class="cls-3" d="M39,54.19a.4.4,0,0,1-.35.45h0a.39.39,0,0,1-.44-.36h0a.38.38,0,0,1,.34-.44h0a.39.39,0,0,1,.45.35Z"/><path class="cls-3" d="M38.78,51.75a.23.23,0,0,1-.2.26h0a.23.23,0,0,1-.27-.21h0a.24.24,0,0,1,.2-.28h0a.26.26,0,0,1,.27.23Z"/><path class="cls-3" d="M42.46,57.22a.23.23,0,0,1-.22.27h0a.22.22,0,0,1-.25-.21h0a.24.24,0,0,1,.2-.27h0a.25.25,0,0,1,.27.21Z"/><path class="cls-3" d="M44.18,54.33a.42.42,0,0,1-.38.46h0a.4.4,0,0,1-.45-.37h0a.4.4,0,0,1,.36-.47h0a.43.43,0,0,1,.47.38Z"/><path class="cls-3" d="M41,52.14a.21.21,0,0,1-.18.22h0a.19.19,0,0,1-.21-.18h0a.19.19,0,0,1,.18-.21h0a.19.19,0,0,1,.21.17Z"/><path class="cls-3" d="M24.56,55.59a.4.4,0,0,1,.29.49h0a.4.4,0,0,1-.49.29h0a.41.41,0,0,1-.3-.49h0a.41.41,0,0,1,.5-.29Z"/><path class="cls-3" d="M22.2,54.92a.24.24,0,0,1,.16.3h0a.22.22,0,0,1-.28.17h0a.22.22,0,0,1-.17-.29h0a.23.23,0,0,1,.29-.18Z"/><path class="cls-3" d="M28.61,53.39a.24.24,0,0,1,.18.3h0a.27.27,0,0,1-.3.17h0a.27.27,0,0,1-.18-.3h0a.27.27,0,0,1,.3-.17Z"/><path class="cls-3" d="M26.5,50.77a.4.4,0,0,1,.29.51h0a.41.41,0,0,1-.5.31h0a.43.43,0,0,1-.31-.52h0a.42.42,0,0,1,.52-.3Z"/><path class="cls-3" d="M23.32,53a.19.19,0,0,1,.14.24h0a.19.19,0,0,1-.23.14h0a.18.18,0,0,1-.13-.24h0a.17.17,0,0,1,.22-.14Z"/><path class="cls-3" d="M18.49,58.27a.29.29,0,0,1,.33.28h0a.3.3,0,0,1-.27.35h0a.34.34,0,0,1-.36-.28h0a.34.34,0,0,1,.3-.35Z"/><path class="cls-3" d="M16.57,58.45a.21.21,0,0,1,.22.16h0a.22.22,0,0,1-.17.21h0a.2.2,0,0,1-.22-.17h0a.19.19,0,0,1,.17-.2Z"/><path class="cls-3" d="M20.83,55.53a.2.2,0,0,1,.21.17h0a.19.19,0,0,1-.17.21h0a.2.2,0,0,1-.21-.16h0a.2.2,0,0,1,.17-.22Z"/><path class="cls-3" d="M18.55,54.21a.33.33,0,0,1,.37.29h0a.34.34,0,0,1-.29.37h0a.34.34,0,0,1-.37-.29h0a.34.34,0,0,1,.29-.37Z"/><path class="cls-3" d="M16.87,56.74a.14.14,0,0,1,.15.13h0a.14.14,0,0,1-.13.17h0a.15.15,0,0,1-.16-.13h0a.15.15,0,0,1,.14-.17Z"/><path class="cls-3" d="M15.91,46.06a.3.3,0,0,1,.34.27h0a.3.3,0,0,1-.27.35h0a.31.31,0,0,1-.35-.28h0a.3.3,0,0,1,.28-.34Z"/><path class="cls-3" d="M14,46.23a.2.2,0,0,1,.22.17h0a.2.2,0,0,1-.17.21h0a.2.2,0,0,1-.21-.18h0a.19.19,0,0,1,.16-.2Z"/><path class="cls-3" d="M18.25,43.32a.2.2,0,0,1,.22.17h0a.2.2,0,0,1-.17.2h0a.19.19,0,0,1-.22-.16h0a.19.19,0,0,1,.17-.21Z"/><path class="cls-3" d="M16,42a.31.31,0,0,1,.36.28h0a.34.34,0,0,1-.29.38h0a.33.33,0,0,1-.36-.3h0A.31.31,0,0,1,16,42Z"/><path class="cls-3" d="M14.29,44.53a.13.13,0,0,1,.16.13h0a.13.13,0,0,1-.13.16h0a.15.15,0,0,1-.17-.13h0a.16.16,0,0,1,.14-.16Z"/><path class="cls-3" d="M14,33.62a.3.3,0,0,1,0,.44h0a.31.31,0,0,1-.44,0h0a.3.3,0,0,1,0-.45h0a.31.31,0,0,1,.45,0Z"/><path class="cls-3" d="M12.62,32.25a.19.19,0,0,1,0,.26h0a.17.17,0,0,1-.27,0h0a.2.2,0,0,1,0-.27h0a.2.2,0,0,1,.27,0Z"/><path class="cls-3" d="M17.57,33.69a.2.2,0,0,1,0,.27h0a.17.17,0,0,1-.26,0h0a.19.19,0,0,1,0-.27h0a.2.2,0,0,1,.27,0Z"/><path class="cls-3" d="M17.14,31.09a.33.33,0,0,1,0,.47h0a.33.33,0,0,1-.47,0h0a.33.33,0,0,1,0-.47h0a.32.32,0,0,1,.47,0Z"/><path class="cls-3" d="M14.12,31.4a.13.13,0,0,1,0,.21h0a.13.13,0,0,1-.2,0h0a.14.14,0,0,1,0-.21h0a.14.14,0,0,1,.21,0Z"/><path class="cls-3" d="M13.39,22.62a.32.32,0,0,1,0,.46h0a.31.31,0,0,1-.44,0h0a.31.31,0,0,1,0-.45h0a.32.32,0,0,1,.44,0Z"/><path class="cls-3" d="M12.05,21.26a.2.2,0,0,1,0,.27h0a.21.21,0,0,1-.27,0h0a.21.21,0,0,1,0-.28h0a.19.19,0,0,1,.28,0Z"/><path class="cls-3" d="M17,22.7A.2.2,0,0,1,17,23h0a.2.2,0,0,1-.27,0h0a.21.21,0,0,1,0-.28h0a.2.2,0,0,1,.27,0Z"/><path class="cls-3" d="M16.57,20.1a.33.33,0,0,1,0,.47h0a.34.34,0,0,1-.48,0h0a.34.34,0,0,1,0-.47h0a.34.34,0,0,1,.47,0Z"/><path class="cls-3" d="M13.54,20.41a.13.13,0,0,1,0,.21h0a.16.16,0,0,1-.22,0h0a.14.14,0,0,1,0-.21h0a.12.12,0,0,1,.2,0Z"/><path class="cls-3" d="M17,16a.42.42,0,0,1-.48.36h0a.42.42,0,0,1-.35-.47h0a.41.41,0,0,1,.46-.36h0A.44.44,0,0,1,17,16Z"/><path class="cls-3" d="M17.39,13.5a.23.23,0,0,1-.27.22h0a.28.28,0,0,1-.23-.29h0a.26.26,0,0,1,.3-.21h0a.24.24,0,0,1,.2.28Z"/><path class="cls-3" d="M19.71,19.93a.25.25,0,0,1-.29.21h0a.23.23,0,0,1-.2-.28h0a.24.24,0,0,1,.27-.22h0a.27.27,0,0,1,.22.29Z"/><path class="cls-3" d="M22.16,17.45a.44.44,0,0,1-.49.38h0a.45.45,0,0,1-.38-.5h0a.44.44,0,0,1,.5-.38h0a.43.43,0,0,1,.37.5Z"/><path class="cls-3" d="M19.48,14.45a.19.19,0,0,1-.22.17h0a.19.19,0,0,1-.17-.23h0a.24.24,0,0,1,.23-.18h0a.24.24,0,0,1,.16.24Z"/><path class="cls-3" d="M30.81,15.23a.41.41,0,0,1-.47.35h0a.42.42,0,0,1-.36-.47h0a.42.42,0,0,1,.48-.35h0a.41.41,0,0,1,.35.47Z"/><path class="cls-3" d="M31.23,12.73a.26.26,0,0,1-.29.21h0a.26.26,0,0,1-.21-.29h0a.25.25,0,0,1,.28-.21h0a.29.29,0,0,1,.22.29Z"/><path class="cls-3" d="M33.53,19.15a.25.25,0,0,1-.28.21h0a.25.25,0,0,1-.21-.28h0a.23.23,0,0,1,.27-.21h0a.24.24,0,0,1,.22.28Z"/><path class="cls-3" d="M36,16.67a.42.42,0,0,1-.49.37h0a.42.42,0,0,1-.37-.49h0a.45.45,0,0,1,.49-.38h0a.43.43,0,0,1,.37.5Z"/><path class="cls-3" d="M33.31,13.67a.2.2,0,0,1-.22.17h0a.21.21,0,0,1-.18-.22h0a.21.21,0,0,1,.23-.19h0a.21.21,0,0,1,.17.24Z"/><path class="cls-3" d="M46.08,16.42a.41.41,0,0,1,.51.29h0a.43.43,0,0,1-.3.51h0a.41.41,0,0,1-.51-.3h0a.4.4,0,0,1,.3-.5Z"/><path class="cls-3" d="M43.6,17a.25.25,0,0,1,.31.18h0a.24.24,0,0,1-.18.3h0a.25.25,0,0,1-.31-.17h0A.28.28,0,0,1,43.6,17Z"/><path class="cls-3" d="M48.67,12.41a.24.24,0,0,1,.3.18h0a.24.24,0,0,1-.18.3h0a.26.26,0,0,1-.31-.18h0a.25.25,0,0,1,.19-.3Z"/><path class="cls-3" d="M45.44,11.08a.43.43,0,0,1,.53.31h0a.43.43,0,0,1-.3.54h0a.44.44,0,0,1-.54-.31h0a.44.44,0,0,1,.31-.54Z"/><path class="cls-3" d="M43.69,14.69a.2.2,0,0,1,.24.15h0a.2.2,0,0,1-.14.24h0a.21.21,0,0,1-.25-.14h0a.21.21,0,0,1,.15-.25Z"/><path class="cls-3" d="M54,13.91a.36.36,0,0,1,.41.24h0a.37.37,0,0,1-.24.41h0a.33.33,0,0,1-.4-.24h0a.32.32,0,0,1,.23-.41Z"/><path class="cls-3" d="M52,14.37a.2.2,0,0,1,.24.14h0a.19.19,0,0,1-.15.23h0a.2.2,0,0,1-.25-.13h0a.21.21,0,0,1,.16-.24Z"/><path class="cls-3" d="M56,10.75a.21.21,0,0,1,.24.14h0a.19.19,0,0,1-.14.24h0a.21.21,0,0,1-.25-.14h0a.2.2,0,0,1,.15-.24Z"/><path class="cls-3" d="M53.46,9.7a.36.36,0,0,1,.43.24h0a.39.39,0,0,1-.26.44h0a.36.36,0,0,1-.42-.26h0a.34.34,0,0,1,.25-.42Z"/><path class="cls-3" d="M52.06,12.56a.15.15,0,0,1,.2.11h0a.18.18,0,0,1-.11.2h0a.18.18,0,0,1-.2-.12h0a.15.15,0,0,1,.11-.19Z"/><path class="cls-3" d="M55.07,23.1a.32.32,0,0,1,.4.24h0a.31.31,0,0,1-.24.4h0a.31.31,0,0,1-.38-.24h0a.32.32,0,0,1,.22-.4Z"/><path class="cls-3" d="M53.12,23.54a.2.2,0,0,1,.24.15h0a.19.19,0,0,1-.14.24h0a.2.2,0,0,1-.25-.14h0a.22.22,0,0,1,.15-.25Z"/><path class="cls-3" d="M57.12,19.93a.19.19,0,0,1,.24.15h0a.2.2,0,0,1-.14.24h0a.22.22,0,0,1-.24-.15h0a.2.2,0,0,1,.14-.24Z"/><path class="cls-3" d="M54.57,18.88a.36.36,0,0,1,.43.24h0a.35.35,0,0,1-.25.43h0a.33.33,0,0,1-.42-.25h0a.34.34,0,0,1,.24-.42Z"/><path class="cls-3" d="M53.18,21.74a.14.14,0,0,1,.19.11h0a.15.15,0,0,1-.11.2h0a.16.16,0,0,1-.19-.12h0a.15.15,0,0,1,.11-.19Z"/><path class="cls-3" d="M55.55,33.48a.35.35,0,0,1,.41.24h0a.34.34,0,0,1-.25.41h0a.32.32,0,0,1-.39-.24h0a.35.35,0,0,1,.23-.41Z"/><path class="cls-3" d="M53.6,33.94a.18.18,0,0,1,.23.14h0a.18.18,0,0,1-.13.24h0a.19.19,0,0,1-.24-.14h0a.19.19,0,0,1,.14-.24Z"/><path class="cls-3" d="M57.59,30.32a.21.21,0,0,1,.26.14h0a.2.2,0,0,1-.14.24h0a.19.19,0,0,1-.25-.14h0a.2.2,0,0,1,.13-.24Z"/><path class="cls-3" d="M55.05,29.27a.34.34,0,0,1,.42.24h0a.35.35,0,0,1-.24.44h0a.36.36,0,0,1-.42-.26h0a.34.34,0,0,1,.24-.42Z"/><path class="cls-3" d="M53.66,32.13a.16.16,0,0,1,.2.12h0a.15.15,0,0,1-.12.18h0a.16.16,0,0,1-.2-.11h0a.17.17,0,0,1,.12-.19Z"/><path class="cls-3" d="M54.77,42.2a.4.4,0,0,1-.09.57h0a.39.39,0,0,1-.55-.09h0a.4.4,0,0,1,.07-.57h0a.41.41,0,0,1,.57.09Z"/><path class="cls-3" d="M53.37,40.2a.21.21,0,0,1,0,.32h0a.23.23,0,0,1-.34-.05h0a.22.22,0,0,1,0-.33h0a.21.21,0,0,1,.33.06Z"/><path class="cls-3" d="M59.3,43.1a.24.24,0,0,1,0,.34h0a.24.24,0,0,1-.34-.06h0A.24.24,0,0,1,59,43h0a.25.25,0,0,1,.34.06Z"/><path class="cls-3" d="M59.34,39.73a.43.43,0,0,1-.09.59h0a.44.44,0,0,1-.6-.09h0a.42.42,0,0,1,.1-.59h0a.42.42,0,0,1,.59.09Z"/><path class="cls-3" d="M55.47,39.44a.22.22,0,0,1,0,.28h0a.22.22,0,0,1-.28-.06h0a.19.19,0,0,1,0-.27h0a.21.21,0,0,1,.28,0Z"/><path class="cls-4" d="M43.52,11.53a.84.84,0,0,1-.15.13L43,12c-.18.17-.38.39-.61.62s-.48.51-.74.82-.55.62-.84,1-.6.72-.9,1.12-.61.8-.9,1.22-.58.86-.88,1.29-.56.88-.82,1.31-.51.87-.75,1.29-.45.84-.65,1.22-.39.77-.55,1.12-.31.66-.44.94-.22.54-.31.74-.14.36-.19.48l-.06.17.12-.16c.06-.11.17-.26.29-.46a6.94,6.94,0,0,0,.45-.69c.19-.27.4-.57.6-.9s.46-.68.7-1.06l.79-1.19c.25-.4.55-.82.82-1.25s.57-.86.87-1.3l.85-1.27c.29-.42.56-.84.84-1.24s.53-.78.78-1.15.48-.72.7-1l.58-.88.43-.67c.12-.18.21-.33.27-.43Z"/><path class="cls-3" d="M30.44,12.4s0,.07,0,.21,0,.33.05.59c.06.51.13,1.23.23,2.1.06.44.12.9.17,1.41s.13,1,.2,1.56.15,1.1.23,1.68.17,1.14.24,1.71.17,1.16.26,1.73.17,1.12.24,1.66c.17,1.09.34,2.09.49,3s.27,1.59.35,2.09c0,.26.08.44.1.59s0,.2,0,.2a1.67,1.67,0,0,0,0-.21c0-.14,0-.33,0-.59,0-.51-.11-1.23-.2-2.11s-.2-1.89-.33-3c-.07-.54-.13-1.1-.2-1.67s-.17-1.15-.24-1.72-.17-1.17-.24-1.73-.19-1.13-.26-1.67-.18-1.06-.27-1.55L31,15.27c-.15-.86-.3-1.58-.39-2.08-.05-.26-.11-.45-.13-.59S30.44,12.4,30.44,12.4Z"/><path class="cls-5" d="M18.42,13l.08.1a2.13,2.13,0,0,0,.23.26c.19.24.48.57.84,1s.78.83,1.25,1.3l.74.71c.25.26.51.51.77.75s.51.5.78.74l.78.72c.5.47,1,.89,1.41,1.26s.76.67,1,.89a1.74,1.74,0,0,1,.31.23.44.44,0,0,1,.11.09l-.05-.11-.19-.29c-.18-.25-.42-.62-.72-1s-.71-.89-1.16-1.4l-.69-.76c-.25-.25-.5-.51-.76-.76s-.53-.51-.8-.74-.53-.47-.79-.69A16.89,16.89,0,0,0,20.05,14c-.46-.34-.86-.59-1.16-.77L18.55,13Z"/><path class="cls-6" d="M17.39,19.7l.15.1.41.29,1.49,1c.61.42,1.34.89,2.12,1.41l1.19.79L24,24.1l1.22.86c.4.28.81.56,1.19.84.76.54,1.48,1.07,2.09,1.52L30,28.42a4.41,4.41,0,0,1,.42.3.84.84,0,0,1,.15.11l-.11-.14-.32-.36c-.29-.31-.7-.75-1.23-1.25S27.72,26,27,25.4l-1.12-.89c-.39-.3-.8-.59-1.21-.87s-.83-.58-1.25-.85L22.17,22c-.82-.48-1.63-.91-2.33-1.25s-1.32-.61-1.75-.78l-.51-.21Z"/><path class="cls-4" d="M6.74,22.37l.18,0,.48.09,1.83.32c.73.13,1.61.29,2.55.48l1.45.29,1.49.33,1.48.34c.51.13,1,.24,1.44.37.94.24,1.81.47,2.55.68l1.82.52.5.14.19.06-.16-.09-.43-.22c-.37-.19-.92-.45-1.6-.74s-1.49-.6-2.39-.9c-.44-.14-.9-.29-1.39-.43l-1.47-.38-1.51-.32c-.51-.1-1-.18-1.5-.26-1-.14-1.91-.23-2.73-.28s-1.51-.06-2,0H6.74Z"/><path class="cls-6" d="M0,34.57l.23-.07c.15-.06.37-.14.66-.23l1-.34,1.32-.43L4.82,33l1.76-.47c.61-.16,1.24-.3,1.88-.45s1.3-.28,1.95-.4,1.29-.23,1.93-.33l1.88-.28c.6-.07,1.2-.14,1.75-.18l1.57-.14,1.31-.09c.4,0,.74,0,1-.06l.66,0h.24l-.23,0a5.62,5.62,0,0,0-.62-.06c-.27,0-.59-.05-1-.07s-.81,0-1.28,0-1,0-1.53,0-1.12,0-1.72.1-1.24.1-1.88.2-1.28.17-1.94.29l-2,.41c-.65.15-1.29.34-1.91.51s-1.22.37-1.79.56-1.12.39-1.62.58-.95.39-1.36.56-.76.34-1,.48l-.69.32Z"/><path class="cls-4" d="M27,33.44l-.27,0L26,33.3l-1.14-.11-1.5-.08c-.55,0-1.15,0-1.78,0s-1.33,0-2,.08-1.43.11-2.17.21-1.52.2-2.27.34-1.52.3-2.28.49-1.5.38-2.21.59-1.41.46-2.07.69-1.28.48-1.85.73-1.1.48-1.56.69-.86.42-1.21.58l-.76.41L2.87,38l.27-.12.77-.3c.33-.14.73-.28,1.19-.46s1-.37,1.56-.57L8.48,36c.65-.21,1.34-.4,2-.59S12,35,12.71,34.83s1.51-.34,2.26-.47,1.5-.27,2.25-.38,1.47-.2,2.19-.26,1.37-.13,2-.18l1.81-.09,1.54,0H26l.75,0Z"/><path class="cls-4" d="M29.13,34.63l-.27.06-.75.17c-.64.17-1.54.39-2.64.74-.53.17-1.13.38-1.73.61s-1.26.48-1.91.75-1.34.6-2,.92-1.36.69-2,1.06-1.34.78-2,1.18-1.27.82-1.89,1.24c-1.21.84-2.31,1.69-3.25,2.46S9,45.27,8.44,45.75l-.59.57-.22.22.22-.2c.14-.14.36-.31.62-.55.54-.46,1.3-1.1,2.24-1.84s2.06-1.56,3.28-2.37c.61-.42,1.26-.82,1.91-1.22s1.31-.8,2-1.17,1.35-.72,2-1.06,1.35-.65,2-.93,1.29-.56,1.89-.8S25,36,25.52,35.76c1.07-.37,2-.66,2.6-.84l.74-.21Z"/><path class="cls-7" d="M18.37,36.29l-.16,0-.42.11c-.37.1-.88.26-1.49.47s-1.34.47-2.11.8c-.39.17-.78.34-1.17.53l-1.21.6-1.19.66-1.12.68c-.73.47-1.41.94-2,1.35s-1,.79-1.34,1.06-.3.25-.39.31a.66.66,0,0,1-.13.12l.14-.09.41-.23,1.42-.85,2-1.17L10.79,40c.38-.22.78-.43,1.18-.64l1.18-.62,1.15-.57c.74-.37,1.45-.7,2.06-1l1.45-.69a3.11,3.11,0,0,0,.4-.19Z"/><path class="cls-7" d="M27.62,37.07a.88.88,0,0,0-.19.06c-.14,0-.32.1-.55.19-.47.17-1.12.43-1.91.78s-1.67.78-2.61,1.31c-.45.25-.93.53-1.41.83s-1,.61-1.42.93-1,.65-1.41,1-.88.68-1.3,1c-.84.68-1.59,1.36-2.22,2s-1.12,1.13-1.48,1.5c-.17.2-.3.34-.38.45l-.15.16.16-.14c.11-.08.26-.22.45-.39l1.61-1.34c.67-.55,1.46-1.18,2.31-1.82.44-.34.88-.67,1.33-1l1.4-1q.69-.48,1.41-.93c.46-.3.93-.6,1.37-.86.92-.56,1.76-1,2.51-1.45l1.79-1,.5-.26A.94.94,0,0,1,27.62,37.07Z"/><path class="cls-6" d="M21.66,41.77l-.16.11-.45.29c-.38.26-.91.64-1.54,1.13s-1.33,1.08-2.05,1.75c-.39.33-.75.69-1.12,1.05s-.73.74-1.09,1.13-.73.78-1.06,1.19-.67.79-1,1.19c-.62.78-1.17,1.54-1.62,2.21s-.8,1.22-1.05,1.63l-.27.47-.1.17.12-.16a3.24,3.24,0,0,0,.33-.42L11.84,52c.51-.62,1.11-1.33,1.75-2.08.33-.38.65-.77,1-1.16s.7-.77,1.06-1.15.73-.77,1.07-1.14l1.08-1.07c.69-.69,1.35-1.32,1.92-1.85s1.07-1,1.39-1.28l.4-.36Z"/><path class="cls-3" d="M26.66,39.23l-.16.14-.48.41c-.39.36-1,.86-1.63,1.51l-1,1.05c-.35.38-.72.78-1.1,1.21s-.75.88-1.12,1.34-.75.94-1.11,1.42-.7,1-1,1.47l-1,1.44c-.59,1-1.12,1.86-1.54,2.65s-.76,1.45-1,1.92c-.12.23-.2.42-.26.55l-.09.19.1-.18.3-.54c.25-.45.62-1.11,1.08-1.88s1-1.65,1.62-2.59c.31-.47.64-1,1-1.43s.69-1,1.05-1.46.73-1,1.1-1.41.73-.92,1.09-1.35.73-.85,1.09-1.23.67-.74,1-1.07c.63-.67,1.16-1.2,1.52-1.58l.45-.44Z"/><path class="cls-4" d="M31.13,36.42l-.17.17-.49.5c-.2.22-.46.48-.73.79s-.59.66-.91,1-.68.82-1,1.29-.73.94-1.08,1.45-.72,1.06-1.06,1.61-.7,1.13-1,1.7-.63,1.16-.94,1.74-.57,1.14-.82,1.7-.49,1.1-.71,1.61-.4,1-.57,1.47-.31.87-.43,1.24-.22.7-.31,1-.14.48-.18.63a2,2,0,0,1-.07.21l.11-.21.25-.6.4-.94.55-1.22c.19-.44.43-.92.67-1.42s.5-1,.78-1.58l.88-1.68c.3-.56.63-1.13,1-1.71l1-1.68c.34-.55.68-1.09,1-1.61s.67-1,1-1.49.62-.91.92-1.31L30,38c.24-.32.45-.61.63-.83s.31-.43.4-.55Z"/><path class="cls-3" d="M32.32,36.56l-.09.19c-.06.12-.15.29-.25.52l-.38.8c-.12.32-.27.68-.43,1.08s-.31.81-.48,1.26-.33.93-.49,1.43-.32,1-.46,1.53-.3,1.07-.44,1.59S29,46,28.93,46.57s-.22,1-.32,1.55-.18,1-.25,1.46-.14.9-.18,1.31-.11.78-.13,1.1-.06.63-.08.87,0,.41,0,.54v.21s0-.08,0-.21a4.28,4.28,0,0,0,.11-.53c.05-.24.12-.52.19-.85s.15-.69.23-1.09.2-.84.29-1.3l.35-1.44c.12-.5.25-1,.37-1.54s.27-1.06.41-1.59l.42-1.59c.16-.52.29-1,.43-1.53s.28-1,.41-1.44.27-.88.38-1.28.23-.77.32-1.09.18-.6.24-.84.13-.41.16-.54Z"/><path class="cls-7" d="M26.93,46.1a1.63,1.63,0,0,0-.09.16c-.06.12-.15.28-.25.49s-.23.45-.37.75-.3.61-.45,1-.32.76-.48,1.18-.34.86-.51,1.33-.32.93-.47,1.42-.29,1-.44,1.48-.27,1-.38,1.49-.21,1-.3,1.45-.19.93-.26,1.35-.12.84-.18,1.22-.07.73-.12,1-.05.58-.07.79,0,.4,0,.51,0,.19,0,.19l0-.18c0-.12.07-.29.1-.5s.11-.47.17-.78.14-.64.22-1,.17-.77.27-1.19.22-.88.32-1.35.25-.94.38-1.42.25-1,.39-1.48.28-1,.43-1.48.28-1,.43-1.43.3-.9.43-1.34.27-.82.4-1.19.24-.71.33-1,.19-.55.28-.77l.16-.51Z"/><path class="cls-7" d="M32.29,46.27s0,.09,0,.25-.08.39-.12.69c-.09.59-.24,1.45-.37,2.47-.06.52-.13,1.07-.21,1.66s-.14,1.21-.2,1.84-.12,1.31-.17,2-.11,1.35-.15,2-.07,1.37-.11,2-.05,1.34-.06,2c-.05,1.29-.06,2.49-.06,3.51s0,1.88,0,2.48c0,.3,0,.53,0,.7v.23a2.07,2.07,0,0,0,0-.23c0-.17,0-.4,0-.7,0-.6.06-1.45.11-2.47s.1-2.22.17-3.5c0-.64.08-1.31.12-2s.09-1.36.14-2,.09-1.37.14-2,.1-1.33.15-2,.09-1.26.15-1.85S32,50.21,32,49.7c.09-1,.16-1.89.21-2.48,0-.31.05-.55.06-.7S32.29,46.27,32.29,46.27Z"/><path class="cls-4" d="M33.6,35.56s0,.09,0,.24v1.63c0,.39,0,.83,0,1.31s0,1,0,1.53.06,1.12.1,1.71.06,1.2.12,1.82.08,1.25.14,1.89.1,1.26.16,1.88.12,1.23.17,1.83.11,1.15.18,1.69.12,1,.17,1.53.1.9.15,1.28.09.73.14,1,.07.48.08.63l0,.23v-.23c0-.15,0-.36,0-.64s0-.62,0-1,0-.82,0-1.29,0-1-.06-1.53-.05-1.12-.09-1.72-.07-1.2-.11-1.83-.07-1.25-.11-1.88-.1-1.26-.14-1.88-.11-1.24-.16-1.82-.1-1.17-.16-1.71-.11-1-.16-1.52-.12-.9-.17-1.29-.1-.72-.13-1l-.09-.64C33.61,35.65,33.6,35.56,33.6,35.56Z"/><path class="cls-6" d="M35.33,39.28v.34c0,.2.05.5.09.85a10.5,10.5,0,0,0,.19,1.2c0,.21.07.43.11.67s.1.45.16.69.1.45.16.68.11.44.18.66c.11.43.23.82.35,1.17s.22.62.3.81a1.57,1.57,0,0,0,.09.23l0,.09v-.33c0-.21,0-.5-.06-.85s-.08-.77-.14-1.21c0-.21-.09-.44-.12-.67s-.1-.46-.14-.69-.1-.46-.17-.68a6.55,6.55,0,0,0-.18-.67c-.12-.43-.25-.83-.37-1.16s-.25-.62-.33-.82l-.11-.22A.37.37,0,0,1,35.33,39.28Z"/><path class="cls-6" d="M37.77,52a1.09,1.09,0,0,1,0,.12v.3a9.74,9.74,0,0,0,0,1.09c0,.45,0,1,.07,1.54,0,.28,0,.57.08.86s.05.59.08.89.07.6.09.9.08.58.11.86c.07.56.16,1.08.24,1.52s.15.82.2,1.08a2.64,2.64,0,0,1,0,.3l0,.11a.75.75,0,0,1,0-.11v-.3c0-.27,0-.65,0-1.1s0-1,0-1.54q0-.42-.06-.87c0-.29,0-.59-.08-.89s-.05-.6-.09-.89-.06-.58-.1-.86c-.08-.56-.15-1.08-.24-1.53s-.16-.81-.23-1.08,0-.22-.07-.29Z"/><path class="cls-3" d="M37.35,41.08a.88.88,0,0,0,.09.17,5,5,0,0,0,.24.51c.22.43.51,1,.86,1.79.18.36.36.76.57,1.19s.4.87.62,1.33l.63,1.44c.22.5.42,1,.64,1.49l.6,1.51c.19.49.39,1,.56,1.46.36.94.69,1.83,1,2.59s.49,1.4.64,1.84c.07.22.13.4.16.52l.06.19s0-.07,0-.2a5.12,5.12,0,0,1-.13-.53c-.13-.45-.3-1.09-.53-1.86s-.52-1.66-.86-2.62c-.17-.48-.34-1-.53-1.48s-.39-1-.6-1.5-.41-1-.64-1.49-.43-1-.65-1.44l-.65-1.33c-.21-.42-.44-.82-.62-1.18-.39-.73-.74-1.33-1-1.75-.12-.2-.22-.36-.28-.48Z"/><path class="cls-7" d="M40.22,51.72s0,.05,0,.15.06.21.1.38c.05.35.16.83.29,1.4s.3,1.25.48,2c.08.35.18.73.28,1.1s.19.75.28,1.13L42,59c.09.37.19.73.28,1.1.18.71.35,1.37.5,1.93s.28,1.05.37,1.37a3.29,3.29,0,0,0,.11.38.5.5,0,0,1,0,.14v-.14c0-.09,0-.23,0-.39,0-.35-.09-.84-.17-1.41s-.2-1.26-.34-2c-.08-.36-.15-.73-.23-1.11s-.17-.76-.27-1.14-.18-.77-.3-1.14-.2-.74-.31-1.1c-.21-.7-.42-1.36-.62-1.92s-.39-1-.53-1.34a3.93,3.93,0,0,0-.17-.38A.93.93,0,0,1,40.22,51.72Z"/><path class="cls-4" d="M37.67,36.78l.17.18.51.47.76.76,1,1,1.14,1.19c.41.43.82.88,1.25,1.35l1.3,1.48,1.29,1.56c.42.52.83,1.06,1.23,1.58s.79,1.06,1.16,1.57l1,1.49.89,1.33.73,1.15.55.89.36.57a1.72,1.72,0,0,0,.12.21,1.91,1.91,0,0,0-.1-.21c-.06-.14-.15-.35-.28-.61s-.27-.58-.46-.93-.4-.76-.63-1.19-.5-.91-.81-1.4-.61-1-1-1.53-.72-1.06-1.12-1.61S46,45,45.61,44.47l-1.3-1.57c-.45-.51-.91-1-1.35-1.46s-.89-.91-1.32-1.32-.84-.8-1.23-1.15-.75-.65-1.09-.92-.62-.51-.88-.69-.43-.33-.57-.43Z"/><path class="cls-6" d="M41.07,35.6a1.18,1.18,0,0,0,.18.1l.56.29.85.44,1.1.59c.4.21.83.46,1.29.72s.92.54,1.41.83,1,.61,1.5.92,1,.66,1.53,1,1,.69,1.5,1l1.44,1.05c.45.34.91.68,1.32,1l1.17.94,1,.82.74.63.49.41.16.15-.14-.17c-.1-.11-.24-.27-.43-.46l-.67-.71c-.27-.26-.57-.57-.92-.88s-.7-.67-1.1-1-.82-.71-1.27-1.08-.92-.73-1.41-1.09-1-.72-1.51-1.07l-1.54-1c-.52-.32-1-.61-1.54-.9s-1-.54-1.49-.78-.91-.45-1.34-.63-.81-.37-1.16-.51l-.91-.35-.6-.21Z"/><path class="cls-3" d="M55.13,49.45s-.54-.75-1.42-1.81L53,46.8c-.28-.3-.55-.61-.84-.93l-.94-1-1-1-1-.94-1-.86c-.68-.55-1.33-1.06-1.89-1.46-1.14-.83-1.94-1.32-1.94-1.32l1.82,1.43L48,42.31l1,.89,1,.93c.35.31.69.63,1,.95l1,.94c.32.31.59.61.88.89s.54.56.76.82C54.52,48.75,55.13,49.45,55.13,49.45Z"/><path class="cls-6" d="M61.84,41.07l-.27-.17-.76-.45c-.67-.39-1.61-.93-2.75-1.5-.58-.28-1.21-.58-1.87-.88s-1.36-.59-2.09-.88-1.48-.55-2.25-.81-1.57-.49-2.36-.72-1.58-.39-2.35-.56-1.53-.31-2.3-.42a40.25,40.25,0,0,0-4.06-.44c-1.18-.07-2.17-.06-2.85-.06l-.8,0h0l.8,0c.69,0,1.68.07,2.85.17s2.58.27,4,.53c.75.12,1.51.28,2.28.45s1.56.36,2.35.57,1.57.44,2.33.7,1.54.51,2.26.78,1.44.55,2.09.84,1.29.56,1.87.83c1.16.54,2.11,1,2.78,1.39l.78.42Z"/><path class="cls-4" d="M63.62,36.12l-.23-.1a6.5,6.5,0,0,0-.66-.3l-1-.43c-.4-.16-.85-.34-1.34-.51s-1-.36-1.56-.52-1.16-.35-1.75-.5l-1.89-.46c-.63-.11-1.27-.24-1.91-.34s-1.29-.19-1.91-.26-1.25-.12-1.84-.15-1.17-.06-1.7-.06-1,0-1.51,0-.89,0-1.28.06l-.95.09-.61.07-.22,0h.86l1,0,1.28,0,1.54.1,1.7.13c.6.06,1.21.15,1.83.22s1.26.17,1.91.28,1.27.21,1.9.34,1.25.24,1.85.39,1.18.27,1.73.42,1.09.28,1.56.42.93.26,1.32.39l1,.31.66.21Z"/><path class="cls-3" d="M62.33,30.68a1.94,1.94,0,0,0-.29-.06l-.81-.16c-.68-.13-1.66-.3-2.82-.45l-1.85-.17c-.65-.05-1.34-.1-2.06-.11s-1.43,0-2.17,0-1.46.05-2.2.11S48.67,30,48,30s-1.39.2-2.05.32c-1.32.23-2.53.52-3.55.8s-1.84.55-2.4.74c-.3.1-.52.19-.67.25l-.23.08.23-.08L40,32c.6-.18,1.46-.4,2.49-.64s2.26-.49,3.58-.71c.67-.11,1.36-.2,2.07-.28s1.44-.15,2.16-.21,1.47-.08,2.2-.11h2.14c.71,0,1.39,0,2,.07l1.85.14c1.13.1,2.09.22,2.77.32l.78.1Z"/><path class="cls-7" d="M58.75,24.74h-.53c-.33,0-.81.05-1.34.11s-1.17.14-1.81.26c-.33.07-.66.13-1,.21l-1,.25c-.32.1-.65.19-1,.3s-.62.21-.9.31a13,13,0,0,0-1.54.65,11.11,11.11,0,0,0-1,.53l-.28.15-.1.07.13,0,.36-.09L50,27.15l1.7-.45c.3-.1.62-.18.95-.26l1-.26c.33-.09.66-.17,1-.27l.94-.25c.6-.16,1.17-.31,1.64-.45l1.14-.34.3-.1A.39.39,0,0,1,58.75,24.74Z"/><path class="cls-4" d="M49.9,23.1l-.18.06-.52.14c-.46.14-1.08.34-1.81.6s-1.55.61-2.4,1c-.43.2-.87.41-1.29.63s-.87.44-1.29.68l-1.25.73c-.4.25-.8.51-1.15.75-.74.5-1.41,1-1.94,1.41s-1,.8-1.27,1.07a4.07,4.07,0,0,0-.34.31l-.11.11.15-.1.41-.26c.37-.22.87-.56,1.49-.93s1.34-.84,2.1-1.3c.4-.22.81-.45,1.22-.7L43,26.58c.43-.23.85-.46,1.29-.67s.83-.45,1.24-.65l2.23-1.11c.65-.32,1.19-.57,1.58-.75l.44-.22Z"/><path class="cls-3" d="M53.44,17.24a1.68,1.68,0,0,1-.25.09l-.68.28c-.58.25-1.41.6-2.36,1.08-.47.24-1,.49-1.53.79s-1.07.6-1.63.94-1.13.68-1.71,1.06-1.12.76-1.68,1.16-1.1.81-1.63,1.22-1,.84-1.51,1.25c-1,.82-1.81,1.62-2.52,2.33s-1.28,1.31-1.67,1.74l-.44.5-.15.18a2,2,0,0,1,.17-.17c.11-.11.28-.27.48-.48.43-.41,1-1,1.8-1.67s1.64-1.46,2.63-2.26c.49-.4,1-.8,1.55-1.22L44,22.86c.56-.4,1.12-.79,1.68-1.16s1.13-.73,1.68-1.07,1.07-.67,1.6-1l1.45-.82c.92-.5,1.67-.9,2.22-1.17.28-.13.49-.25.63-.32Z"/><path class="cls-7" d="M45.7,17l-.09.05a1.29,1.29,0,0,0-.23.12c-.19.1-.47.27-.77.46s-.64.47-1,.75c-.17.14-.34.29-.5.45s-.34.3-.5.46l-.47.49-.42.48c-.26.32-.49.62-.67.89s-.31.51-.41.67a1.64,1.64,0,0,0-.08.19l0,.07.07,0a1.44,1.44,0,0,0,.21-.15c.18-.13.43-.31.72-.54s.59-.48.9-.77l.51-.45.5-.47.46-.47a6.11,6.11,0,0,0,.43-.47,10.41,10.41,0,0,0,.75-.85c.19-.25.35-.47.45-.62s.09-.15.13-.19A.14.14,0,0,1,45.7,17Z"/><path class="cls-7" d="M40.88,42.6l.06.1a1.61,1.61,0,0,0,.13.28c.1.25.28.59.47,1s.45.89.72,1.4c.13.26.28.52.42.78l.42.81c.15.27.3.54.44.81s.28.52.42.78c.28.5.55,1,.77,1.38s.41.74.55,1l.16.26a.51.51,0,0,0,.07.1.26.26,0,0,1,0-.11c0-.06,0-.17-.07-.29s-.2-.62-.37-1a13.78,13.78,0,0,0-.59-1.44c-.11-.27-.23-.54-.37-.81l-.41-.82c-.14-.27-.3-.54-.44-.81l-.46-.77c-.32-.49-.61-.95-.88-1.34s-.52-.69-.7-.92L41,42.69Z"/><path class="cls-4" d="M23.54,11.12S30,18.75,31.16,28C31.16,28,31,16.53,23.54,11.12Z"/><path class="cls-7" d="M45.18,3.28a28.14,28.14,0,0,0-11,20.54S34.18,9,45.18,3.28Z"/><path class="cls-7" d="M47.68,43.93S54.81,50,56,58.24C56,58.24,52.17,47.59,47.68,43.93Z"/><path class="cls-3" d="M13.37,44.49A20.91,20.91,0,0,0,4.78,55.16,64.7,64.7,0,0,1,13.37,44.49Z"/><path class="cls-4" d="M54.29,40.58S62.76,44.7,64.55,54C64.55,54,61.78,45.38,54.29,40.58Z"/><path class="cls-8" d="M64.23,50.52l-.18-1.88-.3,1.92L62.91,49l.5,2.06s-1.58-.87-1.72-1,1.49,1.83,1.49,1.83l-2.73-.51L63,52.53l-2.37.74L63.08,53l-1,1.54,1.23-1-1,2.86L64.09,54l.12,1.21.34-1.33,1.25,3.15-.57-3.14L66.34,55l-1.12-1.66,3.1,1.4L65.15,53l4.2.1-4-.47,2.35-.79-1.93.37.51-1.2-1.22.92,1.11-3.65-1.62,3.16L64.69,50Z"/><path class="cls-5" d="M17.93,11.8l-.15-1.45-.22,1.49-.67-1.25.39,1.59s-1.22-.67-1.33-.76,1.17,1.41,1.17,1.41L15,12.44l2,.92-1.82.57L17,13.75l-.72,1.19.94-.77-.81,2.21,1.38-1.87.08,1,.28-1,1,2.43-.45-2.43.86.85L18.68,14l2.4,1.08-2.45-1.34,3.26.07-3.08-.36,1.82-.61-1.49.29.39-.93-1,.71.86-2.82-1.26,2.44.1-1.08Z"/><path class="cls-8" d="M20.75,53.08l-.13-1.45-.24,1.48-.66-1.26.39,1.6s-1.23-.67-1.32-.76,1.15,1.42,1.15,1.42l-2.11-.4,2,.93L18,55.2l1.9-.18-.75,1.18.95-.76-.81,2.22,1.38-1.88.09.95.27-1,1,2.44-.43-2.44.85.85-.86-1.29,2.39,1.09L21.47,55l3.24.07-3.06-.35,1.81-.62-1.5.29.4-.93-.95.72.86-2.83L21,53.78l.09-1.08Z"/><path class="cls-9" d="M5.17,53.88l-.09-1-.15,1-.43-.83.25,1.05s-.81-.43-.87-.5.76.93.76.93l-1.39-.25,1.29.59-1.2.38,1.26-.11-.5.77.62-.5L4.2,56.9l.9-1.24.05.63.19-.68L6,57.21l-.3-1.6.58.56-.58-.85,1.58.7-1.61-.88,2.13.06-2-.24L7,54.55l-1,.19.25-.61-.61.47.57-1.85-.83,1.6.06-.71Z"/><path class="cls-9" d="M53.07,16.09l-.1-.94-.14,1-.43-.82.25,1.05s-.8-.44-.87-.51.76.93.76.93l-1.4-.25,1.29.6-1.19.38,1.24-.12-.48.78.62-.51-.54,1.47L53,17.88l.07.62.18-.68.63,1.61-.29-1.6.56.55-.57-.85,1.57.72-1.6-.9,2.13.06-2-.23,1.19-.41-1,.18.26-.6-.63.46L54.07,15l-.82,1.6,0-.7Z"/><path class="cls-9" d="M43.9,56.6l-.08-.81-.12.83-.37-.69.21.88s-.69-.38-.75-.43.66.8.66.8L42.26,57l1.1.53-1,.32,1.06-.11-.41.66.53-.42-.46,1.24.78-1.05,0,.52.15-.57.54,1.36-.25-1.36.48.47-.48-.72,1.34.61-1.36-.76,1.8,0-1.72-.2,1-.35-.85.16.22-.52-.54.4.5-1.57L44.05,57l0-.61Z"/><path class="cls-7" d="M18.85,29.14S7.92,27.66,2.45,30.7C2.45,30.7,10.37,26,18.85,29.14Z"/><path class="cls-4" d="M32.67,34.24S32,29.49,23.33,27.4A9.14,9.14,0,0,1,32.67,34.24Z"/><path class="cls-4" d="M32.9,19.87S33.26,9.77,36,7.26C36,7.26,31.46,10.17,32.9,19.87Z"/><path class="cls-3" d="M29.65,32.78s-7.88-7.34-16.86-6.14C12.79,26.64,21.06,26.47,29.65,32.78Z"/><path class="cls-4" d="M36.74,33.12a18.62,18.62,0,0,1,9.44-4.85S39.87,28.16,36.74,33.12Z"/><path class="cls-4" d="M37.73,25.58a9.59,9.59,0,0,0-3.09,6.73S34.39,26.35,37.73,25.58Z"/><path class="cls-5" d="M5.25,42.09l-.12-1.21-.19,1.24-.54-1,.31,1.33s-1-.56-1.11-.64,1,1.18,1,1.18L2.8,42.62l1.64.77-1.51.47,1.58-.14-.63,1,.8-.63L4,45.92l1.15-1.57.07.78.23-.86.8,2-.36-2,.72.7-.72-1.07,2,.9-2-1.13,2.7.07L6,43.45l1.51-.52-1.25.24.33-.77-.79.6.73-2.36-1.06,2,.08-.91Z"/><path class="cls-5" d="M60.64,39.52l-.09-1-.14,1L60,38.71l.25,1.06s-.82-.45-.89-.51.78.94.78.94l-1.42-.26,1.32.63L58.79,41l1.26-.12-.49.79.64-.51-.55,1.48.93-1.25.05.62.18-.69.66,1.63-.3-1.62.57.56L61.16,41l1.6.72-1.64-.9,2.17.06-2.06-.25,1.23-.41-1,.19.25-.62-.64.48.59-1.89L60.83,40l.05-.73Z"/><path class="cls-5" d="M44.62,1.93,44.46.32,44.21,2,43.48.59l.43,1.76s-1.37-.74-1.48-.85,1.29,1.58,1.29,1.58l-2.36-.44,2.18,1-2,.63,2.11-.2-.84,1.32,1.07-.86L43,7l1.54-2.1L44.59,6l.3-1.15L46,7.54l-.5-2.7,1,.94-1-1.43,2.66,1.2L45.4,4.05,49,4.14l-3.4-.4,2-.69L46,3.38l.43-1-1,.8,1-3.14-1.4,2.71L45,1.52Z"/></g></g></g></g></svg>