<svg xmlns="http://www.w3.org/2000/svg" viewBox="0 0 41.5 38.35"><defs><style>.cls-1{isolation:isolate;}.cls-2{mix-blend-mode:hard-light;}.cls-3{fill:#ec613b;}.cls-4{fill:#00b11b;}.cls-5{fill:#00daa4;}.cls-6{fill:#e73934;}.cls-7{fill:#67eccf;}</style></defs><g class="cls-1"><g id="Capa_2" data-name="Capa 2"><g id="Layer_1" data-name="Layer 1"><g class="cls-2"><path class="cls-3" d="M34.12,26.6a.27.27,0,0,1-.2.31h0a.26.26,0,0,1-.3-.21h0a.25.25,0,0,1,.2-.3h0a.26.26,0,0,1,.3.2Z"/><path class="cls-3" d="M33.86,25.07a.17.17,0,0,1-.13.19h0a.15.15,0,0,1-.17-.12h0a.14.14,0,0,1,.11-.18h0a.16.16,0,0,1,.19.11Z"/><path class="cls-3" d="M36.48,28.32a.16.16,0,0,1-.12.18h0a.17.17,0,0,1-.19-.12h0a.17.17,0,0,1,.12-.19h0a.17.17,0,0,1,.19.13Z"/><path class="cls-3" d="M37.4,26.39a.3.3,0,0,1-.22.33h0a.28.28,0,0,1-.31-.22h0a.27.27,0,0,1,.21-.32h0a.28.28,0,0,1,.32.21Z"/><path class="cls-3" d="M35.25,25.2a.12.12,0,0,1-.1.15h0a.12.12,0,0,1-.14-.1h0a.13.13,0,0,1,.09-.15h0a.15.15,0,0,1,.15.1Z"/><path class="cls-3" d="M25.07,30.05a.26.26,0,0,1-.2.31h0a.27.27,0,0,1-.3-.21h0a.25.25,0,0,1,.19-.3h0a.26.26,0,0,1,.31.2Z"/><path class="cls-3" d="M24.8,28.52a.15.15,0,0,1-.11.18h0a.14.14,0,0,1-.18-.12h0a.15.15,0,0,1,.11-.18h0a.16.16,0,0,1,.18.12Z"/><path class="cls-3" d="M27.43,31.76c0,.08-.05.17-.12.18h0a.14.14,0,0,1-.18-.12h0a.15.15,0,0,1,.11-.18h0a.16.16,0,0,1,.19.12Z"/><path class="cls-3" d="M28.34,29.84a.27.27,0,0,1-.21.32h0a.28.28,0,0,1-.31-.21h0a.27.27,0,0,1,.21-.32h0a.26.26,0,0,1,.31.21Z"/><path class="cls-3" d="M26.2,28.65a.12.12,0,0,1-.1.14h0A.12.12,0,0,1,26,28.7h0a.15.15,0,0,1,.1-.15h0a.13.13,0,0,1,.15.1Z"/><path class="cls-3" d="M16.07,31.75a.24.24,0,0,1,.21.29h0a.24.24,0,0,1-.28.21h0a.27.27,0,0,1-.23-.29h0a.26.26,0,0,1,.3-.21Z"/><path class="cls-3" d="M14.56,31.46a.15.15,0,0,1,.11.18h0a.14.14,0,0,1-.17.12h0a.16.16,0,0,1-.13-.17h0a.17.17,0,0,1,.19-.13Z"/><path class="cls-3" d="M18.5,30.13a.16.16,0,0,1,.12.18h0a.14.14,0,0,1-.17.13h0a.17.17,0,0,1-.13-.18h0a.17.17,0,0,1,.18-.13Z"/><path class="cls-3" d="M17,28.61a.26.26,0,0,1,.22.3h0a.26.26,0,0,1-.31.22h0a.25.25,0,0,1-.21-.3h0a.25.25,0,0,1,.3-.22Z"/><path class="cls-3" d="M15.15,30.2a.12.12,0,0,1,.1.14h0a.12.12,0,0,1-.14.1h0a.12.12,0,0,1-.1-.14h0a.12.12,0,0,1,.14-.1Z"/><path class="cls-3" d="M12.4,33.78a.2.2,0,0,1,.24.16h0a.2.2,0,0,1-.16.23h0a.19.19,0,0,1-.23-.16h0a.19.19,0,0,1,.15-.23Z"/><path class="cls-3" d="M11.21,34a.11.11,0,0,1,.14.09h0a.12.12,0,0,1-.09.14h0a.11.11,0,0,1-.14-.1h0a.11.11,0,0,1,.09-.13Z"/><path class="cls-3" d="M13.73,31.92a.11.11,0,0,1,.13.09h0a.12.12,0,0,1-.08.15h0a.13.13,0,0,1-.15-.09h0a.13.13,0,0,1,.1-.15Z"/><path class="cls-3" d="M12.21,31.22a.21.21,0,0,1,.25.16h0a.2.2,0,0,1-.16.25h0a.22.22,0,0,1-.25-.16h0a.23.23,0,0,1,.16-.25Z"/><path class="cls-3" d="M11.29,32.91a.1.1,0,0,1,.12.07h0a.1.1,0,0,1-.07.11h0a.09.09,0,0,1-.12-.07h0a.1.1,0,0,1,.07-.11Z"/><path class="cls-3" d="M10.09,26.24a.2.2,0,0,1,.23.16h0a.18.18,0,0,1-.15.23h0a.21.21,0,0,1-.24-.15h0a.21.21,0,0,1,.16-.24Z"/><path class="cls-3" d="M8.9,26.46a.12.12,0,0,1,.14.09H9a.12.12,0,0,1-.09.14H9a.11.11,0,0,1-.15-.09h0a.13.13,0,0,1,.1-.14Z"/><path class="cls-3" d="M11.41,24.39a.11.11,0,0,1,.14.09h0a.12.12,0,0,1-.09.14h0a.12.12,0,0,1-.14-.09h0a.12.12,0,0,1,.09-.14Z"/><path class="cls-3" d="M9.91,23.68a.21.21,0,0,1,.24.17h0a.2.2,0,0,1-.16.24h0a.21.21,0,0,1-.25-.16h0a.22.22,0,0,1,.17-.25Z"/><path class="cls-3" d="M9,25.37a.09.09,0,0,1,.11.07h0a.11.11,0,0,1-.07.12H9a.09.09,0,0,1-.11-.08h0A.08.08,0,0,1,9,25.37Z"/><path class="cls-3" d="M8.17,18.53a.21.21,0,0,1,0,.28h0a.2.2,0,0,1-.28,0h0a.21.21,0,0,1,0-.28h0a.21.21,0,0,1,.29,0Z"/><path class="cls-3" d="M7.24,17.75a.12.12,0,0,1,0,.17h0a.14.14,0,0,1-.17,0h0a.13.13,0,0,1,0-.18h0a.12.12,0,0,1,.17,0Z"/><path class="cls-3" d="M10.44,18.37a.11.11,0,0,1,0,.17h0a.11.11,0,0,1-.16,0h0a.12.12,0,0,1,0-.17h0a.12.12,0,0,1,.17,0Z"/><path class="cls-3" d="M10,16.76a.21.21,0,0,1,0,.3h0a.21.21,0,0,1-.29,0h0a.21.21,0,0,1,0-.3h0a.2.2,0,0,1,.29,0Z"/><path class="cls-3" d="M8.13,17.12a.09.09,0,0,1,0,.13h0a.09.09,0,0,1-.14,0H8a.11.11,0,0,1,0-.14H8a.11.11,0,0,1,.13,0Z"/><path class="cls-3" d="M7.18,11.65a.19.19,0,0,1,0,.28h0a.19.19,0,0,1-.28,0h0a.2.2,0,0,1,0-.28h0a.19.19,0,0,1,.28,0Z"/><path class="cls-3" d="M6.25,10.87a.11.11,0,0,1,0,.16h0a.1.1,0,0,1-.16,0h0a.12.12,0,0,1,0-.17h0a.1.1,0,0,1,.16,0Z"/><path class="cls-3" d="M9.46,11.49a.12.12,0,0,1,0,.17h0a.12.12,0,0,1-.17,0h0a.12.12,0,0,1,0-.17h0a.12.12,0,0,1,.17,0Z"/><path class="cls-3" d="M9,9.88a.21.21,0,0,1,0,.29h0a.2.2,0,0,1-.29,0h0a.19.19,0,0,1,0-.29h0a.21.21,0,0,1,.29,0Z"/><path class="cls-3" d="M7.15,10.24a.1.1,0,0,1,0,.14h0a.11.11,0,0,1-.14,0H7a.11.11,0,0,1,0-.13H7a.09.09,0,0,1,.13,0Z"/><path class="cls-3" d="M9.07,7.28a.27.27,0,0,1-.28.25h0a.27.27,0,0,1-.25-.27h0A.28.28,0,0,1,8.82,7h0a.27.27,0,0,1,.25.28Z"/><path class="cls-3" d="M9.18,5.69A.14.14,0,0,1,9,5.83H9a.14.14,0,0,1-.15-.16h0A.15.15,0,0,1,9,5.52H9a.14.14,0,0,1,.14.17Z"/><path class="cls-3" d="M11,9.59a.17.17,0,0,1-.18.15h0a.16.16,0,0,1-.14-.17h0a.15.15,0,0,1,.16-.14h0a.16.16,0,0,1,.16.16Z"/><path class="cls-3" d="M12.4,7.9a.27.27,0,0,1-.29.26h0a.28.28,0,0,1-.26-.29h0a.28.28,0,0,1,.3-.26h0a.26.26,0,0,1,.25.29Z"/><path class="cls-3" d="M10.56,6.16a.13.13,0,0,1-.14.12h0a.13.13,0,0,1-.12-.13h0A.13.13,0,0,1,10.43,6h0a.13.13,0,0,1,.13.13Z"/><path class="cls-3" d="M17.72,6a.27.27,0,0,1-.28.25h0A.27.27,0,0,1,17.19,6h0a.27.27,0,0,1,.28-.25h0a.27.27,0,0,1,.25.28Z"/><path class="cls-3" d="M17.84,4.41a.17.17,0,0,1-.17.16h0a.17.17,0,0,1-.15-.18h0a.16.16,0,0,1,.17-.14h0a.16.16,0,0,1,.15.16Z"/><path class="cls-3" d="M19.65,8.32a.16.16,0,0,1-.16.15h0a.18.18,0,0,1-.16-.17h0a.17.17,0,0,1,.17-.15h0a.16.16,0,0,1,.15.17Z"/><path class="cls-3" d="M21.05,6.62a.26.26,0,0,1-.28.26h0a.27.27,0,0,1-.27-.28h0a.28.28,0,0,1,.29-.27h0a.27.27,0,0,1,.26.29Z"/><path class="cls-3" d="M19.2,4.89a.11.11,0,0,1-.13.11h0A.12.12,0,0,1,19,4.87h0a.13.13,0,0,1,.13-.12h0a.13.13,0,0,1,.12.14Z"/><path class="cls-3" d="M27.38,5.89a.27.27,0,0,1,.35.16h0a.27.27,0,0,1-.17.34h0a.26.26,0,0,1-.33-.17h0a.26.26,0,0,1,.15-.33Z"/><path class="cls-3" d="M25.87,6.39a.18.18,0,0,1,.21.1h0a.16.16,0,0,1-.11.19h0a.16.16,0,0,1-.2-.09h0a.14.14,0,0,1,.1-.2Z"/><path class="cls-3" d="M28.79,3.22a.16.16,0,0,1,.2.1h0a.15.15,0,0,1-.1.2h0a.15.15,0,0,1-.2-.1h0a.16.16,0,0,1,.1-.2Z"/><path class="cls-3" d="M26.69,2.57a.27.27,0,0,1,.35.17h0a.26.26,0,0,1-.17.35h0a.28.28,0,0,1-.35-.16h0a.28.28,0,0,1,.17-.36Z"/><path class="cls-3" d="M25.78,4.94A.13.13,0,0,1,26,5h0a.13.13,0,0,1-.08.16h0a.13.13,0,0,1-.16-.07h0a.13.13,0,0,1,.07-.17Z"/><path class="cls-3" d="M32.21,3.87a.2.2,0,0,1,.26.13h0a.22.22,0,0,1-.12.27h0a.22.22,0,0,1-.27-.13h0a.2.2,0,0,1,.13-.27Z"/><path class="cls-3" d="M31,4.27a.12.12,0,0,1,.15.07h0a.12.12,0,0,1-.07.16h0a.14.14,0,0,1-.17-.08h0A.12.12,0,0,1,31,4.27Z"/><path class="cls-3" d="M33.31,1.76a.12.12,0,0,1,.16.08h0a.13.13,0,0,1-.08.16h0a.12.12,0,0,1-.15-.08h0a.13.13,0,0,1,.07-.16Z"/><path class="cls-3" d="M31.65,1.25a.22.22,0,0,1,.28.13h0a.22.22,0,0,1-.13.28h0a.22.22,0,0,1-.28-.13h0a.22.22,0,0,1,.13-.28Z"/><path class="cls-3" d="M30.94,3.13a.08.08,0,0,1,.12.05h0a.09.09,0,0,1,0,.13h0a.1.1,0,0,1-.13-.06h0a.08.08,0,0,1,.06-.12Z"/><path class="cls-3" d="M33.43,9.58a.22.22,0,0,1,.26.14h0a.21.21,0,0,1-.12.26h0a.21.21,0,0,1-.27-.13h0a.22.22,0,0,1,.13-.27Z"/><path class="cls-3" d="M32.23,10a.14.14,0,0,1,.16.07h0a.15.15,0,0,1-.08.17h0a.15.15,0,0,1-.17-.08h0a.13.13,0,0,1,.09-.16Z"/><path class="cls-3" d="M34.53,7.47a.15.15,0,0,1,.17.08h0a.16.16,0,0,1-.07.17h0a.15.15,0,0,1-.17-.08h0a.14.14,0,0,1,.07-.17Z"/><path class="cls-3" d="M32.87,7a.21.21,0,0,1,.28.13h0a.21.21,0,0,1-.13.28h0a.22.22,0,0,1-.28-.13h0A.22.22,0,0,1,32.87,7Z"/><path class="cls-3" d="M32.16,8.84a.1.1,0,0,1,.13.06h0a.1.1,0,0,1-.06.13h0A.11.11,0,0,1,32.1,9h0a.08.08,0,0,1,.06-.12Z"/><path class="cls-3" d="M34.31,16.09a.21.21,0,0,1,.27.13h0a.19.19,0,0,1-.12.26h0a.22.22,0,0,1-.27-.12h0a.22.22,0,0,1,.12-.27Z"/><path class="cls-3" d="M33.12,16.48a.12.12,0,0,1,.15.08h0a.13.13,0,0,1-.07.16h0c-.07,0-.15,0-.16-.07h0a.13.13,0,0,1,.08-.17Z"/><path class="cls-3" d="M35.43,14a.11.11,0,0,1,.15.07h0a.13.13,0,0,1-.07.16h0a.13.13,0,0,1-.16-.08h0a.11.11,0,0,1,.08-.15Z"/><path class="cls-3" d="M33.76,13.47a.23.23,0,0,1,.29.13h0a.22.22,0,0,1-.14.28h0a.22.22,0,0,1-.28-.13h0a.21.21,0,0,1,.13-.28Z"/><path class="cls-3" d="M33.05,15.34a.1.1,0,0,1,.13.07h0a.09.09,0,0,1-.06.12h0a.1.1,0,0,1-.13-.06h0a.11.11,0,0,1,.06-.13Z"/><path class="cls-3" d="M34.32,21.62a.25.25,0,0,1,0,.35h0a.25.25,0,0,1-.36,0h0a.25.25,0,0,1,0-.36h0a.25.25,0,0,1,.36,0Z"/><path class="cls-3" d="M33.33,20.43a.15.15,0,0,1,0,.21h0a.14.14,0,0,1-.21,0h0a.16.16,0,0,1,0-.22h0a.15.15,0,0,1,.21,0Z"/><path class="cls-3" d="M37.21,21.92a.16.16,0,0,1,0,.22h0a.18.18,0,0,1-.23,0h0a.17.17,0,0,1,0-.22h0a.16.16,0,0,1,.22,0Z"/><path class="cls-3" d="M37.05,19.8a.26.26,0,0,1,0,.38h0a.27.27,0,0,1-.38,0h0a.27.27,0,0,1,0-.38h0a.28.28,0,0,1,.38,0Z"/><path class="cls-3" d="M34.6,19.83a.13.13,0,0,1,0,.18h0a.12.12,0,0,1-.17,0h0a.15.15,0,0,1,0-.17h0a.14.14,0,0,1,.18,0Z"/><path class="cls-3" d="M13.43,4.32l.1.07.26.22L14.2,5l.51.46.57.55c.2.21.41.41.62.64l.63.7c.2.24.4.49.61.73s.4.51.58.76.36.51.54.76.32.48.47.71a6.74,6.74,0,0,1,.4.65c.12.2.23.38.32.55l.24.44c.06.12.11.21.14.28a.36.36,0,0,1,.05.1l-.08-.1-.21-.25-.33-.4c-.11-.15-.25-.33-.41-.52s-.31-.4-.49-.61l-.54-.68c-.19-.24-.4-.48-.59-.73l-.6-.74c-.2-.25-.41-.5-.61-.73s-.39-.49-.59-.72-.36-.45-.55-.66-.32-.4-.48-.58L14,5.05c-.12-.15-.22-.28-.32-.39l-.19-.25Z"/><path class="cls-4" d="M21.51,4.09v.14c0,.08,0,.2,0,.36,0,.31,0,.77,0,1.3,0,.28,0,.57,0,.87s0,.64,0,1,0,.68,0,1,0,.71,0,1.07,0,.72-.05,1.07-.05.7-.06,1c0,.68-.09,1.31-.12,1.84s-.08,1-.09,1.31c0,.16,0,.28,0,.37a1.09,1.09,0,0,0,0,.12.55.55,0,0,1,0-.12v-.37c0-.32,0-.77,0-1.31s0-1.17,0-1.84c0-.34,0-.68,0-1s0-.72,0-1.07,0-.73,0-1.08.05-.7.07-1,0-.66.06-1,.05-.6.08-.87c0-.54.09-1,.12-1.3,0-.16,0-.28,0-.36S21.51,4.09,21.51,4.09Z"/><path class="cls-3" d="M28.92,3.74l0,.06L28.76,4l-.45.63-.71.88L27.19,6l-.43.5L26.33,7l-.44.48c-.28.31-.55.61-.79.86l-.58.6a1.42,1.42,0,0,0-.17.16l-.06.06,0-.07a1.88,1.88,0,0,1,.1-.19c.09-.17.21-.4.38-.68s.38-.59.63-.92a5.61,5.61,0,0,1,.38-.51l.42-.52c.14-.17.29-.34.44-.5s.31-.32.45-.47c.3-.3.6-.58.86-.81l.67-.54.2-.14A.21.21,0,0,1,28.92,3.74Z"/><path class="cls-5" d="M29.94,7.82l-.08.07-.23.19-.86.7-1.21,1-.7.57-.7.59c-.24.19-.48.39-.7.59l-.69.59-1.19,1.05-.85.76-.24.21-.09.08.07-.09.18-.24c.15-.21.39-.5.67-.85s.66-.73,1.06-1.13l.64-.62.69-.61.71-.59.74-.54c.47-.35.94-.66,1.35-.91s.77-.45,1-.59l.3-.15Z"/><path class="cls-3" d="M36.65,8.83l-.11,0-.3.09c-.26.06-.63.17-1.09.3l-1.55.44-.86.26-.91.29-.88.3-.87.31-1.52.57-1.08.43-.31.11-.11,0a.34.34,0,0,0,.09-.06l.26-.16c.22-.14.53-.33.93-.55s.88-.45,1.41-.68c.27-.13.54-.24.84-.35l.88-.32.9-.29.9-.25c.6-.14,1.17-.25,1.68-.33s.91-.12,1.21-.15l.37,0Z"/><path class="cls-4" d="M41.5,15.93l-.15,0-.41-.11-.66-.14c-.25-.07-.53-.12-.83-.19l-1-.19c-.35-.07-.72-.13-1.11-.19l-1.18-.17L35,14.79l-1.21-.1c-.41,0-.8,0-1.18,0l-1.08,0h-1c-.3,0-.58,0-.82,0l-.63,0-.41,0h-.14l.13,0,.38-.07.6-.1c.23,0,.5-.07.78-.09s.61-.06.94-.09l1.08,0h1.15c.4,0,.81,0,1.21.08l1.23.13,1.2.2c.4.07.77.16,1.14.24s.7.18,1,.27.61.17.87.26l.68.23.43.16Z"/><path class="cls-3" d="M24.87,16.81l.15,0,.45-.1.69-.13c.28-.05.58-.1.92-.14s.71-.09,1.1-.12.81-.07,1.25-.07.88,0,1.34,0l1.42.08c.47,0,.94.1,1.42.17s.94.15,1.39.24.89.19,1.31.3l1.18.33,1,.33.78.29.49.21.17.08-.16-.06L39.28,18l-.76-.2-1-.26-1.17-.27c-.41-.09-.84-.17-1.29-.25s-.9-.14-1.37-.21-1-.12-1.42-.16-.94-.08-1.4-.1l-1.35,0H28.28c-.4,0-.77,0-1.12.06l-.94.06-.72.07-.47.05Z"/><path class="cls-3" d="M23.62,17.66l.17,0,.46.06c.4.06,1,.16,1.67.31.34.07.71.16,1.1.26s.8.22,1.22.35l1.29.45c.44.17.88.34,1.32.53s.86.39,1.29.6.84.43,1.24.66c.8.44,1.51.9,2.13,1.32S36.62,23,37,23.29a5,5,0,0,1,.4.32l.15.11-.15-.11L37,23.32c-.35-.25-.87-.6-1.48-1s-1.35-.84-2.15-1.27c-.4-.22-.82-.43-1.24-.64s-.86-.41-1.3-.6-.87-.36-1.3-.53-.86-.32-1.29-.45-.82-.27-1.2-.38-.76-.22-1.09-.29c-.68-.18-1.25-.3-1.65-.37l-.47-.09Z"/><path class="cls-5" d="M30.33,18.06h.08l.28,0c.22,0,.55.1.94.2s.85.22,1.34.38c.24.07.5.16.74.25s.53.19.78.3.52.21.77.33.5.23.73.36c.48.24.92.48,1.3.71s.68.42.89.57l.24.17.1.07-.1-.05-.25-.12-.93-.44-1.3-.6-.74-.33-.76-.32-.77-.3L32.94,19l-1.32-.48-.94-.33-.27-.1Z"/><path class="cls-5" d="M24.69,19.07l.12,0,.34.09c.3.08.72.2,1.22.36s1.06.39,1.68.66l.91.43c.32.15.63.31.94.48s.61.35.91.54l.86.54c.56.38,1.07.75,1.48,1.09s.76.62,1,.84l.27.25.09.08-.11-.07-.28-.2L33,23.45c-.44-.3-1-.64-1.53-1l-.87-.52-.91-.52-.92-.49c-.31-.16-.62-.31-.91-.44-.58-.29-1.14-.54-1.62-.75l-1.15-.49-.33-.13Z"/><path class="cls-5" d="M28.62,21.62l.11.05.29.16c.24.14.6.34,1,.6s.89.59,1.38.95l.74.58c.25.2.5.42.74.64s.49.44.72.66l.67.67c.43.45.81.88,1.12,1.27s.57.7.74.94.16.2.2.27l.07.1-.09-.08-.23-.25-.83-.86-1.19-1.18-.69-.65-.72-.64c-.24-.22-.49-.44-.73-.64l-.72-.6c-.46-.38-.91-.73-1.3-1s-.7-.54-.93-.71l-.26-.19Z"/><path class="cls-4" d="M25.4,20.35l.11.07.32.23c.26.19.64.47,1.08.83l.69.58.74.69c.26.24.52.49.78.76s.51.52.76.8.49.56.73.83l.67.85c.43.54.8,1.07,1.11,1.53s.55.84.71,1.12.15.25.19.32l.07.11a.68.68,0,0,1-.08-.11c0-.07-.11-.17-.21-.31s-.44-.64-.77-1.09-.71-1-1.15-1.5c-.21-.27-.45-.54-.68-.82s-.48-.55-.74-.83-.49-.54-.75-.8-.51-.52-.76-.76-.49-.48-.73-.7l-.66-.61-1-.87c-.13-.1-.22-.18-.3-.23Z"/><path class="cls-3" d="M22.48,18.88l.12.1a4.19,4.19,0,0,1,.33.28c.14.12.31.26.5.44s.4.37.62.59.46.47.71.73.5.54.74.83.51.61.75.93.49.65.73,1,.45.67.68,1,.41.66.61,1,.36.65.53.95.3.59.43.86.25.52.34.74.18.42.25.58.1.29.14.37a.75.75,0,0,1,.05.14.92.92,0,0,0-.07-.13l-.19-.36c-.08-.15-.18-.34-.3-.55L29,27.66l-.49-.84c-.18-.29-.37-.6-.58-.92s-.41-.65-.64-1-.45-.66-.69-1-.47-.66-.71-1-.48-.63-.73-.92-.47-.6-.69-.86l-.65-.76-.56-.63c-.17-.19-.32-.34-.43-.48l-.28-.3Z"/><path class="cls-4" d="M21.77,19l.06.11.19.3c.08.13.17.3.27.48s.21.4.33.63.25.48.37.75.26.55.38.85.27.6.39.91l.36,1c.11.32.22.64.32,1s.19.63.28.94.17.6.24.88.14.54.19.79.11.47.15.67.06.38.1.52a2.08,2.08,0,0,0,.05.34,1.13,1.13,0,0,0,0,.12,1.26,1.26,0,0,0,0-.12c0-.08-.06-.19-.1-.33s-.1-.3-.17-.5-.13-.41-.2-.66-.17-.5-.26-.78-.19-.56-.29-.87-.21-.6-.33-.92-.22-.63-.33-.95-.23-.64-.36-.95-.23-.62-.35-.92l-.34-.86c-.1-.27-.21-.53-.3-.77s-.19-.45-.26-.64-.15-.36-.2-.5l-.13-.32Z"/><path class="cls-5" d="M25.64,24.58l.06.1.19.28.27.45c.1.16.21.36.33.57s.24.44.36.69.27.52.39.79.26.55.37.84.24.59.36.89.22.6.32.9.2.58.28.86.16.56.23.82.13.51.18.74.09.44.13.62.07.36.09.49,0,.23.05.31a.87.87,0,0,1,0,.11.45.45,0,0,0,0-.11c0-.07-.06-.17-.1-.3s-.09-.29-.14-.47-.13-.38-.19-.6-.17-.47-.24-.73-.19-.51-.28-.8-.21-.56-.32-.85-.21-.59-.32-.89-.23-.59-.35-.88-.24-.58-.35-.86-.23-.53-.35-.79l-.3-.7c-.1-.23-.19-.43-.28-.61s-.14-.33-.2-.46l-.14-.3A.7.7,0,0,0,25.64,24.58Z"/><path class="cls-5" d="M22.35,25a1.29,1.29,0,0,0,0,.14c0,.1.06.24.1.42.1.36.24.88.37,1.5.08.31.15.64.24,1s.15.73.22,1.13.16.79.23,1.2.14.83.2,1.24.13.84.19,1.26.11.81.17,1.2c.09.79.18,1.52.23,2.15s.09,1.16.12,1.53c0,.18,0,.32,0,.42v.15s0-.05,0-.15-.05-.24-.07-.42c-.05-.37-.12-.89-.2-1.51s-.21-1.36-.32-2.14c-.05-.39-.12-.8-.18-1.21s-.15-.82-.21-1.24-.13-.84-.2-1.24-.14-.82-.21-1.21-.14-.77-.2-1.13-.13-.7-.18-1c-.12-.63-.2-1.14-.28-1.51,0-.18-.05-.33-.08-.43Z"/><path class="cls-3" d="M20.92,18.5l0,.14a3.94,3.94,0,0,0,0,.4c0,.17,0,.37.06.61s0,.51.06.8,0,.61,0,.94,0,.7.05,1.06,0,.75,0,1.13,0,.77,0,1.17v3.34c0,.34,0,.66,0,.95s0,.56,0,.8,0,.44,0,.61,0,.31,0,.41a1.16,1.16,0,0,0,0,.13.73.73,0,0,1,0-.13c0-.1,0-.23,0-.4s0-.38,0-.62,0-.51-.06-.8,0-.61,0-.94S21,27.41,21,27s0-.74,0-1.12,0-.78,0-1.17,0-.78,0-1.16,0-.77,0-1.13V21.41c0-.34,0-.66,0-.95s0-.56,0-.8,0-.45,0-.62,0-.31,0-.4Z"/><path class="cls-5" d="M20.08,20.89V21s0,.08,0,.14a4.3,4.3,0,0,1,0,.53c0,.22,0,.47,0,.75,0,.13,0,.27,0,.42s0,.28-.06.43a3.18,3.18,0,0,1-.06.43,2.7,2.7,0,0,1-.07.41c0,.28-.1.52-.14.74s-.1.4-.14.52a1,1,0,0,1,0,.15l0,.05a.18.18,0,0,0,0-.05.86.86,0,0,0,0-.15c0-.14,0-.31,0-.53s0-.48,0-.75l0-.42c0-.14,0-.29,0-.42l.06-.44c0-.14,0-.28.07-.42s.11-.52.16-.74.11-.39.16-.52a.48.48,0,0,0,0-.14Z"/><path class="cls-5" d="M19.33,28.86v.06s0,.11,0,.19.05.39.06.67,0,.6,0,.95v.53c0,.18,0,.37,0,.56v.55c0,.18,0,.36,0,.54,0,.34,0,.67-.06.94s0,.51-.06.68,0,.14,0,.18v.07a.31.31,0,0,1,0-.07s0-.1,0-.18,0-.4-.06-.68,0-.6-.06-.94a4.78,4.78,0,0,0,0-.53V31.27c0-.19,0-.36,0-.53q0-.54.06-1c0-.28.05-.51.08-.67s0-.14,0-.19A.15.15,0,0,0,19.33,28.86Z"/><path class="cls-4" d="M18.94,22.11a.25.25,0,0,1,0,.11c0,.07-.06.19-.12.32-.1.28-.24.68-.42,1.15-.09.24-.19.5-.28.77s-.2.56-.3.86-.2.61-.31.92-.2.63-.29,1-.2.64-.3,1-.18.63-.26.93c-.16.6-.3,1.16-.43,1.65s-.21.88-.27,1.16-.06.25-.08.33l0,.12,0-.12c0-.08,0-.19.05-.33s.12-.7.22-1.18.22-1.06.37-1.66c.07-.3.16-.62.25-.93s.18-.64.26-1,.21-.65.31-1,.21-.62.32-.92.21-.58.33-.86.21-.52.3-.76c.2-.46.38-.86.5-1.12l.15-.32Z"/><path class="cls-5" d="M17.81,28.81a.62.62,0,0,1,0,.09,1.49,1.49,0,0,1,0,.25c0,.21-.06.51-.1.87s-.11.78-.19,1.23c0,.23-.06.46-.09.69s-.07.48-.11.71-.08.49-.11.72-.08.47-.11.69c-.08.45-.15.86-.2,1.22s-.11.66-.14.87,0,.18-.06.23v.08a.6.6,0,0,0,0-.08c0-.05,0-.13,0-.25s0-.51,0-.87.05-.78.1-1.24c0-.22,0-.45.07-.69l.09-.72.12-.71c0-.24.08-.46.13-.69.09-.45.18-.86.27-1.22s.18-.65.24-.86.06-.18.08-.23Z"/><path class="cls-3" d="M18.49,19.49l-.09.12c-.07.07-.16.18-.28.32s-.26.32-.43.51l-.55.67c-.2.24-.41.51-.63.8s-.45.59-.69.9-.47.65-.71,1-.47.68-.7,1-.45.7-.67,1.05-.42.69-.61,1-.39.66-.55,1-.33.6-.47.88-.28.52-.39.74l-.29.58-.18.37-.06.14a1.31,1.31,0,0,1,0-.14l.14-.39c.06-.17.14-.37.23-.6s.2-.49.32-.77.26-.59.42-.9.31-.66.5-1,.37-.69.58-1,.43-.72.66-1.07.47-.7.71-1,.48-.67.73-1,.49-.61.74-.89.46-.54.69-.77.42-.45.61-.64l.49-.47.33-.3Z"/><path class="cls-5" d="M16.34,19a.32.32,0,0,1-.11.08l-.32.21-.5.31-.64.43-.74.52c-.27.18-.54.38-.83.59s-.58.43-.86.66-.6.46-.89.7l-.86.74-.81.71L9,24.62l-.66.64-.56.56-.43.43c-.11.13-.21.22-.26.29l-.1.1a.63.63,0,0,1,.08-.11c0-.08.13-.18.23-.32s.23-.29.38-.47l.5-.6c.19-.22.4-.44.63-.68s.46-.49.72-.74.52-.51.8-.76.57-.5.86-.75.59-.47.89-.69.6-.44.89-.65.58-.39.86-.56.55-.34.79-.48.48-.27.69-.37l.54-.27c.14-.08.27-.13.35-.17Z"/><path class="cls-4" d="M8.51,28.29s.28-.49.78-1.19c.12-.18.25-.37.4-.57s.3-.4.47-.61.34-.43.51-.65l.55-.65L11.8,24l.59-.59c.37-.38.74-.72,1.06-1,.66-.58,1.12-.92,1.12-.92s-.41.38-1,1l-1,1-.56.6c-.2.2-.4.42-.58.63s-.38.43-.56.65-.36.42-.52.62-.34.41-.49.61l-.43.54Z"/><path class="cls-5" d="M3.91,23.54l.16-.13.43-.32c.38-.27.94-.65,1.61-1.07.34-.21.7-.43,1.09-.65s.8-.45,1.23-.67.88-.43,1.35-.63.92-.39,1.39-.57.95-.34,1.42-.49.93-.27,1.38-.39c.89-.23,1.74-.39,2.46-.51s1.33-.17,1.76-.2a3.23,3.23,0,0,1,.49,0l.17,0-.17,0-.49.06c-.42,0-1,.14-1.75.27s-1.56.33-2.45.56c-.45.13-.91.26-1.37.41s-.94.32-1.41.5-.93.36-1.39.55-.91.41-1.33.62-.86.43-1.25.64-.76.42-1.1.62c-.68.4-1.23.75-1.62,1l-.45.31Z"/><path class="cls-3" d="M2.52,20.6l.14-.08c.09,0,.22-.13.39-.22l.6-.32.79-.39c.29-.14.61-.28.94-.41s.68-.28,1-.41.73-.27,1.12-.39l1.16-.33,1.16-.27c.38-.08.75-.14,1.12-.2s.71-.1,1-.14.65-.06.94-.08l.77,0h1l-.39,0-.61.07-.79.11-.93.15c-.33.05-.68.12-1,.19s-.74.15-1.12.23-.76.18-1.15.29-.77.2-1.15.31l-1.11.35-1,.36-.94.35-.78.32-.61.25-.39.16Z"/><path class="cls-4" d="M3,17.19l.17-.06c.11,0,.27-.09.48-.14.42-.12,1-.28,1.71-.44l1.14-.22c.39-.07.82-.13,1.25-.18S8.62,16,9.08,16l1.36-.07h1.34c.44,0,.87,0,1.28.08.83.06,1.58.17,2.22.28s1.17.23,1.53.32l.42.11.14,0-.14,0-.44-.08c-.38-.07-.91-.16-1.56-.25s-1.41-.16-2.25-.22c-.41,0-.83,0-1.28-.05s-.88,0-1.33,0-.91,0-1.37.05-.88.07-1.31.12l-1.24.16-1.12.19c-.7.13-1.28.26-1.68.36l-.48.11Z"/><path class="cls-5" d="M4.85,13.33l.09,0h.23l.83,0c.34,0,.73,0,1.13.06l.62.07.62.1.61.12.57.14c.38.1.7.21,1,.31s.51.2.67.26l.17.09.06,0h-.08l-.22,0-.77-.12-1.07-.18L8.68,14c-.19,0-.4-.07-.61-.1l-.61-.1-.59-.1-1-.18-.71-.15-.2,0Z"/><path class="cls-3" d="M10.18,11.8l.12,0,.33.06c.29,0,.68.14,1.14.26s1,.28,1.54.47l.83.31c.28.11.55.22.83.35s.55.24.8.36.52.27.76.4c.48.26.92.51,1.27.75s.65.44.84.58l.23.17.07.06a.23.23,0,0,0-.09,0l-.27-.14-1-.49-1.37-.67-.78-.36-.82-.36-.82-.34L13,12.87l-1.43-.55-1-.37-.28-.1Z"/><path class="cls-4" d="M7.67,8.41l.16.05.43.13c.37.11.91.29,1.52.52l1,.39,1.07.48,1.1.55,1.11.62c.37.22.72.43,1.08.66s.67.45,1,.67c.64.46,1.22.9,1.69,1.29s.85.73,1.12,1a3,3,0,0,1,.3.28l.1.1L19.2,15l-.33-.27c-.28-.22-.7-.55-1.2-.92s-1.09-.8-1.74-1.23c-.34-.23-.68-.44-1-.66l-1.07-.64c-.37-.22-.74-.42-1.1-.62l-1.1-.56c-.35-.18-.69-.34-1-.5l-.95-.42C9.07,9,8.58,8.76,8.22,8.62l-.4-.15Z"/><path class="cls-5" d="M12.41,7.84h.05l.16.07.5.25a5.42,5.42,0,0,1,.64.4l.34.23.33.27.32.26.28.28c.18.18.34.36.47.51a2.73,2.73,0,0,1,.28.39.28.28,0,0,1,.07.11l0,0-.05,0-.14-.08c-.12-.07-.28-.16-.46-.28s-.4-.26-.61-.42-.22-.17-.33-.25A4.19,4.19,0,0,1,14,9.34l-.33-.26-.29-.26c-.19-.17-.36-.34-.5-.48L12.52,8a.59.59,0,0,1-.08-.11Z"/><path class="cls-5" d="M16.86,23.25l0,.07-.06.18c-.06.15-.14.37-.24.65s-.22.57-.35.89l-.22.51-.21.52-.22.52-.22.51-.38.89c-.12.25-.22.47-.3.62s-.06.14-.07.18l0,.06a.31.31,0,0,0,0-.07,1.52,1.52,0,0,0,0-.19c0-.15.08-.38.16-.66s.16-.58.27-.91c.06-.17.12-.34.19-.52s.13-.35.2-.53.15-.35.23-.52a4.59,4.59,0,0,1,.24-.5c.15-.32.32-.62.46-.87s.28-.46.37-.6l.12-.17A.25.25,0,0,1,16.86,23.25Z"/><path class="cls-3" d="M25.68,2.9S22.13,8,22,13.69C22,13.69,21.43,6.66,25.68,2.9Z"/><path class="cls-5" d="M13.41,1.59a14.09,14.09,0,0,1,6.49,9.74S19.19,3.91,13.41,1.59Z"/><path class="cls-5" d="M12.77,24.46s-4,4.17-4.26,9.28C8.51,33.74,10.22,27,12.77,24.46Z"/><path class="cls-4" d="M33.87,22.8a12.89,12.89,0,0,1,5.9,6.05A40.19,40.19,0,0,0,33.87,22.8Z"/><path class="cls-3" d="M8.51,22.8A12.53,12.53,0,0,0,3,31.65,17.16,17.16,0,0,1,8.51,22.8Z"/><path class="cls-6" d="M3,29.47V28.32l.3,1.15.42-1-.19,1.29s.92-.63,1-.7-.81,1.2-.81,1.2l1.65-.47-1.49.88L5.36,31H3.84l.68.88-.81-.54L4.52,33,3.29,31.62v.76L3,31.57l-.59,2,.18-2L2,32.35l.58-1.09L.73,32.31l1.85-1.26L0,31.36l2.4-.52L.92,30.49l1.2.12-.38-.72.8.5-.89-2.17,1.18,1.84-.15-.85Z"/><path class="cls-6" d="M28.75,3V2.1L29,3l.33-.81-.15,1s.72-.49.78-.55-.63.94-.63.94l1.28-.36-1.16.67,1.16.25H29.4l.54.68-.63-.41.63,1.31L29,4.65v.59l-.23-.62-.44,1.55.12-1.52L28,5.22l.46-.84L27,5.18l1.43-1-2,.24,1.87-.4-1.16-.27.93.08-.29-.54.62.38L27.71,2l.92,1.42-.12-.65Z"/><path class="cls-6" d="M29.84,28.5v-.9l.23.9.33-.8-.15,1s.72-.48.77-.55-.62.93-.62.93l1.27-.36-1.15.69,1.15.24H30.49l.53.68-.62-.41L31,31.23l-.95-1.07v.58l-.23-.62-.45,1.56.13-1.52-.48.57.46-.84-1.41.8,1.43-1-2,.24,1.87-.41-1.15-.27.93.1-.3-.55.63.38-.69-1.68L29.72,29l-.12-.66Z"/><path class="cls-7" d="M39.45,28.09V27.5l.16.59.21-.54-.09.67s.46-.32.5-.36-.41.61-.41.61l.84-.24-.76.45.76.16h-.78l.35.45L39.82,29l.41.87-.62-.71v.38l-.16-.4-.3,1,.09-1-.31.37.3-.55-.92.53.93-.64-1.31.16,1.22-.27-.75-.17.61.06-.19-.37.41.25-.46-1.1.6.93L39.29,28Z"/><path class="cls-7" d="M7.83,7.69V7.1L8,7.69l.22-.53-.1.66s.47-.32.51-.36l-.41.61L9,7.83l-.76.45L9,8.44H8.26l.35.45L8.2,8.62l.41.87L8,8.78v.39l-.15-.42-.3,1,.09-1-.32.38.31-.56-.93.52.94-.63L6.3,8.65l1.23-.27L6.77,8.2l.62.06L7.2,7.9l.41.25-.46-1.1.6.93-.08-.43Z"/><path class="cls-7" d="M15.83,32v-.5L16,32l.18-.45-.07.56.43-.31-.36.52.71-.2-.64.38.64.14h-.64l.29.38-.36-.23.36.73L16,33v.33l-.13-.35-.25.87.07-.85-.26.32.25-.47-.78.45.79-.54-1.11.13,1-.23-.64-.15.52.06-.16-.31.34.21-.39-.94.51.8-.07-.37Z"/><path class="cls-5" d="M29.6,13.69s6.63-1.54,10.17,0C39.77,13.69,34.63,11.26,29.6,13.69Z"/><path class="cls-3" d="M21.42,17.64s.14-3,5.33-4.74A5.62,5.62,0,0,0,21.42,17.64Z"/><path class="cls-3" d="M20.44,8.83s-.81-6.19-2.63-7.56C17.81,1.27,20.76,2.78,20.44,8.83Z"/><path class="cls-4" d="M23.19,16.57s4.41-5,10-4.77A18.57,18.57,0,0,0,23.19,16.57Z"/><path class="cls-3" d="M18.85,17.19a11.41,11.41,0,0,0-6.08-2.43S16.64,14.32,18.85,17.19Z"/><path class="cls-3" d="M17.81,12.61a6,6,0,0,1,2.29,4S19.9,12.9,17.81,12.61Z"/><path class="cls-5" d="M38.72,20.85v-.74l.19.74.28-.67-.13.84s.59-.41.65-.47-.52.79-.52.79L40.25,21l-1,.57,1,.21h-1l.44.57L39.19,22l.52,1.09-.8-.9v.49l-.19-.52-.38,1.31.11-1.28-.4.48.39-.71-1.18.68,1.19-.81-1.66.19,1.55-.33-1-.23.79.08-.25-.46.53.32L37.86,20l.76,1.19-.1-.55Z"/><path class="cls-5" d="M4.54,22.52v-.6l.16.6L4.92,22l-.1.68s.48-.32.53-.37l-.43.63.85-.25L5,23.12l.77.16H5l.36.46-.43-.28.43.88-.65-.72V24l-.16-.42-.3,1,.09-1L4,24l.3-.56-1,.53,1-.64L3,23.49l1.24-.27L3.48,23l.62.06-.19-.37.41.26-.46-1.12.61.95-.08-.44Z"/><path class="cls-5" d="M13.63.88V.07l.2.81.3-.73L14,1.06s.64-.44.69-.5-.56.85-.56.85l1.15-.33-1,.62,1,.22H14.22l.47.62-.56-.38.56,1.19-.86-1v.53l-.2-.56-.41,1.4.11-1.37-.42.51.4-.76-1.26.73L13.33,2l-1.79.22,1.68-.36-1-.25.84.08-.26-.5.55.35L12.69,0l.83,1.29-.11-.6Z"/></g></g></g></g></svg>