<svg xmlns="http://www.w3.org/2000/svg" xmlns:xlink="http://www.w3.org/1999/xlink" viewBox="0 0 125.76 299.67"><defs><style>.cls-1{isolation:isolate;}.cls-2{fill:url(#Degradado_sin_nombre_11);}.cls-3{fill:url(#Degradado_sin_nombre_11-2);}.cls-4{fill:url(#Degradado_sin_nombre_10);}.cls-5{fill:url(#Degradado_sin_nombre_9);}.cls-6{fill:url(#Degradado_sin_nombre_8);}.cls-7{fill:#5a9cd4;}.cls-8{fill:#dcdde0;}.cls-10,.cls-8{mix-blend-mode:multiply;}.cls-9{fill:#f7fafb;}.cls-10{fill:#bcbdbf;}.cls-11{fill:#2a0030;}.cls-12{fill:url(#Degradado_sin_nombre_31);}.cls-13{fill:url(#Degradado_sin_nombre_31-2);}</style><linearGradient id="Degradado_sin_nombre_11" x1="-17.24" y1="320.96" x2="-14.97" y2="320.96" gradientTransform="translate(-169.66 19.61) rotate(-56.42)" gradientUnits="userSpaceOnUse"><stop offset="0.01" stop-color="#4a0054"/><stop offset="0.54" stop-color="#3b0043"/><stop offset="1" stop-color="#2a0030"/></linearGradient><linearGradient id="Degradado_sin_nombre_11-2" x1="-51.58" y1="271.12" x2="-50.44" y2="271.12" xlink:href="#Degradado_sin_nombre_11"/><linearGradient id="Degradado_sin_nombre_10" x1="-98.52" y1="340.14" x2="9.91" y2="268.11" gradientTransform="translate(-169.66 19.61) rotate(-56.42)" gradientUnits="userSpaceOnUse"><stop offset="0" stop-color="#fee62a"/><stop offset="0.14" stop-color="#fdd82b"/><stop offset="0.4" stop-color="#f9b42c"/><stop offset="0.75" stop-color="#f37b2f"/><stop offset="0.99" stop-color="#ef4e31"/></linearGradient><linearGradient id="Degradado_sin_nombre_9" x1="-44.07" y1="289.62" x2="10.47" y2="289.62" gradientTransform="matrix(0.54, -0.84, 0.84, 0.54, -168.39, 22.05)" gradientUnits="userSpaceOnUse"><stop offset="0" stop-color="#f5e55e"/><stop offset="1" stop-color="#da9231"/></linearGradient><linearGradient id="Degradado_sin_nombre_8" x1="-27.06" y1="282.15" x2="7.03" y2="282.15" gradientTransform="matrix(0.54, -0.84, 0.84, 0.54, -168.39, 22.05)" gradientUnits="userSpaceOnUse"><stop offset="0" stop-color="#f5ea91"/><stop offset="1" stop-color="#da9231"/></linearGradient><linearGradient id="Degradado_sin_nombre_31" x1="86.04" y1="220.03" x2="61.32" y2="239" gradientTransform="translate(-169.66 19.61) rotate(-56.42)" gradientUnits="userSpaceOnUse"><stop offset="0" stop-color="#fff"/><stop offset="0.07" stop-color="#fff" stop-opacity="0.85"/><stop offset="0.21" stop-color="#fff" stop-opacity="0.6"/><stop offset="0.35" stop-color="#fff" stop-opacity="0.38"/><stop offset="0.47" stop-color="#fff" stop-opacity="0.22"/><stop offset="0.58" stop-color="#fff" stop-opacity="0.1"/><stop offset="0.68" stop-color="#fff" stop-opacity="0.03"/><stop offset="0.74" stop-color="#fff" stop-opacity="0"/></linearGradient><linearGradient id="Degradado_sin_nombre_31-2" x1="97.95" y1="213.7" x2="89.64" y2="220.94" xlink:href="#Degradado_sin_nombre_31"/></defs><g class="cls-1"><g id="Capa_2" data-name="Capa 2"><g id="Objects"><path class="cls-2" d="M89.28,209.51a14.63,14.63,0,0,1-.94,2.1A5.53,5.53,0,0,0,89.28,209.51Z"/><path class="cls-3" d="M27.47,211a5.71,5.71,0,0,0,1,2.06A17.21,17.21,0,0,1,27.47,211Z"/><path class="cls-4" d="M43,166.7c3.45,4.25,2.83,12.1-1,16s-9,6.43-12.33,10.79A18.05,18.05,0,0,0,27.47,211,6.49,6.49,0,0,1,30,204a6.45,6.45,0,0,1,8.88,2.62c2.16,4.64-1.81,9.6-4.83,13.73C22.75,235.85,23.32,259,35.42,273.94c-1.35-4.26-2.69-8.87-1.25-13.09s4.74-6.4,8.27-3.67c1.93,1.49,1.91,3.58,1.77,6a50.24,50.24,0,0,1-1,7.21C40.85,282,49.72,294.5,60.4,299.67l0-.12C70.85,293.9,78,280.73,75.14,269.23a51.53,51.53,0,0,1-1.75-7.08c-.25-2.42.3-5.1,2.15-6.68,3.4-2.89,7.69-.06,9.32,4.1s.5,8.82-.65,13.14c11.4-15.48,10.92-38.63-1.11-53.63-3.2-4-7.39-8.76-5.44-13.49a6.14,6.14,0,0,1,11.62,3.92A18,18,0,0,0,86.36,192c-3.51-4.2-8.76-6.52-12.8-10.21s-5-11.5-1.77-15.91Z"/><path class="cls-5" d="M50,170.52S35.17,217.34,58.52,252c0,0,21.22-30.3,10.19-78.8Z"/><path class="cls-6" d="M53.37,169.19s-9.24,29.26,5.35,50.93c0,0,13.26-18.94,6.37-49.25Z"/><path class="cls-7" d="M42.76,156.41l-.36.7.08,6.43a10.44,10.44,0,0,0,8.12,10.1,57.78,57.78,0,0,0,21,.94c1.05-.15,2.1-.34,3.15-.56a10.53,10.53,0,0,0,8.39-10.42L83,156Z"/><path class="cls-7" d="M41.58,50.7l1,105.71L0,156.82c0-.34.06-.67.11-1,3-23,20.83-24.31,29.3-36.06,1.66-2.31,3.19-7.08,4.57-13.08,4.6-20,7.47-53.81,7.6-55.88Z"/><path class="cls-8" d="M4,153.33a28.47,28.47,0,0,1,3.5-9.1c3.23-5.29,7.83-8.49,12.7-11.87,4.28-3,8.7-6,12-10.59q.27-.37.54-.81h0c1.61-2.64,8.83-32,9.23-34.11l1,66.17Z"/><path class="cls-9" d="M82.09,39.65,83.18,156a68.21,68.21,0,0,1-19.47,3.31c-1.49,0-3,0-4.49-.06a71.39,71.39,0,0,1-16.67-2.86L41.46,40Z"/><path class="cls-7" d="M82.13,43.59l0,3.89c-4.6,1.64-12.55,4-20.28,4.09S46,49.34,41.53,47.77l0-3.9c1.27.46,3,1.07,5.09,1.66a55.3,55.3,0,0,0,15.27,2.39C69.7,47.84,78.06,45.11,82.13,43.59Z"/><path class="cls-7" d="M82.09,39.65A50.57,50.57,0,0,1,41.46,40h0S47.25,15.52,58.8,1.25A3.38,3.38,0,0,1,61.88,0,3.31,3.31,0,0,1,64,1.2C75.83,15.25,82.09,39.65,82.09,39.65Z"/><path class="cls-7" d="M82.19,50.31l1,105.72,42.57-.4q0-.49-.12-1c-3.48-23-21.29-23.92-30-35.51-1.7-2.28-3.33-7-4.82-13-5-19.93-8.48-53.65-8.65-55.73Z"/><path class="cls-8" d="M83.24,152.57l-.56-64.91c.45,2.1,4.34,17.4,4.82,19.32,1.79,7.16,3.51,11.68,5.41,14.22,3.36,4.48,7.84,7.47,12.17,10.36,7.18,4.79,14,9.33,16.6,20.66Z"/><path class="cls-8" d="M60.77.09l4.17,175a52.29,52.29,0,0,0,6.63-.53c1.05-.16,2.1-.34,3.15-.56a10.53,10.53,0,0,0,8.39-10.42L83,156.08l.16-.05L82.09,39.65h0S75.83,15.25,64,1.2A3.31,3.31,0,0,0,61.88,0,3.2,3.2,0,0,0,60.77.09Z"/><path class="cls-10" d="M77.08,37.94l.28,29.61q.26,27.74.52,55.47L78,139.08c0,2,.18,4.16.06,6.21-.26,4.51.59,9,.16,13.6A19.64,19.64,0,0,1,67.55,175c1.35-.09,2.69-.21,4-.4,1.05-.16,2.1-.34,3.15-.56a10.53,10.53,0,0,0,8.39-10.42L83,156.08l.16-.05L82.09,39.65S75.83,15.25,64,1.2A3.32,3.32,0,0,0,62.19.1C72.77,14.48,77.08,37.93,77.08,37.94Z"/><path class="cls-7" d="M77.38,90.27A14.73,14.73,0,1,1,62.52,75.69,14.72,14.72,0,0,1,77.38,90.27Z"/><path class="cls-11" d="M74.3,90.3v.16a11.66,11.66,0,0,1-11.38,11.6h-.15a11.44,11.44,0,0,1-3.17-.41A11.56,11.56,0,0,1,54.76,99,11.65,11.65,0,1,1,74.3,90.3Z"/><path class="cls-12" d="M69.49,94.93a8.22,8.22,0,0,1-6.65,3.68h-.12a8.08,8.08,0,0,1-5.62-2.18,8,8,0,0,1-1.94-2.71,8.15,8.15,0,0,1-.7-3.23,8.19,8.19,0,0,1,8.12-8.27,8.15,8.15,0,0,1,6,2.52,8.29,8.29,0,0,1,2,3.38,7.84,7.84,0,0,1,.32,2.22A8.12,8.12,0,0,1,69.49,94.93Z"/><circle class="cls-7" cx="63.29" cy="61.86" r="7.58" transform="translate(-9.36 11.31) rotate(-9.52)"/><path class="cls-11" d="M68.82,61.81v.07a5.55,5.55,0,0,1-5.41,5.51h-.07a5.47,5.47,0,0,1-3.8-1.47,5.44,5.44,0,0,1-1.31-1.83,5.3,5.3,0,0,1-.47-2.18,5.52,5.52,0,0,1,7.66-5.15A5.45,5.45,0,0,1,67.28,58a5.51,5.51,0,0,1,1.54,3.78Z"/><path class="cls-13" d="M65.72,63.46a2.93,2.93,0,0,1-2.37,1.31,3,3,0,0,1-.82-.1A2.84,2.84,0,0,1,61.32,64a3,3,0,0,1-.7-1,2.93,2.93,0,0,1,.24-2.77A2.91,2.91,0,0,1,63.26,59a2.76,2.76,0,0,1,1.14.22,3.21,3.21,0,0,1,1,.67,3.09,3.09,0,0,1,.69,1.2,2.66,2.66,0,0,1,.12.79A2.92,2.92,0,0,1,65.72,63.46Z"/></g></g></g></svg>